<?xml version="1.0" encoding="utf-8"?>
<!-- Generator: Adobe Illustrator 21.0.0, SVG Export Plug-In . SVG Version: 6.00 Build 0)  -->
<svg version="1.1" id="Layer_1" xmlns="http://www.w3.org/2000/svg" xmlns:xlink="http://www.w3.org/1999/xlink" x="0px" y="0px"
	 viewBox="0 0 386 117" style="enable-background:new 0 0 386 117;" xml:space="preserve">
<style type="text/css">
	.st0{fill:#929497;}
	.st1{fill:#FFFFFF;}
	.st2{fill:url(#SVGID_1_);}
	.st3{fill:url(#SVGID_2_);}
	.st4{fill:url(#SVGID_3_);}
</style>
<g>
	<path class="st0" d="M264.5,88.8c0,6-4.2,9.7-9.2,9.7c-2.4,0-5-0.9-6.2-2.9v11.6h-4.6V79.5h4.6V82c1.3-2,4-2.9,6.2-2.9
		C260.2,79.1,264.5,82.9,264.5,88.8z M259.8,88.9c0-3.1-2.4-5.4-5.3-5.4c-2.8,0-5.4,2.2-5.4,5.4s2.7,5.4,5.4,5.4
		C257.4,94.2,259.8,92,259.8,88.9z"/>
	<path class="st0" d="M266.9,69.5h4.6v28.7h-4.6V69.5z"/>
	<path class="st0" d="M293.9,79.5v18.7h-4.6v-2.5c-1.3,2-3.9,2.9-6.2,2.9c-4.9,0-9.2-3.8-9.2-9.8c0-6,4.2-9.7,9.2-9.7
		c2.4,0,5,0.9,6.2,2.9v-2.5H293.9z M289.2,88.8c0-3.3-2.7-5.4-5.4-5.4c-2.9,0-5.2,2.2-5.2,5.4c0,3.1,2.4,5.4,5.2,5.4
		C286.7,94.2,289.2,92.1,289.2,88.8z"/>
	<path class="st0" d="M314.6,87.7v10.5H310v-10c0-3-1.8-4.5-3.9-4.5c-2.1,0-4.8,1.2-4.8,4.8v9.8h-4.6V79.5h4.6v3
		c1-2.3,3.9-3.4,5.8-3.4C311.9,79.1,314.6,82.3,314.6,87.7z"/>
	<path class="st0" d="M335.8,87.7v10.5h-4.6v-10c0-3-1.8-4.5-3.9-4.5c-2.1,0-4.8,1.2-4.8,4.8v9.8h-4.6V79.5h4.6v3
		c1-2.3,3.9-3.4,5.8-3.4C333.1,79.1,335.8,82.3,335.8,87.7z"/>
	<path class="st0" d="M357.6,90.5h-14.4c0.5,2.6,2.5,3.9,5.3,3.9c2,0,4-0.8,5.1-2.3l3.1,2.4c-1.7,2.7-5,4.2-8.4,4.2
		c-5.6,0-9.8-3.9-9.8-9.8c0-6,4.5-9.7,9.8-9.7c5.4,0,9.6,3.7,9.6,9.6C357.7,89.2,357.7,89.8,357.6,90.5z M353.1,87.2
		c-0.3-2.6-2.2-4-4.8-4c-2.5,0-4.5,1.2-5.1,4H353.1z"/>
	<path class="st0" d="M373,79.7l-0.9,4.4c-1.1-0.6-2-0.7-2.7-0.7c-3,0-4.7,3-4.7,8.2v6.5h-4.7V79.5h4.6v4c1-3.1,3-4.4,5.4-4.4
		C371.1,79.1,372.3,79.3,373,79.7z"/>
	<path class="st1" d="M138.7,56.8c0,8.6-7,14.4-16.9,14.4c-6.8,0-12.2-3.2-15.4-8.9l6.1-4.4c2.2,3.5,5.3,5.6,9,5.6
		c5.2,0,8.9-2.9,8.9-7.1c0-4.5-3.7-7.6-8.9-7.6h-4.6v-6.6h3.3c5,0,8.1-2.8,8-6.5c-0.1-3.2-2.7-5.4-6.6-5.4c-3.1,0-6.3,1.6-8.1,4.1
		l-5-5.1c3-4,7.9-6.7,13.8-6.7c8.3,0,14.3,5,14.3,12.8c0,4.2-2.3,7.8-6.1,9.6C135.4,46.9,138.7,51.3,138.7,56.8z"/>
	<path class="st1" d="M181.5,9.7v56.1h-9.2v-5c-2.5,4-7.8,5.8-12.3,5.8c-9.7,0-18.2-7.5-18.2-19.3c0-11.9,8.4-19.3,18.1-19.3
		c4.7,0,9.8,1.8,12.4,5.7v-24H181.5z M172.1,47.1c0-6.5-5.4-10.6-10.7-10.6c-5.7,0-10.4,4.4-10.4,10.6c0,6.2,4.7,10.8,10.4,10.8
		C167.1,57.9,172.1,53.6,172.1,47.1z"/>
	<path class="st1" d="M225.5,28.8l-15.6,37h-8.4l-15.4-37h9.9l9.8,25.4l9.7-25.4H225.5z"/>
	<path class="st1" d="M228.6,15.7c0-3.2,2.8-5.6,6-5.6c3.3,0,5.9,2.4,5.9,5.6c0,3.2-2.6,5.6-5.9,5.6
		C231.3,21.3,228.6,18.9,228.6,15.7z M230,28.8h9.2v37H230V28.8z"/>
	<path class="st1" d="M244.4,54.2h8.6c0,2.5,2.2,4.9,6.1,4.9c3.6,0,6-1.7,6-4c0-2.1-1.6-3-4.4-3.6l-4.9-1.3
		c-8.3-2.2-10.5-6.7-10.5-11.3c0-5.8,5.7-10.9,13.8-10.9c6.6,0,14,3.2,13.9,11.6h-8.8c0-2.6-2.3-4.2-4.9-4.2c-2.9,0-4.8,1.6-4.8,3.9
		c0,1.9,1.8,3,4,3.5l5.9,1.6c8.3,2.1,9.8,7.4,9.8,10.8c0,7.5-7.5,11.5-15.1,11.5C251.9,66.6,244.6,62.1,244.4,54.2z"/>
	<path class="st1" d="M314.4,28.8v37h-9.2V60c-1.9,4.6-7.8,6.7-11.5,6.7c-9.5,0-14.8-6.3-14.8-17.1V28.8h9.2v19.9c0,5.9,3.6,9,7.7,9
		c4.2,0,9.4-2.3,9.4-9.5V28.8H314.4z"/>
	<path class="st1" d="M358.4,28.8v37h-9.2v-5c-2.5,4-7.8,5.8-12.3,5.8c-9.7,0-18.2-7.5-18.2-19.3c0-11.9,8.4-19.3,18.1-19.3
		c4.7,0,9.8,1.8,12.4,5.7v-4.9H358.4z M349.1,47.1c0-6.5-5.4-10.6-10.7-10.6c-5.7,0-10.4,4.4-10.4,10.6c0,6.2,4.7,10.8,10.4,10.8
		C344,57.9,349.1,53.6,349.1,47.1z"/>
	<path class="st1" d="M363.8,9.7h9.2v56.1h-9.2V9.7z"/>
	<linearGradient id="SVGID_1_" gradientUnits="userSpaceOnUse" x1="11.4976" y1="31.2994" x2="80.3507" y2="63.4061">
		<stop  offset="0" style="stop-color:#1A70B1"/>
		<stop  offset="1" style="stop-color:#24A6DF"/>
	</linearGradient>
	<path class="st2" d="M87.3,45.2L67,11.3c-0.5-0.9-1.8-1.6-2.8-1.6H24.8c-1,0-2.3,0.8-2.8,1.7l-8.2,15c-0.5,0.9-0.1,1.6,1,1.6h38.9
		c1,0,2.3,0.7,2.8,1.6L65.5,46c0.5,0.9,0.5,2.4,0,3.2l-9,15.1c-0.4,0.8-1.4,1.4-2.4,1.5l-17.7-0.3c-1,0-1.4-0.8-0.9-1.6l0.8-1.3
		L25,81.7c-0.7,1.6,1.2,2.6,1.2,2.6c-0.2,0-0.4,0-0.6,0h33.9h6.4c1,0,2.3-0.7,2.8-1.6l18.7-34.3C87.8,47.5,87.8,46.1,87.3,45.2z"/>
	<linearGradient id="SVGID_2_" gradientUnits="userSpaceOnUse" x1="32.3989" y1="68.3057" x2="63.503" y2="90.0851">
		<stop  offset="0" style="stop-color:#231F20"/>
		<stop  offset="0.5" style="stop-color:#FFFFFF;stop-opacity:0"/>
	</linearGradient>
	<path class="st3" d="M56.5,64.4c-0.4,0.8-1.4,1.4-2.4,1.5l-17.7-0.3c-1,0-1.4-0.8-0.9-1.6l0.8-1.3L25,81.7
		c-0.7,1.6,1.2,2.6,1.2,2.6c-0.2,0-0.4,0-0.6,0h33.9h6.4c1,0,2.3-0.7,2.8-1.6"/>
	<path class="st1" d="M41.7,53.1c0,0.1,0,0.2,0,0.3c-0.1,0.3-0.2,0.6-0.3,0.9l-5,8.3L25,81.7c-0.7,1.6,1.2,2.6,1.2,2.6
		c-0.2,0-0.4,0-0.6,0h-0.3c-0.4,0-0.8-0.1-1.2-0.2c-0.7-0.3-1.4-0.8-1.8-1.4l-9-15.5c-0.1-0.2-0.2-0.5-0.3-0.8
		c0-0.2-0.1-0.4-0.1-0.6v-0.1c0-0.4,0-0.8,0.1-1.2c0-0.1,0-0.1,0-0.2c0-0.2,0.1-0.3,0.2-0.4c0,0,0,0,0,0l16-27.8c0,0,0,0,0,0
		l0.1-0.2c0.1-0.2,0.3-0.4,0.5-0.5c0.5-0.4,1.1-0.2,1.5,0.4l6.6,10.3l3.2,4.9C41.6,51.6,41.8,52.4,41.7,53.1z"/>
	<linearGradient id="SVGID_3_" gradientUnits="userSpaceOnUse" x1="13.5368" y1="70.0806" x2="41.6478" y2="50.397">
		<stop  offset="0" style="stop-color:#595A5C"/>
		<stop  offset="9.113330e-02" style="stop-color:#767476;stop-opacity:0.9088"/>
		<stop  offset="0.2184" style="stop-color:#9B999A;stop-opacity:0.7815"/>
		<stop  offset="0.3519" style="stop-color:#BDBABC;stop-opacity:0.648"/>
		<stop  offset="0.491" style="stop-color:#D9D7D8;stop-opacity:0.5088"/>
		<stop  offset="0.6383" style="stop-color:#EEEDEE;stop-opacity:0.3614"/>
		<stop  offset="0.7992" style="stop-color:#FBFBFB;stop-opacity:0.2004"/>
		<stop  offset="0.9996" style="stop-color:#FFFFFF;stop-opacity:0"/>
	</linearGradient>
	<path class="st4" d="M41.7,53.1c0,0.1,0,0.2,0,0.3c-0.1,0.3-0.2,0.6-0.3,0.9l-5,8.3L25,81.7c-0.7,1.6,1.2,2.6,1.2,2.6
		c-0.2,0-0.4,0-0.6,0h-0.3c-0.4,0-0.8-0.1-1.2-0.2c-0.7-0.3-1.4-0.8-1.8-1.4l-9-15.5c-0.1-0.2-0.2-0.5-0.3-0.8
		c0-0.2-0.1-0.4-0.1-0.6v-0.1c0-0.4,0-0.8,0.1-1.2c0-0.1,0-0.1,0-0.2c0-0.2,0.1-0.3,0.2-0.4c0,0,0,0,0,0l16-27.8c0,0,0,0,0,0
		l0.1-0.2c0.1-0.2,0.3-0.4,0.5-0.5c0.5-0.4,1.1-0.2,1.5,0.4l6.6,10.3l3.2,4.9C41.6,51.6,41.8,52.4,41.7,53.1z"/>
</g>
</svg>
