<?xml version="1.0" encoding="utf-8"?>
<!-- Generator: Adobe Illustrator 21.0.0, SVG Export Plug-In . SVG Version: 6.00 Build 0)  -->
<svg version="1.1" id="Layer_1" xmlns="http://www.w3.org/2000/svg" xmlns:xlink="http://www.w3.org/1999/xlink" x="0px" y="0px"
	 viewBox="0 0 255.2 255.2" style="enable-background:new 0 0 255.2 255.2;" xml:space="preserve">
<style type="text/css">
	.st0{opacity:3.000000e-02;}
	.st1{fill:#231F20;}
</style>
<g class="st0">
	<path class="st1" d="M215.8,46.4H206V36.3c0-5.6-4.4-10.1-9.8-10.1c-5.4,0-9.8,4.6-9.8,10.1v10.1h-19.6V36.3
		c0-5.6-4.4-10.1-9.8-10.1s-9.8,4.6-9.8,10.1v10.1H108V36.3c0-5.6-4.4-10.1-9.8-10.1c-5.4,0-9.8,4.6-9.8,10.1v10.1H68.8V36.3
		c0-5.6-4.4-10.1-9.8-10.1s-9.8,4.6-9.8,10.1v10.1h-9.8c-5.4,0-9.8,4.6-9.8,10.1v162.3c0,5.6,4.4,10.1,9.8,10.1h142.9
		c2.6,0,5.1-1.1,6.9-3l33.4-34.6c1.9-1.9,2.9-4.5,2.9-7.2V56.6C225.5,51,221.2,46.4,215.8,46.4z M206,174.2c0,2.2-1.7,4.1-3.9,4.1
		h-21.5c-2.2,0-3.9,1.8-3.9,4.1v22.3c0,2.2-1.7,4.1-3.9,4.1H53.2c-2.2,0-3.9-1.8-3.9-4.1V91.1c0-2.2,1.7-4.1,3.9-4.1H202
		c2.2,0,3.9,1.8,3.9,4.1V174.2z"/>
	<path class="st1" d="M94.3,107.3H82.5c-2.2,0-3.9,1.8-3.9,4.1v12.2c0,2.2,1.7,4.1,3.9,4.1h11.8c2.2,0,3.9-1.8,3.9-4.1v-12.2
		C98.2,109.1,96.5,107.3,94.3,107.3z"/>
	<path class="st1" d="M133.5,107.3h-11.8c-2.2,0-3.9,1.8-3.9,4.1v12.2c0,2.2,1.7,4.1,3.9,4.1h11.8c2.2,0,3.9-1.8,3.9-4.1v-12.2
		C137.4,109.1,135.7,107.3,133.5,107.3z"/>
	<path class="st1" d="M172.6,107.3h-11.8c-2.2,0-3.9,1.8-3.9,4.1v12.2c0,2.2,1.7,4.1,3.9,4.1h11.8c2.2,0,3.9-1.8,3.9-4.1v-12.2
		C176.6,109.1,174.8,107.3,172.6,107.3z"/>
	<path class="st1" d="M94.3,147.9H82.5c-2.2,0-3.9,1.8-3.9,4.1v12.2c0,2.2,1.7,4.1,3.9,4.1h11.8c2.2,0,3.9-1.8,3.9-4.1V152
		C98.2,149.7,96.5,147.9,94.3,147.9z"/>
	<path class="st1" d="M133.5,147.9h-11.8c-2.2,0-3.9,1.8-3.9,4.1v12.2c0,2.2,1.7,4.1,3.9,4.1h11.8c2.2,0,3.9-1.8,3.9-4.1V152
		C137.4,149.7,135.7,147.9,133.5,147.9z"/>
	<path class="st1" d="M172.6,147.9h-11.8c-2.2,0-3.9,1.8-3.9,4.1v12.2c0,2.2,1.7,4.1,3.9,4.1h11.8c2.2,0,3.9-1.8,3.9-4.1V152
		C176.6,149.7,174.8,147.9,172.6,147.9z"/>
</g>
</svg>
