<?xml version="1.0" encoding="utf-8"?>
<!-- Generator: Adobe Illustrator 21.0.0, SVG Export Plug-In . SVG Version: 6.00 Build 0)  -->
<svg version="1.1" id="Layer_1" xmlns="http://www.w3.org/2000/svg" xmlns:xlink="http://www.w3.org/1999/xlink" x="0px" y="0px"
	 viewBox="0 0 353.7 353.7" style="enable-background:new 0 0 353.7 353.7;" xml:space="preserve">
<style type="text/css">
	.st0{opacity:3.000000e-02;fill:#231F20;}
</style>
<path class="st0" d="M19.4,112.9l14.8,8.7c3.1,1.5,4.6,5.1,4.6,8.7c0,5.1,0,10.2,0.5,15.3c0.5,3.6-1,6.7-4.1,8.7l-14.3,9.7
	c-3.6,2.6-4.6,7.2-3.1,10.7l9.2,20.5c1.5,3.6,6.1,5.6,10.2,4.6l16.4-4.6c3.6-1,7.2,0,9.2,2.6c3.6,3.6,7.2,7.2,11.2,10.2
	c2.6,2.1,4.1,5.6,3.6,9.2l-3.1,16.9c-1,4.1,1.5,8.2,5.6,9.7l21.5,8.2c4.1,1.6,8.2,0,10.7-3.6l8.7-14.8c1.6-3.1,5.1-4.6,8.7-4.6
	c4.6,0,9.7,0,14.3-0.5c3.6-0.5,6.7,1,8.7,4.1l9.7,14.3c2.6,3.6,7.2,4.6,10.7,3.1l20.5-9.2c3.6-1.5,5.6-6.1,4.6-10.2l-4.6-16.4
	c-1-3.6,0-7.2,3.1-9.2c3.6-3.6,7.2-7.2,10.2-10.7c2.1-2.6,5.6-4.1,9.2-3.6l16.9,3.1c4.1,1,8.2-1.5,9.7-5.6l8.2-21.5
	c1.5-4.1,0-8.2-3.6-10.7l-14.3-8.2c-3.1-1.5-4.6-5.1-4.6-8.7c0.5-5.1,0-10.2-0.5-14.8c-0.5-3.6,1-6.7,4.1-8.7l14.3-9.7
	c3.6-2.6,4.6-7.2,3.1-10.7l-9.2-20.5c-1.5-3.6-6.1-5.6-10.2-4.6l-16.4,4.6c-3.6,1-7.2,0-9.2-2.6c-3.1-3.6-7.2-7.2-10.7-10.2
	c-2.6-2-4.1-5.6-3.6-9.2l3.1-16.9c1-4.1-1.5-8.2-5.6-9.7l-21.5-8.2c-4.1-1.5-8.2,0-10.7,3.6l-8.2,14.3c-1.5,3.1-5.1,4.6-8.7,4.6
	c-5.1-0.5-10.2,0-15.3,0.5c-3.6,0.5-7.2-1-8.7-4.1L104.8,23c-2.6-3.6-7.2-4.6-10.7-3.1l-20.5,9.2c-3.6,1.6-5.6,6.1-4.6,10.2
	l4.6,16.4c1,3.6,0,7.2-2.6,9.2c-3.6,3.6-7.2,7.2-10.2,11.2c-2.1,2.6-5.6,4.1-9.2,3.6l-16.9-3.1c-4.1-0.5-8.2,1.5-9.7,5.1l-8.2,21.5
	C13.8,106.8,15.3,110.9,19.4,112.9 M85.9,117.6c9.2-26.1,37.8-39.4,63.4-30.2c26.1,9.2,39.4,37.8,30.2,63.4
	c-9.2,26.1-37.8,39.4-63.4,30.2C90,172.3,76.7,143.6,85.9,117.6 M211.7,303.7c-1.5,2-1,4.6,0.5,6.7l9.2,9.2c1.6,2,4.6,2,6.7,0.5
	l8.2-5.6c1.6-1,4.1-1.5,5.6-0.5c2.6,1.6,5.6,2.6,8.2,3.6c2.1,0.5,3.6,2.6,3.6,4.6l1.5,10.2c0.5,2.6,2.6,4.1,5.1,4.1h13.3
	c2.6,0,4.6-1.5,5.1-4.1l1.5-10.2c0.5-2.1,2-3.6,3.6-4.1c3.1-1,5.6-2.1,8.2-3.6c2-1,4.1-1,5.6,0.5l8.2,6.1c2.1,1.6,5.1,1,6.7-0.5
	l9.2-9.2c2.1-2.1,2.1-4.6,0.5-6.7l-5.6-8.2c-1-1.5-1.5-4.1-0.5-5.6c1.5-2.6,2.6-5.1,3.6-7.7c0.5-2.1,2.6-3.6,4.6-3.6l10.2-1.5
	c2.6-0.5,4.1-2.6,4.1-5.1v-13.3c0-2.6-1.5-4.6-4.1-5.1l-9.7-1.5c-2.1-0.5-3.6-2.1-4.6-4.1c-1-3.1-2.1-5.6-3.1-8.2
	c-1-2.1-1-4.1,0.5-5.6l6.1-8.2c1.5-2.1,1-5.1-0.5-6.7l-9.2-9.2c-1.5-2.1-4.6-2.1-6.7-0.5l-8.2,5.6c-1.5,1-4.1,1.5-5.6,0.5
	c-2.6-1.6-5.6-2.6-8.2-3.6c-2.1-0.5-3.6-2.6-3.6-4.6l-1.6-10.2c-0.5-2.6-2.6-4.1-5.1-4.1h-13.3c-2.6,0-4.6,1.5-5.1,4.1l-1.5,9.7
	c-0.5,2.1-2.1,3.6-4.1,4.6c-2.6,1-5.6,2.1-8.2,3.1c-2.1,1-4.1,1-5.6-0.5l-8.2-6.1c-2-1.5-5.1-1-6.7,0.5l-9.2,9.2
	c-2.1,2.1-2.1,4.6-0.5,6.7l5.6,8.2c1,1.5,1.6,4.1,0.5,5.6c-1.5,2.6-2.6,5.6-3.6,8.7c-0.5,2.1-2.6,3.6-4.6,3.6l-10.2,1.5
	c-2.6,0.5-4.1,2.6-4.1,5.1v13.3c0,2.6,1.5,4.6,4.1,5.1l10.2,1.5c2,0.5,3.6,2,4.1,3.6c1,3.1,2.1,5.6,3.6,8.2c1,2,1,4.1-0.5,5.6
	L211.7,303.7z M246.9,243.9c11.2-11.8,30.2-11.8,41.9-0.5c11.8,11.2,11.8,30.2,0.5,41.9c-11.2,11.8-30.2,11.8-41.9,0.5
	C235.7,274.5,235.2,255.6,246.9,243.9"/>
</svg>
