<?xml version="1.0" encoding="utf-8"?>
<!-- Generator: Adobe Illustrator 21.0.0, SVG Export Plug-In . SVG Version: 6.00 Build 0)  -->
<svg version="1.1" id="Layer_1" xmlns="http://www.w3.org/2000/svg" xmlns:xlink="http://www.w3.org/1999/xlink" x="0px" y="0px"
	 viewBox="0 0 310 192" style="enable-background:new 0 0 310 192;" xml:space="preserve">
<style type="text/css">
	.st0{opacity:3.000000e-02;}
	.st1{fill:#231F20;}
</style>
<g class="st0">
	<path class="st1" d="M134.2,128.4c-11.4,11.4-11.4,30.2,0.3,41.6c11.4,11.4,29.9,11.4,41.3,0c11.4-11.4,84.7-126.3,84.7-126.3
		S145.6,117,134.2,128.4z M154.6,164c-7.7,0-14-6.3-14-14c0-7.7,6.3-14,14-14s14,6.3,14,14C168.6,157.7,162.4,164,154.6,164z"/>
	<path class="st1" d="M207.4,24.2c-16.2-6.7-34-10.7-52.4-10.7c-18.3,0-36.4,3.7-52.4,10.8c0,0-0.1,0-0.1,0
		C86.3,31,71.9,40.8,59.7,53C47.6,65.2,37.8,79.5,31.1,95.6L30.9,96c-6.7,16.2-10.7,33.9-10.7,52.3c0,2.3,0.1,4.6,0.2,6.9h11.8
		c-0.1-2.3-0.2-4.6-0.2-6.9c0-16.7,3.6-32.9,9.8-47.8c6.1-14.8,15.1-28,26.3-39.2l0.2-0.1c11.2-11.1,24.2-20,38.9-26.1l0.1-0.1h0.1
		c14.4-6.4,30.9-9.8,47.7-9.8c16.7,0,33,3.7,47.9,9.9c8.3,3.5,16.1,7.9,23.3,13c3.3-2.2,6.8-4.5,10.2-6.8
		C227.5,34.4,217.9,28.5,207.4,24.2z"/>
	<path class="st1" d="M262.9,68c-2.3,3.5-4.7,7-6.9,10.4c4.7,7,8.9,14.3,12.4,22.2c6.4,14.4,9.8,30.9,9.8,47.7
		c0,2.3-0.1,4.6-0.2,6.9h11.8c0.1-2.3,0.2-4.6,0.2-6.9c0-18.4-3.6-36.4-10.7-52.5C274.8,85.9,269.2,76.6,262.9,68z"/>
</g>
</svg>
