<?xml version="1.0" encoding="utf-8"?>
<!-- Generator: Adobe Illustrator 21.0.0, SVG Export Plug-In . SVG Version: 6.00 Build 0)  -->
<svg version="1.1" id="Layer_1" xmlns="http://www.w3.org/2000/svg" xmlns:xlink="http://www.w3.org/1999/xlink" x="0px" y="0px"
	 viewBox="0 0 237.8 237.8" style="enable-background:new 0 0 237.8 237.8;" xml:space="preserve">
<style type="text/css">
	.st0{opacity:3.000000e-02;fill:#231F20;stroke:#FFFFFF;stroke-width:0.5;stroke-miterlimit:10;}
</style>
<path class="st0" d="M225,197.6l-27.7-73.4c-2.9-7.7-10.7-12.8-18.3-12.8h-29.2l4.1-8.1c1.4-2.6,2.6-5,2.6-5c0,0,1-2.3,2.3-5
	c0,0,6.2-12.9,6.2-23.4c0-26.9-20.7-48.7-46.2-48.7c-25.5,0-46.2,21.8-46.2,48.6c0,10.5,6.2,23.3,6.2,23.3c1.3,2.7,2.3,4.9,2.3,4.9
	c0,0,1.1,2.7,2.6,5.3l4.1,8.1H58.8c-7.5,0-15.4,5.1-18.3,12.8l-27.7,73.7c-1.7,4.6-1.4,9.4,0.8,13.1c2.3,3.7,6.2,5.8,10.7,5.8h189.2
	c4.5,0,8.5-2.2,10.7-6C226.5,207.1,226.8,202.2,225,197.6z M118.9,41c13.6,0,24.7,12.2,24.7,27.2s-11.1,27.2-24.7,27.2
	c-13.6,0-24.7-12.2-24.7-27.2S105.3,41,118.9,41z M25.4,202l27.3-73.1c0.8-2.2,3.9-4.7,6.1-4.7H96l20.3,37c1.4,2.6,3.8,2.5,5.2-0.1
	l20.3-36.9H179c2.2,0,5.2,2.4,6.1,4.7l27.3,73.1L25.4,202z"/>
</svg>
