<svg xmlns="http://www.w3.org/2000/svg" width="37.09" height="34" viewBox="0 0 37.09 34">
  <g id="iconmonstr-checkbox-20-01" transform="translate(0.001 -1.011)">
    <g id="Layer_1" data-name="Layer 1" transform="translate(-0.001 1.011)">
      <path id="Path_520" data-name="Path 520" d="M30.738,15.907a15.454,15.454,0,0,1,.17,2.086A13.908,13.908,0,1,1,17,4.085a13.769,13.769,0,0,1,8.144,2.658c.819-.68,1.638-1.36,2.473-2.009A17,17,0,1,0,34,17.993a17.185,17.185,0,0,0-.819-5.223C32.361,13.759,31.542,14.794,30.738,15.907Z" transform="translate(0.001 -1.011)" fill="#242424"/>
    </g>
    <g id="Layer_2" data-name="Layer 2" transform="translate(8.469 3.065)">
      <path id="Path_521" data-name="Path 521" d="M5.48,14.842l2.442-2.21a46.578,46.578,0,0,1,7.9,4.636A68.429,68.429,0,0,1,33.3,2.34l.8,1.824c-6.182,5.378-10.617,11.312-17,22.9A120.956,120.956,0,0,0,5.48,14.842Z" transform="translate(-5.48 -2.34)" fill="#242424"/>
    </g>
  </g>
</svg>
