<?xml version="1.0" encoding="utf-8"?>
<!-- Generator: Adobe Illustrator 21.0.0, SVG Export Plug-In . SVG Version: 6.00 Build 0)  -->
<svg version="1.1" id="Layer_1" xmlns="http://www.w3.org/2000/svg" xmlns:xlink="http://www.w3.org/1999/xlink" x="0px" y="0px"
	 viewBox="0 0 50.4 50.4" style="enable-background:new 0 0 50.4 50.4;" xml:space="preserve">
<style type="text/css">
	.st0{opacity:0.4;}
	.st1{fill:none;stroke:#333333;stroke-width:0.5;stroke-miterlimit:10;}
	.st2{fill:#333333;}
</style>
<g class="st0">
	<circle class="st1" cx="26.4" cy="25.6" r="20.5"/>
</g>
<g id="O60nLE_1_" class="st0">
	<g>
		<path class="st2" d="M20.3,15.6c4.1,0,8.2,0,12.3,0c0.1,0,0.3,0,0.4,0.1c2,0.4,3.4,2,3.4,4c0,3.9,0,7.8,0,11.7c0,0.1,0,0.3,0,0.4
			c-0.2,2.1-1.9,3.7-4.1,3.7c-3.9,0-7.8,0-11.7,0c-0.1,0-0.3,0-0.4,0c-1.8-0.2-3.2-1.4-3.6-3.1c0-0.2-0.1-0.4-0.1-0.6
			c0-4.1,0-8.2,0-12.3v-0.1c0.2-1.6,1.3-3,2.9-3.5C19.6,15.7,20,15.7,20.3,15.6z M34.8,25.5c0-2,0-3.9,0-5.9c0-1.4-1.1-2.5-2.5-2.5
			c-3.9,0-7.8,0-11.7,0c-1.4,0-2.5,1.1-2.5,2.5c0,3.9,0,7.8,0,11.7c0,1.4,1.1,2.5,2.5,2.5c3.9,0,7.8,0,11.7,0c0.2,0,0.4,0,0.6-0.1
			c1.1-0.3,1.9-1.3,1.9-2.4C34.8,29.5,34.8,27.5,34.8,25.5z"/>
		<path class="st2" d="M20.6,25.5c0-3.2,2.6-5.7,5.7-5.7c3.2,0,5.7,2.6,5.7,5.7c0,3.2-2.6,5.7-5.7,5.7
			C23.3,31.3,20.6,28.7,20.6,25.5z M26.4,21.4c-2.3,0-4.2,1.9-4.2,4.2s1.9,4.2,4.2,4.2s4.2-1.9,4.2-4.2
			C30.5,23.2,28.8,21.4,26.4,21.4z"/>
		<path class="st2" d="M33.2,19.9c0,0.6-0.5,1.1-1.1,1.1c-0.6,0-1.1-0.5-1.1-1.1c0-0.6,0.5-1.1,1.1-1.1
			C32.7,18.8,33.2,19.3,33.2,19.9z"/>
	</g>
</g>
</svg>
