<?xml version="1.0" encoding="utf-8"?>
<!-- Generator: Adobe Illustrator 24.0.1, SVG Export Plug-In . SVG Version: 6.00 Build 0)  -->
<svg version="1.1" id="Layer_1" xmlns="http://www.w3.org/2000/svg" xmlns:xlink="http://www.w3.org/1999/xlink" x="0px" y="0px"
	 viewBox="0 0 72 80" style="enable-background:new 0 0 72 80;" xml:space="preserve">
<style type="text/css">
	.st0{fill:#E6292B;stroke:#E6292B;stroke-width:2;stroke-miterlimit:10;}
</style>
<g>
	<path class="st0" d="M37.3,78.2c2.8-1.8,5.6-3.5,8.4-5.3c1.3-0.8,2.5-1.6,3.8-2.4c2.9-2,5.5-4.3,7.9-6.8C62,58.5,65.6,52.5,67.9,46
		c1.9-5.4,2.7-11,2.7-16.7V18.6v-0.3c0-1.1-0.8-2.1-1.8-2.4c-1-0.3-2-0.6-3-1c0.2,0.1,0.4,0.2,0.6,0.2c-1-0.4-1.9-0.9-2.9-1.5
		c-0.5-0.3-0.9-0.6-1.3-0.9c-0.1-0.1-0.2-0.2-0.3-0.2c0,0-0.1-0.1-0.1-0.1c-0.2-0.2,0.3,0.2,0.3,0.2c-0.2-0.2-0.4-0.3-0.6-0.5
		c-0.8-0.7-1.6-1.4-2.3-2.2c-0.2-0.2-0.3-0.4-0.5-0.6c-0.1-0.1-0.2-0.2-0.3-0.3c-0.2-0.3,0.4,0.5,0.1,0.1c-0.3-0.4-0.6-0.9-0.9-1.3
		c-0.7-1-1.2-2.1-1.7-3.3c0.1,0.2,0.2,0.4,0.2,0.6c-0.2-0.6-0.5-1.2-0.7-1.8c-0.3-1-1.3-1.8-2.4-1.8h-3.4h-8.1h-9.7h-8.4
		c-1.4,0-2.7,0-4.1,0h-0.1c-1.1,0-2,0.8-2.4,1.8c-0.2,0.6-0.4,1.2-0.7,1.8c0.1-0.2,0.2-0.4,0.2-0.6c-0.4,1-0.9,1.9-1.5,2.9
		c-0.3,0.5-0.6,0.9-0.9,1.3c-0.1,0.1-0.2,0.2-0.2,0.3c0,0-0.1,0.1-0.1,0.1c-0.2,0.2,0.2-0.3,0.2-0.3c-0.2,0.2-0.3,0.4-0.5,0.6
		c-0.7,0.8-1.4,1.6-2.2,2.3c-0.2,0.2-0.4,0.3-0.6,0.5c-0.1,0.1-0.2,0.2-0.3,0.3c-0.3,0.2,0.5-0.4,0.1-0.1c-0.4,0.3-0.9,0.6-1.3,0.9
		c-1,0.7-2.1,1.2-3.3,1.7c0.2-0.1,0.4-0.2,0.6-0.2c-1,0.4-2,0.7-3,1c-1,0.3-1.8,1.3-1.8,2.4v9.9c0,1.7,0,3.5,0.1,5.2
		c0.3,3.5,0.8,6.9,1.8,10.3c1.9,6.6,5.3,12.8,9.7,18.1c3.5,4.1,7.7,7.5,12.2,10.4c3,1.9,6.1,3.9,9.1,5.8c0.1,0,0.2,0.1,0.2,0.1
		c1.1,0.7,2.8,0.3,3.4-0.9c0.6-1.2,0.3-2.6-0.9-3.4C34.2,71.9,31.1,70,28,68c-0.4-0.3-0.8-0.5-1.2-0.8c-0.6-0.4-1.3-0.8-1.9-1.3
		c-0.4-0.3-0.7-0.5-1.1-0.8c-0.2-0.1-0.3-0.3-0.5-0.4c0.7,0.5,0,0-0.2-0.1c-1.4-1.1-2.8-2.4-4.1-3.7c-1.3-1.3-2.5-2.6-3.6-4.1
		c0,0,0.4,0.5,0.2,0.2c-0.1-0.1-0.2-0.3-0.3-0.4c-0.1-0.2-0.3-0.4-0.4-0.6c-0.3-0.4-0.6-0.8-0.8-1.2c-0.6-0.8-1.1-1.7-1.6-2.6
		c-1-1.8-1.9-3.6-2.7-5.4c0.1,0.2,0.2,0.4,0.2,0.6c-1.6-3.8-2.7-7.8-3.3-11.9c0,0.2,0.1,0.4,0.1,0.7c-0.4-2.7-0.4-5.3-0.4-8v-7.8
		v-2.1c-0.6,0.8-1.2,1.6-1.8,2.4c2.8-0.8,5.4-1.9,7.8-3.6c2.7-2,5.1-4.4,6.8-7.3c1-1.6,1.7-3.3,2.3-5.1c-0.8,0.6-1.6,1.2-2.4,1.8
		h3.4h8.1h9.7h8.4c1.4,0,2.7,0,4.1,0h0.1c-0.8-0.6-1.6-1.2-2.4-1.8c2,6.3,6.6,11.7,12.6,14.5c1.4,0.7,2.9,1.2,4.4,1.6
		c-0.6-0.8-1.2-1.6-1.8-2.4v5.5V30c0,2.1-0.1,4.2-0.4,6.3c0-0.2,0.1-0.4,0.1-0.7c-0.6,4.1-1.7,8.1-3.3,11.9c0.1-0.2,0.2-0.4,0.2-0.6
		c-1.4,3.3-3.2,6.5-5.3,9.4c-0.1,0.2-0.2,0.3-0.4,0.5c-0.1,0.2-0.6,0.7-0.1,0.1c-0.3,0.4-0.6,0.8-0.9,1.1c-0.6,0.7-1.2,1.4-1.8,2
		c-1.2,1.3-2.5,2.6-3.9,3.7c-0.3,0.3-0.7,0.6-1.1,0.9c-0.2,0.1-0.3,0.3-0.5,0.4c0.7-0.5,0,0-0.2,0.1c-0.7,0.6-1.5,1.1-2.2,1.6
		c-0.5,0.3-1,0.6-1.5,1c-1.8,1.1-3.6,2.3-5.4,3.4c-1.4,0.9-2.8,1.8-4.3,2.7c-1.1,0.7-1.6,2.2-0.9,3.4C34.6,78.4,36.1,78.9,37.3,78.2
		L37.3,78.2z"/>
	<path class="st0" d="M19.8,39.3l9.7,9.7c0.9,0.9,2.5,0.9,3.5,0c2.2-2.2,4.4-4.4,6.5-6.5c3.4-3.4,6.9-6.9,10.3-10.3
		c0.8-0.8,1.6-1.6,2.4-2.4c0.9-0.9,1-2.6,0-3.5c-1-0.9-2.5-1-3.5,0c-2.2,2.2-4.4,4.4-6.5,6.5c-3.4,3.4-6.9,6.9-10.3,10.3
		c-0.8,0.8-1.6,1.6-2.4,2.4H33l-9.7-9.7c-0.9-0.9-2.6-1-3.5,0C18.9,36.7,18.8,38.3,19.8,39.3L19.8,39.3z"/>
</g>
</svg>
