<?xml version="1.0" encoding="utf-8"?>
<!-- Generator: Adobe Illustrator 24.0.1, SVG Export Plug-In . SVG Version: 6.00 Build 0)  -->
<svg version="1.1" id="Layer_1" xmlns="http://www.w3.org/2000/svg" xmlns:xlink="http://www.w3.org/1999/xlink" x="0px" y="0px"
	 viewBox="0 0 546 420" style="enable-background:new 0 0 546 420;" xml:space="preserve">
<style type="text/css">
	.st0{opacity:0.4;fill:#E62A2B;enable-background:new    ;}
	.st1{fill:none;stroke:#555562;stroke-width:2;stroke-miterlimit:10;}
	.st2{fill:#E62A2B;}
	.st3{opacity:0.25;fill:#020203;enable-background:new    ;}
	.st4{opacity:0.1;fill:#E62A2B;enable-background:new    ;}
	.st5{fill:url(#SVGID_1_);}
	.st6{fill:#FFFFFF;}
	.st7{fill:#5B5874;}
	.st8{opacity:0.2;fill:#5B5874;enable-background:new    ;}
	.st9{fill:url(#SVGID_2_);}
	.st10{fill:#F0B7B9;}
	.st11{opacity:0.1;fill:#020203;enable-background:new    ;}
	.st12{fill:#EC6586;}
	.st13{fill:#454153;}
	.st14{fill:#A2626B;}
	.st15{fill:#774D65;}
	.st16{opacity:0.1;}
	.st17{fill:#020203;}
</style>
<g>
	<path class="st0" d="M532.8,285.6c-0.5,0.4-0.9,0.7-1.4,1c-1.8,1.3-3.6,2.4-5.5,3.4c-10.1,5.3-22.5,7.9-34.6,9.7
		c-27.1,4-54.8,4.7-82.4,5.5c-74.5,2-149.1,4.1-223.4-0.6c-29.4-1.9-59.4-5-86-14.5c-3.8-1.4-7.6-2.9-11.2-4.5
		c-7.4-3.3-14.5-7.4-20.4-12.3c-5.6-4.5-10.1-9.8-12.8-15.7c-5.6-12.4-2.6-26.3,3.8-38.4c2.7-4.9,5.7-9.6,9-14.1
		c5-6.8,10.4-13.5,15.4-20.3c17.7-24.2,29.3-54.9,12.9-79.8c-4.7-7.1-11.5-13.4-15.3-20.9c-4.9-9.5-4.5-20.1-3-30.4
		c0.2-1.3,0.4-2.6,0.6-3.9c2.7-15.3,7.7-31.7,23.1-41.2c16-9.9,38.8-9.4,58.6-5.9c30.9,5.5,59.4,17,88.2,27.4s59,19.9,90.6,20.9
		c28,0.9,60.6-5.8,79.1-23.4c18-17,51.9-18.3,76.3-8c16.8,7.1,29.3,19.8,34.5,34.1c1.1,2.9,1.8,5.8,2.3,8.9c0.4,2.8,0.6,5.6,0.4,8.4
		c-0.1,1.4-0.2,2.7-0.4,4.1c-4.1,28.2-33.4,50.5-51.3,75.7c-8.7,12.3-14.9,27.1-8.9,40.4c9.1,20.2,41,27.4,60.2,42.5
		c3.6,2.7,6.8,6,9.4,9.7C550.1,256.8,546.7,274.9,532.8,285.6z"/>
	<g id="d00831fc-a64a-413c-b5dd-d7bd6eafa01d">
		<path class="st1" d="M126.1,159.2c0,0-22.5-39.9-56.4-51.5c-14.2-4.8-26.7-13.9-35.1-26.3c-4-5.9-7.5-12.1-10.4-18.7"/>
		<path class="st2" d="M2.9,55.3C6.7,59.1,24.7,63,24.7,63s-4.4-17.9-8.3-21.7c-3.9-3.7-10.1-3.5-13.8,0.4
			C-1,45.6-0.9,51.6,2.9,55.3L2.9,55.3z"/>
		<path class="st2" d="M13.1,87.7c5.3,1,22.5-5.5,22.5-5.5S22.1,69.6,16.8,68.6c-5.3-0.9-10.4,2.6-11.3,7.9
			C4.6,81.6,8,86.6,13.1,87.7L13.1,87.7z"/>
		<path class="st2" d="M50.1,122.8c5.1-1.8,16.6-16.1,16.6-16.1s-17.9-4.1-23-2.3c-5.1,1.6-8,7.1-6.4,12.2c1.6,5.2,7.1,8,12.2,6.4
			C49.7,122.9,49.9,122.9,50.1,122.8L50.1,122.8z"/>
		<path class="st2" d="M84.1,143c5.3-0.9,19.1-13.1,19.1-13.1s-17-7.1-22.3-6.2c-5.3,0.9-8.9,5.9-8,11.2
			C73.8,140.2,78.8,143.8,84.1,143L84.1,143z"/>
		<path class="st2" d="M50.6,68.3c0,5.4-9.7,21-9.7,21s-9.8-15.6-9.8-21c-0.1-5.4,4.1-9.9,9.5-10s9.8,4.2,10,9.5
			C50.6,68,50.6,68.1,50.6,68.3L50.6,68.3z"/>
		<path class="st2" d="M90,92.4c-1.6,5.1-15.6,17.2-15.6,17.2s-4.6-17.9-3-23c1.8-5.1,7.4-7.7,12.5-5.9C88.6,82.4,91.3,87.5,90,92.4
			L90,92.4z"/>
		<path class="st2" d="M125.2,121.1c-0.7,5.3-12.5,19.5-12.5,19.5s-7.6-16.8-6.8-22.1c0.8-5.3,5.8-9,11.1-8.2
			C122.2,111.1,125.8,115.8,125.2,121.1L125.2,121.1z"/>
		<path class="st3" d="M2.9,55.3C6.7,59.1,24.7,63,24.7,63s-4.4-17.9-8.3-21.7c-3.9-3.7-10.1-3.5-13.8,0.4
			C-1,45.6-0.9,51.6,2.9,55.3L2.9,55.3z"/>
		<path class="st3" d="M13.1,87.7c5.3,1,22.5-5.5,22.5-5.5S22.1,69.6,16.8,68.6c-5.3-0.9-10.4,2.6-11.3,7.9
			C4.6,81.6,8,86.6,13.1,87.7L13.1,87.7z"/>
		<path class="st3" d="M50.1,122.8c5.1-1.8,16.6-16.1,16.6-16.1s-17.9-4.1-23-2.3c-5.1,1.6-8,7.1-6.4,12.2c1.6,5.2,7.1,8,12.2,6.4
			C49.7,122.9,49.9,122.9,50.1,122.8L50.1,122.8z"/>
		<path class="st3" d="M84.1,143c5.3-0.9,19.1-13.1,19.1-13.1s-17-7.1-22.3-6.2c-5.3,0.9-8.9,5.9-8,11.2
			C73.8,140.2,78.8,143.8,84.1,143L84.1,143z"/>
		<path class="st3" d="M50.6,68.3c0,5.4-9.7,21-9.7,21s-9.8-15.6-9.8-21c-0.1-5.4,4.1-9.9,9.5-10s9.8,4.2,10,9.5
			C50.6,68,50.6,68.1,50.6,68.3L50.6,68.3z"/>
		<path class="st3" d="M90,92.4c-1.6,5.1-15.6,17.2-15.6,17.2s-4.6-17.9-3-23c1.8-5.1,7.4-7.7,12.5-5.9C88.6,82.4,91.3,87.5,90,92.4
			L90,92.4z"/>
		<path class="st3" d="M125.2,121.1c-0.7,5.3-12.5,19.5-12.5,19.5s-7.6-16.8-6.8-22.1c0.8-5.3,5.8-9,11.1-8.2
			C122.2,111.1,125.8,115.8,125.2,121.1L125.2,121.1z"/>
		<path class="st1" d="M124.8,158.4c0,0-4.4-45.7-30.8-69.9C83,78.3,75.3,64.9,72.6,50.1c-1.3-7-1.9-14.2-1.9-21.3"/>
		<path class="st2" d="M54.2,13.4c2,5,16.9,15.9,16.9,15.9s3.2-18.2,1.2-23.2c-2-5-7.7-7.4-12.7-5.4S52.1,8.4,54.2,13.4L54.2,13.4z"
			/>
		<path class="st2" d="M50.4,47.2c4.4,3.1,22.8,4.1,22.8,4.1s-7.1-17-11.5-20.1c-4.4-3.1-10.5-2.1-13.6,2.3
			C44.9,38,46,44.1,50.4,47.2z"/>
		<path class="st2" d="M70.1,94.2c5.4,0.5,21.7-8,21.7-8s-14.7-11-20.1-11.5c-5.4-0.6-10.2,3.3-10.7,8.7c-0.6,5.4,3.3,10.2,8.7,10.7
			C69.8,94.2,69.9,94.2,70.1,94.2L70.1,94.2z"/>
		<path class="st2" d="M93,126.5c5.2,1.4,22.8-4.2,22.8-4.2s-12.7-13.4-17.9-14.7c-5.2-1.3-10.5,2-11.8,7.2
			C84.9,119.9,87.9,125.1,93,126.5L93,126.5z"/>
		<path class="st2" d="M92.5,44.6c-2.2,4.9-17.4,15.3-17.4,15.3s-2.6-18.2-0.4-23.2c2.1-5,7.8-7.3,12.8-5.2c5,2.1,7.3,7.8,5.2,12.8
			C92.6,44.4,92.6,44.5,92.5,44.6z"/>
		<path class="st2" d="M118.9,82.7c-3.6,4.1-21.2,9.4-21.2,9.4s3-18.2,6.5-22.2c3.6-4.1,9.7-4.5,13.8-0.9
			C122,72.4,122.4,78.6,118.9,82.7z"/>
		<path class="st2" d="M139.4,123.2c-2.8,4.6-19.3,12.8-19.3,12.8s-0.1-18.4,2.7-23c2.8-4.6,8.8-6,13.4-3.2
			C140.8,112.6,142.2,118.6,139.4,123.2L139.4,123.2z"/>
	</g>
	<ellipse class="st4" cx="199.6" cy="410.2" rx="54.6" ry="7.1"/>
	<g id="_x35_cfdbbb0-8197-4f02-a5fd-2740d54b5dec">
		<path class="st2" d="M325.6,399.3c0,0-20.7-1.2-18.2,13.3c0,0-0.5,2.6,1.8,3.7c0,0,0-1.1,2.1-0.7c0.7,0.1,1.5,0.2,2.2,0.1
			c1-0.1,2-0.5,2.7-1.1l0,0c0,0,5.8-2.4,8.1-11.9c0,0,1.7-2.1,1.6-2.6l-3.5,1.5c0,0,1.2,2.5,0.3,4.6c0,0-0.1-4.5-0.8-4.4
			c-0.1,0-1.8,0.9-1.8,0.9s2.1,4.4,0.5,7.6c0,0,0.6-5.4-1.1-7.3l-2.4,1.4c0,0,2.4,4.5,0.8,8.2c0,0,0.4-5.7-1.3-7.9l-2.2,1.7
			c0,0,2.3,4.5,0.9,7.5c0,0-0.2-6.6-1.4-7.1c0,0-2,1.7-2.2,2.5c0,0,1.5,3.2,0.6,5c0,0-0.6-4.4-1.1-4.4c0,0-2,2.9-2.1,4.9
			c0,0,0.1-3,1.7-5.2c-1.1,0.2-2.2,0.8-3,1.5c0,0,0.3-2.1,3.4-2.2c0,0,1.6-2.2,2-2.3c0,0-3.1-0.3-5,0.6c0,0,1.7-2,5.6-1.1l2.2-1.8
			c0,0-4.1-0.6-5.9,0.1c0,0,2-1.7,6.5-0.5l2.4-1.4c0,0-3.5-0.8-5.6-0.5c0,0,2.2-1.2,6.3,0.1l1.7-0.8c0,0-2.6-0.5-3.3-0.6
			c-0.8-0.1-0.8-0.3-0.8-0.3c1.6-0.3,3.3-0.1,4.8,0.5C322,400.8,325.7,399.5,325.6,399.3z"/>
		<ellipse class="st4" cx="311.4" cy="417.5" rx="14.6" ry="2.5"/>
		<path class="st2" d="M289.4,400c0,0-11.7-0.7-10.3,7.5c-0.1,0.9,0.3,1.7,1,2.1c0,0,0-0.6,1.2-0.4c0.4,0.1,0.8,0.1,1.3,0.1
			c0.6,0,1.1-0.3,1.6-0.6l0,0c0,0,3.3-1.4,4.6-6.7c0,0,0.9-1.2,0.9-1.5l-2,0.8c0,0,0.7,1.4,0.1,2.6c0,0-0.1-2.6-0.4-2.5
			c-0.1,0-1,0.5-1,0.5s1.2,2.5,0.3,4.3c0,0,0.3-3.1-0.6-4.1l-1.4,0.8c0,0,1.4,2.6,0.4,4.6c0,0,0.2-3.2-0.7-4.4l-1.3,1
			c0,0,1.3,2.5,0.5,4.3c0,0-0.1-3.7-0.8-4c-0.5,0.4-0.9,0.9-1.3,1.4c0,0,0.9,1.8,0.3,2.8c0,0-0.3-2.5-0.6-2.5c0,0-1.1,1.6-1.2,2.8
			c0-1,0.4-2.1,0.9-2.9c-0.6,0.1-1.2,0.4-1.7,0.9c0,0,0.2-1.2,2-1.3c0,0,0.9-1.2,1.1-1.3c0,0-1.8-0.2-2.8,0.3c0,0,0.9-1.1,3.2-0.6
			l1.2-1c0,0-2.3-0.3-3.3,0c0,0,1.1-1,3.6-0.3l1.3-0.8c-1-0.2-2.1-0.3-3.2-0.3c0,0,1.2-0.7,3.6,0.1l1-0.4c0,0-1.5-0.3-1.9-0.3
			c-0.4,0-0.5-0.2-0.5-0.2c0.9-0.2,1.9,0,2.7,0.3C287.4,400.9,289.4,400.2,289.4,400z"/>
		<ellipse class="st4" cx="281.3" cy="410.3" rx="8.3" ry="1.4"/>
		<path class="st2" d="M311.6,382.7c0,0-14.1-0.9-12.4,9c-0.2,1,0.3,2.1,1.3,2.5c0,0,0-0.7,1.4-0.5c0.5,0.1,1,0.1,1.5,0.1
			c0.7,0,1.3-0.3,1.9-0.8l0,0c0,0,4-1.6,5.5-8.1c0,0,1.1-1.4,1.1-1.8l-2.4,1c0,0,0.8,1.7,0.2,3.1c0,0-0.1-3.1-0.5-3
			c-0.1,0-1.2,0.6-1.2,0.6s1.4,3,0.3,5.2c0,0,0.4-3.7-0.8-4.9l-1.7,1c0,0,1.6,3.1,0.5,5.6c0,0,0.3-3.9-0.9-5.4l-1.5,1.2
			c0,0,1.5,3,0.6,5.1c0,0-0.1-4.5-0.9-4.8c0,0-1.3,1.2-1.5,1.7c0,0,1.1,2.2,0.4,3.4c0,0-0.4-3-0.7-3c0,0-1.3,2-1.5,3.3
			c0.1-1.3,0.5-2.5,1.1-3.5c-0.8,0.1-1.5,0.5-2,1c0,0,0.2-1.4,2.3-1.5c0,0,1.1-1.5,1.4-1.6c0,0-2.1-0.2-3.4,0.4c0,0,1.1-1.3,3.8-0.7
			l1.5-1.2c0,0-2.8-0.4-4,0c0,0,1.4-1.2,4.4-0.3l1.6-1c0,0-2.4-0.5-3.8-0.3c0,0,1.5-0.8,4.3,0.1l1.2-0.5c0,0-1.8-0.3-2.3-0.4
			c-0.5-0.1-0.5-0.2-0.5-0.2c1.1-0.2,2.3-0.1,3.3,0.4C309.1,383.7,311.6,382.8,311.6,382.7z"/>
		<ellipse class="st4" cx="301.9" cy="395.1" rx="10" ry="1.7"/>
	</g>
	<g id="_x31_cf578eb-5ffb-4cd7-95b8-45aaaddab7e0">
		
			<linearGradient id="SVGID_1_" gradientUnits="userSpaceOnUse" x1="341.4388" y1="107.4469" x2="341.4388" y2="350.6169" gradientTransform="matrix(1 0 0 -1 -41.9 397.4432)">
			<stop  offset="0" style="stop-color:#808181;stop-opacity:0.25"/>
			<stop  offset="0.54" style="stop-color:#808181;stop-opacity:0.12"/>
			<stop  offset="1" style="stop-color:#808181;stop-opacity:0.1"/>
		</linearGradient>
		<path class="st5" d="M532.3,286.5V46.8H66.8v225.9c5.9,5,13.1,9.1,20.5,12.6c3.7,1.7,7.4,3.2,11.3,4.7h428.1L532.3,286.5z"/>
		<path class="st6" d="M531.4,286.6V53.7H67.8v219.6c5.9,4.8,13,8.9,20.4,12.3c3.7,1.6,7.4,3.1,11.2,4.5h426.3L531.4,286.6z"/>
		<rect x="67.8" y="47.5" class="st7" width="463.5" height="12.3"/>
	</g>
	<g id="_x36_703b009-63cb-4af0-a0d7-9948e224c180">
		<ellipse class="st6" cx="77.1" cy="53.7" rx="3.2" ry="3.2"/>
		<ellipse class="st6" cx="85.7" cy="53.7" rx="3.2" ry="3.2"/>
		<ellipse class="st6" cx="94.2" cy="53.7" rx="3.2" ry="3.2"/>
	</g>
	<g id="_x38_c4e1fb4-b9ff-4530-b767-610e84618ea6">
		<rect x="186.3" y="86.9" class="st2" width="76.6" height="48.2"/>
		<rect x="80.3" y="86.9" class="st8" width="76.6" height="48.2"/>
		<rect x="292.3" y="86.9" class="st8" width="76.6" height="48.2"/>
		<rect x="80.3" y="155.8" class="st8" width="76.6" height="48.2"/>
		<rect x="186.3" y="155.8" class="st8" width="76.6" height="48.2"/>
		<rect x="292.3" y="155.8" class="st8" width="76.6" height="48.2"/>
		<rect x="80.3" y="224.7" class="st8" width="76.6" height="48.2"/>
		<rect x="186.3" y="224.7" class="st8" width="76.6" height="48.2"/>
		<rect x="292.3" y="224.7" class="st8" width="76.6" height="48.2"/>
	</g>
	<g id="_x32_796dd85-6618-42ad-b8a0-d6b4cc80ab2d">
		
			<linearGradient id="SVGID_2_" gradientUnits="userSpaceOnUse" x1="254.0126" y1="-14.3145" x2="254.0126" y2="298.5088" gradientTransform="matrix(1 0 0 -1 -41.9 397.4432)">
			<stop  offset="0" style="stop-color:#808181;stop-opacity:0.25"/>
			<stop  offset="0.54" style="stop-color:#808181;stop-opacity:0.12"/>
			<stop  offset="1" style="stop-color:#808181;stop-opacity:0.1"/>
		</linearGradient>
		<path class="st9" d="M249.2,207.7c0,0-13.8-25.2-11.4-29.3c2.3-4.1,4-10,4-10s5.1-3.5,5.1-4.9c0-1.4,4-4.7,6.1-6.1
			c2.1-1.4,1.1-8.2,0-9s-2.7-3.7-2.7-3.7s1.5-4.1,0-5.3s0.2-2.5,0-3.7c-0.2-1.2,0-5.7,0-5.7c-1.7-2.4-3.6-3.5-5.4-3.9l-0.2-0.6
			l-0.9-3.8c0,0,4.4-8.5-2.7-12.9c-0.5-0.3-1-0.6-1.6-0.8c0,0,0-0.2,0-0.6c-0.1-1.3-0.4-4.4-1-6.5c-0.4-1.2-0.9-2-1.5-1.8
			c-0.2,0-0.3,0.1-0.4,0.2c-0.3,0.3-0.5,0.6-0.8,0.9l0,0c0,0,0,0,0,0.1l0,0c-0.8,1.5-1.4,3-1.7,4.7c-0.2,1-0.4,2-0.5,2.9l0,0
			c-0.3,0.6-0.6,1.2-0.8,1.8c-0.9,2.2-1.9,6.1,0,9c1.6,2.5,3.7,5.8,5.2,8.3l0,0.1l0.1,0.2l-0.2,0.1v0.4l0.1,2.1l1.2,17.8
			c-0.4-0.1-0.7-0.2-1.1-0.2c-0.5-0.1-1.1-0.1-1.6-0.1c-1-4.1-3.9-7.8-4.4-12.1c-0.1-0.4-0.1-0.9-0.1-1.3c0-2.7,0.7-5.4,0.7-8
			c0-0.5,0-1,0-1.5l0,0c0-0.1,0-0.3,0-0.4c-0.5-3.9-3-7.4-6.5-9.1c-1.2-0.6-2.6-1-3.8-1.7c-2.8-1.5-4.5-4.3-7-6.3
			c-1.9-1.4-4.6-2.2-6.7-1.5c-1.1,0.2-2.2,0.4-3.3,0.7l0,0c-2.6,0.7-5.1,1.7-7.5,3.1c-0.3,0.2-0.6,0.4-0.9,0.6
			c-0.7,0.4-1.2,1-1.5,1.8c-0.2,0.6-0.3,1.3-0.2,1.9c0,0.5,0,0.9,0,1.4c-0.1,7.8-8.6,13.9-9.3,21.6c0,0.2,0,0.4,0,0.5
			c0,0.1,0,0.1,0,0.2c0,0.2,0,0.4,0,0.7l0,0c0,0.1,0,0.2,0,0.3s0,0.2,0,0.3c0.1,3.4,1.9,6.5,2.2,9.8c0,0.3,0,0.6,0,0.9
			c-0.1,1.5-0.3,3.1-0.9,4.5c-1.1,0.3-2.1,0.7-3,1.2c-2.6,1.7-7.2,4.5-8.9,10c-0.4,1.4-0.7,2.9-0.6,4.4c0,5.2-0.5,10.5-1.4,15.6
			c-0.2,1.3-0.5,2.6-0.9,3.8c0,0.1,0,0.3,0,0.4l-1,13.2l-0.2,2.3l-0.3,3.3c0,0,0.1,0.2,0.2,0.5c0.2,0.5,0.3,1,0.4,1.5
			c0.3,1.1,0.3,2.3,0.1,3.4c-0.1,0.5-0.4,0.9-0.7,1.3c0,0-0.1,0.1-0.1,0.1c-0.3,0.4-0.5,1.6-0.8,3.4c-0.1,0.7-0.2,1.5-0.3,2.3
			c-0.5,5.2-0.8,13-1,19.5c-0.2,6.4-0.2,11.4-0.2,11.4c0.8,0.5,1.7,1,2.6,1.3c-0.1,0.2-0.1,0.3-0.2,0.5c-0.8,2.2-1.4,4.4-1.6,6.7
			c-0.4,4.8,0.9,10.2,7.6,12.9c0.4,0.2,0.9,0.3,1.3,0.5c1.5,0.4,2.5,0.3,3.3-0.2c0,0.3,0,0.6,0,0.8c0.1,1.2,0.1,2.3,0.2,3.2
			c0.2,5.7,1.6,15.8,1.6,15.8s0.5,4.1,0.1,5.3s0,6.1,0,6.1s1.5,2.5,0,3.7c-1.5,1.2-1.9,7.4-1.5,8.2c0,0,0,0.1,0,0.1
			c0.3,2-1.5,32.2-1.5,32.2s-1.7,4.6-3.1,9.4c-1.3,4.7-2.3,9.5-1.1,10.4c0.6,0.5,2,0.8,3.9,1c0,0.2,0,0.4,0,0.6
			c-0.2,2.2-0.5,4.5-0.9,5.1c-0.6,0.8-1.2,7.3-1.5,10.8l0,0.4c-0.6,1.5-1.2,3-1.6,4.6c0,0-4.7,11.8-3.1,14.8
			c0.1,0.3,0.3,0.5,0.6,0.7l0,0c0,0,0.1,0.1,0.2,0.1c2.3,1.8,7.9,2.2,10,2.3l-0.1,2.9v0.1h2.7v-0.1c0-0.4,0.1-2.1,0.1-4.3
			c0-0.4,0-0.8,0-1.3c0-0.3,0-0.7,0-1c0.8-2.1,1.2-4.3,1.2-6.5c0-2.6,0.3-5.1,1-7.6c0.3-1.3,0.8-2.5,1.4-3.7c0,0,0.8-4.4-0.3-7.5
			c-0.2-0.6-0.6-1.2-1-1.7c0-0.1,0-0.2,0-0.3s0-0.2,0-0.4c0-0.1,0-0.2,0-0.3c0-2.1,0.2-4.2,0.6-6.3c0,0,0-0.1,0-0.1
			c0-0.2,0.1-0.3,0.1-0.5l0-0.1l0.9,0c2.7,0.1,4.6,0.1,4.6,0.1s2.1-10.8,1.9-15.6c0-0.2,0-0.4,0-0.6c-0.1-4.7,1.3-11,1.3-11
			l1.7-16.6c0,0-0.8-2.9,0-4.9c0.5-1.3,1.6-3.6,2.4-5.2c0.4-0.7,0.6-1.3,0.7-1.6l0.1-0.1c-0.3-0.1-0.5-0.2-0.8-0.4l0,0
			c-0.7-0.5-1.3-1.4,0.8-2.7c3.2-2,2.1-7.2,2.1-7.2s-0.9-1.8,0.2-3.5c1.1-1.6,0-7.8,0-7.8c0.9-1.6,1.6-3.3,2.2-5.1
			c0.8-2.5,2.8-14.4,3.7-20.2c0.3-1.9,0.5-3.1,0.5-3.1l0,0.3l0,0.3l0,0l0.3,2.7l0,0.4l0.5,5.2c0,0,1,13.6,0.4,18.9c0,0,0,0.1,0,0.1
			c0,0.6-0.2,1.1-0.4,1.6c-1.1,2.5-0.9,12.7-0.9,14.9c0,0.2,0,0.3,0,0.5c0,0.1-0.8,2-0.6,3.5l0,0c0,0.4,0.2,0.7,0.4,1
			c0.3,0.5,0.4,1,0.4,1.6v0c0,0.2,0,0.5-0.1,0.7c-0.1,0.9-0.4,1.9-0.7,2.8c0,0-1.1,3-0.7,4.6l0,0c0.1,0.2,0.1,0.4,0.3,0.6
			c0.1,0.2,0.2,0.4,0.2,0.6c0,0,0,0,0,0.1c0.4,3.3-0.6,17.9-1.2,25.8c-0.2,3.1-0.4,5.3-0.4,5.3l-1.7,17.4l0.2,0.1
			c0.2,0.1,0.5,0.4,1,0.7c0,0,0,0,0,0l-0.1,0.5c-0.2,1.7-0.6,3.6-0.9,5.1c0,0.1-0.1,0.2-0.1,0.3c-0.6,0.1-1.3,0.4-1.8,0.7
			c-3.6,6.3-2,11.4,0,12.8c0.6,0.4,0.9,1.6,1.2,3l0.5,6.3c0,0.3,0,0.5,0,0.7c0,0.2,0,0.4,0.1,0.6l0.2,1.9l0.2,2.7h1.6v-3.2h0.1
			c2.6,0.1,6.7,0.2,8.5,0.1h0c0.2,0,0.4,0,0.5-0.1c0.1,0,0.2,0,0.3-0.1c1-0.5,3.3-7.2,1.2-8.7c-2.1-1.5-2.6-5.9-2.6-5.9
			c-0.2-0.6-0.4-1.1-0.6-1.6c0-0.1,0-0.2,0-0.3c-0.1-2.1,0-4.4,0.3-5.6c0.3-1.4,0.5-4.2,0.6-6.7c0-0.2,0-0.4,0-0.6v-0.1
			c0.4-0.1,0.7-0.2,1.1-0.4l0.1,0c0.7-0.3,1.3-0.6,1.8-1.1l6-26.6l0.6-3.1l3.6-17.6c0,0-1.3-6.1,0-7.2c0.5-0.4,0.6-2,0.6-3.8
			c0-3.2-0.6-7.3-0.6-7.3s1.7-2.7,2.5-4.3c0.9-1.6,0-5.9,0-5.9l1.7-9.8c0,0,1.9-11.7,6.6-21.5c3.4-7.2,1.2-26.7-1-37.1
			c-0.1-0.3-0.1-0.5-0.2-0.8v0c1-0.5,2.3-1.1,3.7-1.8l0.5-0.2c1.7-0.8,3.6-1.7,5.2-2.4l0.1,0c1.2-0.5,2.4-1,3.6-1.4
			c0.4-0.1,0.7-0.2,1.1-0.2C258.1,223.2,249.2,207.7,249.2,207.7z M183,240.9h0.9c-0.1,0.2-0.2,0.4-0.3,0.6
			c-0.1,0.1-0.1,0.2-0.2,0.3c-0.3,0.7-0.6,1.4-0.9,2c0.1-0.7,0.2-1.5,0.4-2.4C182.9,241.4,182.9,241.1,183,240.9z M180.6,253.7
			C180.6,253.7,180.6,253.7,180.6,253.7l-0.1-0.3c-0.1-0.2-0.1-0.3-0.2-0.5c0.3-0.1,0.6-0.2,0.9-0.3h0.1c0,0.1,0,0.1,0,0.2
			c0,0.2-0.1,0.5-0.1,0.7l0,0c0,0,0,0.1,0,0.1c0,0.2,0,0.4-0.1,0.5c0,0.4-0.1,0.7-0.1,1c-0.1-0.3-0.2-0.6-0.3-0.9
			C180.7,254.1,180.6,253.9,180.6,253.7L180.6,253.7z"/>
		<path class="st10" d="M244.1,129.1l-5.3,1.9l-1.9-3.2c-1.5-2.5-3.5-5.8-5-8.2c-2.7-4.3,0.8-10.8,0.8-10.8s0.6-6.6,2.9-8.6
			c2.2-2,2.9,8.6,2.9,8.6c9,4.1,4.2,13.7,4.2,13.7l0.9,3.8L244.1,129.1z"/>
		<path class="st11" d="M244.1,129.1l-5.3,1.9l-1.9-3.2v-0.3c0,0,3-2.1,6.6-1.3L244.1,129.1z"/>
		<path class="st12" d="M235.6,150.6l2.6-2.2l-1.3-20.2c0,0,6.8-4.7,11.9,2.7c0,0-0.2,4.5,0,5.7c0.2,1.2-1.4,2.5,0,3.7
			c1.4,1.2,0,5.3,0,5.3s1.6,2.9,2.6,3.7s2,7.6,0,9c-2,1.4-5.9,4.7-5.9,6.1s-4.9,4.9-4.9,4.9l-4.3-5.7L235.6,150.6z"/>
		<path class="st10" d="M178.3,273.2c-9.9-4.2-7.7-14.4-5.8-19.6c0.4-1,0.8-2.1,1.3-3.1l5.5-3.4c0,0,1.1,2.9,2.3,6.8
			C184.5,262.9,187.7,277.2,178.3,273.2z"/>
		<path class="st10" d="M191.9,366.7c-0.7,1.3-1.2,2.7-1.5,4.1c-0.5,2.3-0.7,4.7-0.6,7c0,1.6,0.2,2.7,0.2,2.7l-11,7.6
			c0,0,0.1-0.9,0.2-2.2c0.3-3.5,0.9-9.9,1.4-10.7c0.4-0.6,0.7-2.9,0.8-5.1c0.2-2.2,0.2-4,0.2-4S194.9,361.1,191.9,366.7z"/>
		<path class="st10" d="M217.9,372.1c0,0,0,2.1-0.1,4.6c-0.1,2.5-0.2,5.3-0.5,6.7c-0.3,1.2-0.3,3.5-0.2,5.6c0.1,2.5,0.2,4.7,0.2,4.7
			S206,383,207.2,382.1c0.3-0.2,0.6-1.1,0.9-2.3c0.3-1.5,0.7-3.4,0.9-5.1c0.3-2,0.4-3.6,0.4-3.6L217.9,372.1z"/>
		<path class="st11" d="M191.9,366.7c-0.7,1.3-1.2,2.7-1.5,4.1c-3-0.1-6-0.3-9-0.7c0.2-2.1,0.2-4,0.2-4S194.9,361.1,191.9,366.7z"/>
		<path class="st11" d="M217.9,372.1c0,0,0,2.1-0.1,4.6c-3.5,0.9-7.1-0.9-8.8-2c0.3-2,0.4-3.6,0.4-3.6L217.9,372.1z"/>
		<path class="st13" d="M240.9,267.9c-4.5,9.8-6.3,21.4-6.3,21.4l-1.6,9.8c0,0,0.8,4.3,0,5.9c-0.8,1.6-2.4,4.3-2.4,4.3s1.2,10,0,11
			c-1.2,1,0,7.1,0,7.1l-4.1,20.6l-5.7,26.5c-5.5,4.5-12.8-1.2-12.8-1.2l1.6-17.3c0,0,2.4-30.4,1.4-31.6c-1-1.2,0.4-5.1,0.4-5.1
			s1.4-3.7,0.4-5.1c-1-1.4,0.2-4.5,0.2-4.5s-0.4-12.4,0.8-15.3c1.2-2.9,0-20.5,0-20.5l-0.5-5.5l-0.3-3l0-0.3c0,0-0.2,1.2-0.5,3.1
			c-0.9,5.8-2.8,17.7-3.6,20.1c-0.5,1.8-1.2,3.5-2.1,5.1c0,0,1.1,6.1,0,7.8c-1.1,1.6-0.2,3.5-0.2,3.5s1,5.1-2,7.1s0,3.1,0,3.1
			s-2.2,4.9-3.1,6.9c-0.8,2,0,4.9,0,4.9l-1.6,16.5c0,0-1.4,6.9-1.2,11.6c0.2,4.7-1.8,15.5-1.8,15.5s-15.7,0-18.1-1.8s4-19.8,4-19.8
			s1.8-31.4,1.4-32.2c-0.4-0.8,0-6.9,1.4-8.2c1.4-1.2,0-3.7,0-3.7s-0.4-4.9,0-6.1c0.4-1.2-0.1-5.3-0.1-5.3s-1.4-10-1.6-15.7
			c-0.2-5.7-1.2-18.6-1.2-18.6s1.1-7.9,1.2-11.7c0.1-1.4,0.7-3.1,1.5-4.8c0.9-1.8,1.9-3.6,3-5.3c0,0,48.3-14.3,50.3-12.9
			c0.5,0.4,1.3,2.9,2.1,6.6C242.1,241.2,244.2,260.7,240.9,267.9z"/>
		<ellipse class="st14" cx="211.1" cy="129.1" rx="14.1" ry="14.1"/>
		<path class="st11" d="M239.9,230.9c-1.6,0.8-2.7,1.4-2.7,1.4s-22.8,10.8-29.3,10.2c-5-0.5-17.8-0.2-23.4-0.1
			c0.9-1.8,1.9-3.6,3-5.3c0,0,48.3-14.3,50.3-12.9C238.3,224.6,239.1,227.2,239.9,230.9z"/>
		<path class="st12" d="M201.3,151.6c0,0-13,2.1-16.1,4.1c-3.1,2-9.2,5.9-9.2,14.3s-1.4,16.9-2.2,19.4c-0.8,2.4,12.8,22.2,12.8,22.2
			l-4.9,30c0,0,19.6-0.6,26.1,0c6.5,0.6,29.3-10.2,29.3-10.2s13.4-7.1,16.3-7.4c2.9-0.2-5.7-15.7-5.7-15.7s-13.2-25.1-11-29.2
			c2.2-4.1,3.9-10,3.9-10l-2.4-20.8c0,0-3.7-1.2-6.7,1c-3.1,2.2-13.4,1-13.4,1L201.3,151.6z"/>
		<path class="st11" d="M179.2,187.9l-5.1,1.4l-1.4,19.2c0,0,1.8,5.1,0,6.7s-2.2,36.5-2.2,36.5s5.9,4.3,12.8,1c0,0-1-3.9,2-18
			c3.1-14.1,3.1-21.2,3.1-21.2s0-17.5,1.4-20.4s0-10,0-10s-2.9-3.9-2.7-5.3C187.4,176.5,179.2,187.9,179.2,187.9z"/>
		<path class="st11" d="M181.7,253.9c-3,1-6.3,0.9-9.2-0.3c0.4-1,0.8-2.1,1.3-3.1l5.5-3.4C179.3,247.2,180.5,250.1,181.7,253.9z"/>
		<path class="st12" d="M178.9,187.9l-5.1,1.4l-1.4,19.2c0,0,1.8,5.1,0,6.7s-2.2,36.5-2.2,36.5s5.9,4.3,12.8,1c0,0-1-3.9,2-18
			c3.1-14.1,3.1-21.2,3.1-21.2s0-17.5,1.4-20.4c1.4-2.9,0-10,0-10s-2.9-3.9-2.6-5.3C187.1,176.5,178.9,187.9,178.9,187.9z"/>
		<path class="st11" d="M231.1,191c0,0-2.6,22.8-10.4,27.1C220.7,218.1,238,213.2,231.1,191z"/>
		<path class="st11" d="M192.2,193c0,0,9.6,4.7,7.3,8C197.3,204.2,192.2,193,192.2,193z"/>
		<path class="st11" d="M192.2,202.4c0,0,6.1,6.3,4.9,8.6S192.2,202.4,192.2,202.4z"/>
		<path class="st11" d="M241.5,150c0,0,2.4,4.1,2.6,6.7C244.3,159.4,241.5,150,241.5,150z"/>
		<path class="st11" d="M241.5,144.5c0,0,1.2-1,4.3,0C248.8,145.5,241.5,144.5,241.5,144.5z"/>
		<path class="st11" d="M229.7,263.7c-5,0.7-10.2,0.1-14.9-1.9l-2.6,6.6l-0.3-3c0.4-2.6,1.2-5.3,2.9-6
			C214.8,259.3,220.5,263.9,229.7,263.7z"/>
		<path class="st11" d="M187.9,272.3c0,0,12.5,2.6,16,2.1L187.9,272.3z"/>
		<path class="st11" d="M189.2,275.6c0,0,5.3-0.2,8,0.8L189.2,275.6z"/>
		<path class="st11" d="M189.8,277.8c2.4,0.5,4.9,0.8,7.4,1L189.8,277.8z"/>
		<path class="st11" d="M189.5,305.9c0.2-0.2,10.7-2.6,12-0.8L189.5,305.9z"/>
		<path class="st11" d="M189.5,309.1c0,0,9.1-1.1,9.3,0C199.1,310.1,189.5,309.1,189.5,309.1z"/>
		<path class="st11" d="M189.5,312c0,0,9.7-2,10.8-1.5C201.5,310.9,189.5,312,189.5,312z"/>
		<path class="st11" d="M190,380.5l-11,7.6c0,0,0.1-0.9,0.2-2.2c2.4-6,5.6-9.2,5.6-9.2c2.5-0.6,4,0,5,1.1
			C189.9,379.5,190,380.5,190,380.5z"/>
		<path class="st13" d="M191.1,387.3c-1.6,3.6-2.3,7.4-2.3,11.3c0.1,3.2-0.7,6.3-2.3,9.1c-0.2,0.4-0.5,0.8-0.8,1.1
			c0,0-7.6-0.1-10.3-2.3c-0.3-0.2-0.5-0.5-0.7-0.9c-1.5-3.1,3-14.8,3-14.8c2.4-9,7.2-13.8,7.2-13.8
			C193.3,374.8,191.1,387.3,191.1,387.3z"/>
		<path class="st11" d="M186.4,407.7c-0.2,0.4-0.5,0.8-0.8,1.1c0,0-7.6-0.1-10.3-2.3c1.3-4.4,5.5-17.6,7.5-15.3
			C184.7,393.3,186,403.4,186.4,407.7z"/>
		<path class="st13" d="M185.4,392l-0.5,19.8h2.6c0,0,0.4-17.3,1.6-19.8S185.4,392,185.4,392z"/>
		<path class="st11" d="M217.3,393.6c0,0-11.2-10.6-10.1-11.5c0.3-0.2,0.6-1.1,0.9-2.3c2.2-0.4,5.9,0.5,8.9,9.2
			C217.1,391.4,217.3,393.6,217.3,393.6z"/>
		<path class="st13" d="M218.9,405.5c-0.1,0-0.2,0.1-0.3,0.1c-1.3,0.2-6.2,0.1-8.9,0c-1,0-1.9-0.9-1.9-1.9c0-0.7,0-1.6-0.1-2.6
			c-0.1-3-0.5-6.6-1.6-7.4c-1.9-1.5-3.4-6.5,0-12.8c0,0,6.6-5,11.3,10.1c0,0,0.5,4.3,2.5,5.8C222.1,398.3,219.9,405,218.9,405.5z"/>
		<path class="st11" d="M218.7,405.5c-1.3,0.2-6.2,0.1-8.9,0c-1,0-1.9-0.9-1.9-1.9c0-0.7,0-1.6-0.1-2.6c0.8-3.7,2-7.4,3.5-8.3
			C211.4,392.8,216,392.2,218.7,405.5z"/>
		<polygon class="st13" points="207.1,392.3 208.3,408.8 209.9,408.8 209.9,390.9 		"/>
		<path class="st11" d="M210.9,106.7c-4.4,0.3-8.7,1.7-12.5,4c-1,0.6-2,1.3-2.4,2.4c-0.4,0.9-0.2,2-0.2,2.9c0.1,8.4-9.3,14.8-9,23.3
			c0.1,3.3,1.8,6.5,2.1,9.8c0.5,5.6-2.8,10.7-5.9,15.3c3.2,0.2,6.4-0.9,8.9-3c3.3,11.1,3.8,22.9,1.2,34.2h4.5c0.4,0,0.9,0,1.3,0.2
			c0.4,0.2,0.7,0.5,1,0.8c4.2,4.2,7,10.4,5.4,16.1l9.6-3.6c2.3-0.9,4.6-1.7,6.6-3.2s3.7-3.5,4.1-5.9c0.3-1.5,0.2-3.2,1.4-4.1
			c0.6-0.3,1.2-0.6,1.9-0.7c2.6-0.9,3.8-4,4.3-6.7c0.7-3.4,0.9-6.8,0.6-10.2c-0.4-5.7-2.1-11.6-0.7-17.2c0.8-3.1,2.5-6.1,2.7-9.3
			c0.2-5.3-3.9-10-4.6-15.3c-0.4-3.7,0.9-7.5,0.5-11.2c-0.5-3.9-2.8-7.3-6.3-9.1c-1.2-0.6-2.4-1-3.6-1.7c-2.7-1.5-4.4-4.3-6.8-6.2
			c-2.4-1.9-6.4-2.6-8.2-0.1L210.9,106.7z"/>
		<path class="st15" d="M210.9,106.1c-4.4,0.3-8.7,1.7-12.5,4c-1,0.6-2,1.3-2.4,2.4c-0.4,0.9-0.2,2-0.2,2.9c0.1,8.4-9.3,14.8-9,23.3
			c0.1,3.3,1.8,6.5,2.1,9.8c0.5,5.6-2.8,10.7-5.9,15.3c3.2,0.2,6.4-0.9,8.9-3c3.3,11.1,3.8,22.9,1.2,34.2h4.5c0.4,0,0.9,0,1.3,0.2
			c0.4,0.2,0.8,0.4,1,0.8c4.2,4.2,7,10.4,5.4,16.1l9.6-3.6c2.3-0.9,4.6-1.7,6.6-3.2c2-1.4,3.7-3.5,4.1-5.9c0.3-1.5,0.2-3.2,1.4-4.1
			c0.6-0.3,1.2-0.6,1.9-0.7c2.6-0.9,3.8-4,4.3-6.7c0.7-3.4,0.9-6.8,0.6-10.2c-0.4-5.7-2.1-11.6-0.7-17.2c0.8-3.1,2.5-6.1,2.7-9.3
			c0.2-5.3-3.9-10-4.6-15.3c-0.4-3.7,0.9-7.4,0.5-11.2c-0.5-3.9-2.8-7.3-6.3-9.1c-1.2-0.6-2.4-1-3.6-1.7c-2.7-1.5-4.4-4.3-6.8-6.2
			s-6.4-2.6-8.2-0.1L210.9,106.1z"/>
		<g class="st16">
			<path class="st17" d="M195.8,113.4c0,0.2,0,0.4,0,0.6C195.8,113.8,195.8,113.6,195.8,113.4z"/>
			<path class="st17" d="M231.4,133c0.2-2.6,0.8-5.2,0.5-7.8C231.8,127.8,231.2,130.4,231.4,133z"/>
			<path class="st17" d="M189,145.9c-0.3-3-1.7-5.9-2-8.9c-0.1,0.6-0.1,1.1-0.1,1.7c0.1,3.3,1.8,6.4,2.1,9.7
				C189,147.5,189,146.7,189,145.9z"/>
			<path class="st17" d="M233.3,158c-0.5,2-0.6,4-0.5,6.1c0-1.2,0.2-2.4,0.5-3.5c0.8-3.1,2.5-6.1,2.7-9.3c0-0.6,0-1.2-0.1-1.7
				C235.6,152.4,234,155.1,233.3,158z"/>
			<path class="st17" d="M192,158.2c-2,1.7-4.6,2.7-7.2,2.9c-0.6,0.9-1.1,1.7-1.7,2.6c3.2,0.2,6.4-0.9,8.9-3
				c1.8,6,2.7,12.1,2.8,18.4C195,172.1,194,165,192,158.2z"/>
			<path class="st17" d="M233.4,185.3c-0.5,2.7-1.7,5.8-4.3,6.7c-0.7,0.1-1.3,0.4-1.9,0.7c-1.2,0.9-1.1,2.6-1.4,4.1
				c-0.4,2.4-2.1,4.5-4.1,5.9c-2,1.4-4.3,2.3-6.6,3.2l-9.1,3.4c0,0.9-0.2,1.8-0.4,2.7l9.6-3.6c2.3-0.9,4.6-1.7,6.6-3.2
				s3.7-3.5,4.1-5.9c0.3-1.5,0.2-3.2,1.4-4.1c0.6-0.3,1.2-0.6,1.9-0.7c2.6-0.9,3.8-4,4.3-6.7c0.6-2.9,0.8-5.8,0.7-8.7
				C234.1,181.3,233.8,183.3,233.4,185.3z"/>
			<path class="st17" d="M200.1,193.3c-0.3-0.3-0.6-0.6-1-0.8c-0.4-0.1-0.9-0.2-1.3-0.2h-4c-0.2,0.9-0.3,1.7-0.5,2.6h4.5
				c0.4,0,0.9,0,1.3,0.2c0.4,0.2,0.8,0.4,1,0.8c3.1,3.1,5.4,7.2,5.8,11.5C206.4,202.3,203.8,197,200.1,193.3z"/>
		</g>
		<path class="st11" d="M177.7,210c0,0,3.6-1.5,4.5,0C183,211.6,177.7,210,177.7,210z"/>
		<path class="st11" d="M179,212.7c0,0,3.6-1.5,4.5,0C184.3,214.2,179,212.7,179,212.7z"/>
	</g>
	<g id="_x35_f43f84a-a268-4bb5-a31a-6b0c09aee323">
		<path class="st4" d="M404.6,14.8c0,0-18.6-1.1-16.4,11.9c0,0-0.4,2.3,1.7,3.4c0,0,0-1,1.9-0.6c0.7,0.1,1.3,0.1,2,0.1
			c0.9-0.1,1.8-0.4,2.5-1l0,0c0,0,5.2-2.2,7.3-10.7c0,0,1.5-1.9,1.5-2.4l-3.1,1.3c0,0,1.1,2.3,0.2,4.2c0,0-0.1-4.1-0.7-4
			c-0.1,0-1.6,0.8-1.6,0.8s1.8,4,0.5,6.8c0,0,0.5-4.9-1-6.5l-2.2,1.3c0,0,2.2,4.1,0.7,7.4c0,0,0.4-5.1-1.2-7.1l-2,1.6
			c0,0,2,4,0.8,6.8c0,0-0.2-6-1.2-6.4c0,0-1.8,1.5-2,2.2c0,0,1.4,2.9,0.5,4.5c0,0-0.5-4-1-4c0,0-1.7,2.6-1.9,4.4
			c0.1-1.7,0.6-3.3,1.5-4.7c-1,0.2-1.9,0.7-2.7,1.4c0,0,0.3-1.9,3.1-2c0,0,1.4-2,1.8-2.1c0,0-2.8-0.2-4.5,0.5c0,0,1.5-1.8,5-1l2-1.6
			c0,0-3.7-0.5-5.3,0.1c0,0,1.8-1.5,5.8-0.4l2.2-1.3c0,0-3.2-0.7-5-0.4c0,0,2-1.1,5.7,0.1l1.5-0.7c0,0-2.3-0.5-3-0.5
			c-0.7-0.1-0.7-0.3-0.7-0.3c1.5-0.2,3-0.1,4.3,0.5C401.4,16.2,404.7,15,404.6,14.8z"/>
		<path class="st4" d="M378.1,4.2c0,0-15.7,10.1-6.2,19.4c0,0,1,2.1,3.3,1.7c0,0-0.5-0.8,1.2-1.7c0.6-0.3,1.2-0.7,1.7-1.1
			c0.7-0.6,1.2-1.4,1.4-2.3l0,0c0,0,2.9-4.9-0.5-13c0,0,0.1-2.4-0.2-2.8L377,7.5c0,0,2.2,1.2,2.6,3.2c0,0-2.5-3.2-2.9-2.8
			c-0.1,0.1-0.9,1.6-0.9,1.6s3.8,2.1,4.4,5.2c0,0-2.4-4.2-4.7-4.7l-1,2.4c0,0,4.2,2,5,5.6c0,0-2.7-4.3-5.1-5l-0.7,2.5c0,0,4,2,4.7,5
			c0,0-3.6-4.7-4.8-4.4c0,0-0.5,2.3-0.3,2.9c0,0,2.8,1.5,3.1,3.3c0,0-2.8-2.9-3.1-2.6c0,0,0.1,3.2,1.1,4.7c-0.9-1.4-1.5-3-1.6-4.7
			c-0.7,0.8-1.2,1.7-1.3,2.7c0,0-0.9-1.7,1.3-3.5c0,0,0-2.5,0.2-2.8c0,0-2.4,1.5-3.3,3.1c0,0,0.2-2.3,3.5-3.8l0.6-2.5
			c0,0-3.3,1.8-4.2,3.2c0,0,0.5-2.3,4.4-3.8l1-2.3c0,0-2.9,1.3-4.3,2.6c0,0,1-2,4.6-3.3l0.8-1.5c0,0-2.1,1-2.7,1.4
			c-0.6,0.3-0.7,0.2-0.7,0.2c1-1.1,2.3-1.8,3.8-2.2C376.3,7.3,378.3,4.4,378.1,4.2z"/>
		<path class="st4" d="M354.3,16c0,0-9.4,16.2,3.3,20.1c0,0,1.9,1.4,3.7,0c0,0-0.8-0.5,0.3-2c0.4-0.5,0.7-1.1,1-1.8
			c0.4-0.8,0.4-1.8,0.2-2.7l0,0c0,0,0.4-5.7-6.3-11.3c0,0-1-2.2-1.5-2.3l-0.2,3.4c0,0,2.5,0.1,3.8,1.7c0,0-3.7-1.7-3.9-1.2
			c0,0.1,0,1.8,0,1.8s4.4,0.1,6.4,2.7c0,0-4.1-2.7-6.3-2l0.2,2.6c0,0,4.6-0.1,6.9,2.7c0,0-4.4-2.6-6.8-2.2l0.5,2.5
			c0,0,4.5,0,6.4,2.3c0,0-5.4-2.5-6.3-1.8c0,0,0.6,2.3,1,2.8c0,0,3.2,0.1,4.2,1.5c0,0-3.8-1.3-4-0.9c0,0,1.6,2.7,3.1,3.7
			c-1.4-0.8-2.6-2-3.5-3.4c-0.3,1-0.3,2,0,3c0,0-1.5-1.1-0.4-3.7c0,0-1.1-2.2-1.1-2.6c0,0-1.5,2.4-1.6,4.3c0,0-0.9-2.1,1.4-4.9
			l-0.6-2.5c0,0-2.1,3.1-2.3,4.8c0,0-0.6-2.3,2.2-5.4l-0.2-2.5c0,0-2,2.5-2.7,4.3c0,0-0.1-2.3,2.6-5l0.1-1.7c0,0-1.5,1.9-1.8,2.5
			c-0.3,0.6-0.6,0.5-0.6,0.5c0.4-1.4,1.3-2.7,2.4-3.7C354.1,19.6,354.5,16.1,354.3,16z"/>
	</g>
	<path class="st2" d="M434.6,200.4c-3.9,0-7,3.1-7,7s3.1,7,7,7s7-3.1,7-7l0,0C441.6,203.5,438.5,200.4,434.6,200.4z M414.1,145.4v7
		h7l12.6,25.6l-5.3,8.6c-0.6,1-0.9,2.2-0.9,3.3c0,4.7,3.2,7,7.5,7h40.9v-6.7H436c-0.5,0-0.8-0.3-0.9-0.8c0,0,0-0.1,0-0.1
		c0.1-0.3,0.2-0.6,0.4-0.9l3.5-5.5h26.1c2.6,0,4.9-1.4,6.1-3.7l12.6-21.7c0.2-0.6,0.4-1.2,0.4-1.8c0-1.9-1.5-3.4-3.4-3.3
		c0,0-0.1,0-0.1,0h-51.8l-3.3-7L414.1,145.4z M469.1,200.4c-3.9,0-7,3.1-7,7c0,3.9,3.1,7,7,7c3.9,0,7-3.1,7-7
		C476.1,203.5,472.9,200.4,469.1,200.4z"/>
	<polygon class="st6" points="460.1,164.8 454.3,164.8 454.3,158.9 449.9,158.9 449.9,164.8 444,164.8 444,169.2 449.9,169.2 
		449.9,175.1 454.3,175.1 454.3,169.2 460.1,169.2 	"/>
</g>
</svg>
