<?xml version="1.0" encoding="utf-8"?>
<!-- Generator: Adobe Illustrator 24.0.1, SVG Export Plug-In . SVG Version: 6.00 Build 0)  -->
<svg version="1.1" id="Layer_1" xmlns="http://www.w3.org/2000/svg" xmlns:xlink="http://www.w3.org/1999/xlink" x="0px" y="0px"
	 viewBox="0 0 104 80" style="enable-background:new 0 0 104 80;" xml:space="preserve">
<style type="text/css">
	.st0{fill:#E6292B;}
</style>
<g>
	<path class="st0" d="M28.6,59.6H7.4c-2,0-3.6,1.6-3.6,3.6s1.6,3.6,3.6,3.6h21c2,0,3.6-1.6,3.6-3.6C32.2,61.3,30.5,59.6,28.6,59.6
		L28.6,59.6z"/>
	<path class="st0" d="M28.2,46.5c0-2-1.6-3.6-3.6-3.6h-21c-2,0-3.6,1.6-3.6,3.6c0,2,1.6,3.5,3.6,3.5h21C26.6,50,28.2,48.4,28.2,46.5
		z"/>
	<path class="st0" d="M28.6,26.1H7.4c-2,0-3.6,1.6-3.6,3.6s1.6,3.6,3.6,3.6h21c2,0,3.6-1.6,3.6-3.6S30.5,26.1,28.6,26.1L28.6,26.1z"
		/>
	<path class="st0" d="M74,12.9V7.2h5.6c2,0,3.6-1.6,3.6-3.6S81.6,0,79.6,0H61.2c-2,0-3.6,1.6-3.6,3.6s1.6,3.6,3.6,3.6h5.6v5.7
		c-16.9,1.8-30,16.1-30,33.4C36.8,64.9,51.9,80,70.4,80S104,64.9,104,46.4C104,29,90.9,14.8,74,12.9L74,12.9z M96.6,42.9h-4.4
		c-2,0-3.6,1.6-3.6,3.6c0,2,1.6,3.6,3.6,3.6h4.4c-0.7,4.6-2.4,8.9-5.1,12.5l-3.2-3.2c-1.4-1.4-3.7-1.4-5,0c-1.3,1.4-1.4,3.7,0,5
		l3.2,3.2c-3.6,2.7-7.8,4.5-12.5,5.1v-4.5c0-2-1.6-3.6-3.6-3.6c-2,0-3.6,1.6-3.6,3.6v4.4c-4.6-0.7-8.9-2.5-12.4-5.3l3.1-3.1
		c1.4-1.4,1.4-3.7,0-5c-1.4-1.4-3.7-1.4-5,0l-3.1,3.1c-2.6-3.5-4.5-7.8-5-12.4h4.3c2,0,3.6-1.6,3.6-3.6c0-2-1.6-3.6-3.6-3.6h-4.3
		c0.7-4.6,2.5-8.8,5.1-12.3l3.1,3.1c0.7,0.7,1.6,1.1,2.5,1.1c0.9,0,1.9-0.3,2.5-1.1c1.4-1.4,1.4-3.7,0-5l-3-3
		c3.5-2.6,7.8-4.5,12.4-5.1v4.3c0,2,1.6,3.6,3.6,3.6s3.6-1.6,3.6-3.6v-4.3C85.7,21.8,94.9,31.1,96.6,42.9L96.6,42.9z"/>
	<path class="st0" d="M70.7,39.3c-2-0.1-3.9,0.5-5.5,2.1c-2.7,2.7-2.7,7.2,0,10.1c2.7,2.7,7.2,2.7,10.1,0c1.5-1.5,2.2-3.5,2.1-5.5
		l8.1-11.2c1.6-2.3-1.2-5.1-3.5-3.5L70.7,39.3z"/>
</g>
</svg>
