<?xml version="1.0" encoding="utf-8"?>
<!-- Generator: Adobe Illustrator 24.0.1, SVG Export Plug-In . SVG Version: 6.00 Build 0)  -->
<svg version="1.1" id="Layer_1" xmlns="http://www.w3.org/2000/svg" xmlns:xlink="http://www.w3.org/1999/xlink" x="0px" y="0px"
	 viewBox="0 0 80 80" style="enable-background:new 0 0 80 80;" xml:space="preserve">
<style type="text/css">
	.st0{fill:#E6292B;}
</style>
<path class="st0" d="M58.8,9.9l5.8-3.2c0.7-0.4,1.7-0.2,2.1,0.7c0.4,0.8,0.2,1.8-0.7,2.2l-5.8,3.2c-0.7,0.4-1.7,0.2-2.1-0.7
	C57.7,11.4,58,10.3,58.8,9.9z M57.4,7.9l4.3-5.2c0.6-0.7,0.5-1.6-0.2-2.2c-0.7-0.7-1.7-0.6-2.3,0.2l-4.3,5.2
	c-0.6,0.7-0.5,1.6,0.2,2.2C55.7,8.7,56.8,8.7,57.4,7.9z M59.9,17.1c0.2,0.8,0.9,1.4,1.7,1.4l6.6-0.8c0.9-0.1,1.6-1,1.4-1.9
	c-0.2-0.8-0.9-1.4-1.7-1.4l-6.6,0.8C60.3,15.2,59.7,16.1,59.9,17.1z M0,73.7v-3.9h5l0.2,0V29.6c0-3.2,2.5-5.7,5.6-5.7h4.3
	c-0.4,1.5-0.4,3,0,4.6c-0.2,0.3-0.4,0.8-0.5,1.2c-0.2,0.7-0.2,1.4-0.2,2.1h-1.7v30.4l13.6-7.6c0.9-0.5,1.6-1.3,1.8-2.3
	c0.1-0.4,0.2-0.8,0.2-0.9c0-0.2-0.1-0.3-0.1-0.5c-0.1-0.7-0.1-1.6,0.2-2.5c0,0,1.7-5.1,5-6.3l-3.1-3.6l-0.8,0.5
	c-1.8,1-4.1,0.3-5.1-1.5L23.8,36l-1,0.6c-0.6,0.3-1.4,0.1-1.7-0.5l-2.3-4.2c-0.3-0.6-0.1-1.4,0.5-1.8l1-0.6L19.4,28
	c-1-1.9-0.3-4.2,1.5-5.2l9.2-5.2l0.8,1.3c3.6-3,9.3-8.5,11.6-15.6c-0.4-0.8,0-1.9,0.9-2.3c0.8-0.3,1.7,0.1,2.1,0.8l4.6,8.6
	c2.2-0.3,4.5,0.8,5.7,2.9c1.2,2.2,0.8,4.7-0.7,6.5l4.7,8.7c0.4,0.8,0.2,1.8-0.4,2.3c-0.8,0.6-1.9,0.3-2.4-0.5
	c-7.1-1.9-14.6,0.1-19.1,1.7l0.7,1.4l-3.4,1.9l4,4.4c1.7-1.2,4.5-3,6.5-2.5c2.4,0.6,2.2,3.3,2.2,3.3s3.4,0.8,2.4,4.6
	c0,0,2.8,1.7,1.3,5.2c0,0,3.1,2.8-1.2,6.5c-1.2,1.1-3.1,2.1-4.8,2.9c-2.6,1.5-5.4,2.9-7.1,3.5l-10,5.7c-0.2,0.2-0.8,0.4-1.6,0.8h5.4
	v0.4c0,1.2,1,2.2,2.1,2.2h10.7c1.2,0,2.1-1,2.1-2.2v-0.4H67l0-38.1h-3.3c0.6-1.6,0.5-3.4-0.3-5l-1.6-2.9h7.3c3.1,0,5.6,2.5,5.6,5.7
	v40.2H80v3.9c0,3.5-2.8,6.3-6.2,6.3h-5.9l-55.7,0H6.2C2.7,80.1,0,77.2,0,73.7L0,73.7z M33.4,32l-4.8-9L23,26.2l4.8,9L33.4,32z"/>
</svg>
