<?xml version="1.0" encoding="utf-8"?>
<!-- Generator: Adobe Illustrator 24.0.1, SVG Export Plug-In . SVG Version: 6.00 Build 0)  -->
<svg version="1.1" id="Layer_1" xmlns="http://www.w3.org/2000/svg" xmlns:xlink="http://www.w3.org/1999/xlink" x="0px" y="0px"
	 viewBox="0 0 80 80" style="enable-background:new 0 0 80 80;" xml:space="preserve">
<style type="text/css">
	.st0{fill:#E6292B;stroke:#E6292B;stroke-miterlimit:10;}
</style>
<g>
	<path class="st0" d="M35.1,79H22.9c-5.4,0-9.8-4.4-9.8-9.8V42.4c0-5.4,4.4-9.8,9.8-9.8h12.2c2.6,0,5.1,1,6.9,2.9s2.9,4.3,2.9,6.9
		v26.8c0,2.6-1,5.1-2.9,6.9S37.7,79,35.1,79z M22.9,37.6c-2.7,0-4.9,2.2-4.9,4.9v26.8c0,1.3,0.5,2.5,1.4,3.4
		c0.9,0.9,2.2,1.4,3.4,1.4h12.2c1.3,0,2.5-0.5,3.4-1.4c0.9-0.9,1.4-2.2,1.4-3.4V42.4c0-1.3-0.5-2.5-1.4-3.4s-2.2-1.4-3.4-1.4H22.9z"
		/>
	<path class="st0" d="M29,71.7c-1,0-1.9-0.6-2.3-1.5c-0.4-0.9-0.2-2,0.5-2.7c1-0.9,2.5-0.9,3.4,0c0.7,0.7,0.9,1.7,0.5,2.7
		C30.9,71.1,30,71.7,29,71.7L29,71.7z"/>
	<path class="st0" d="M15.6,66.8h-4.9c-5.4,0-9.8-4.4-9.8-9.8V25.4c0-5.4,4.4-9.8,9.8-9.8h19.5c2.6,0,5.1,1,6.9,2.9s2.9,4.3,2.9,6.9
		v9.8h-4.9v-9.8c0-1.3-0.5-2.5-1.4-3.4c-0.9-0.9-2.2-1.4-3.4-1.4H10.7c-2.7,0-4.9,2.2-4.9,4.9v31.7c0,1.3,0.5,2.5,1.4,3.4
		c0.9,0.9,2.2,1.4,3.4,1.4h4.9V66.8z"/>
	<path class="st0" d="M69.3,53.4H42.4v-4.9h26.8c1.3,0,2.5-0.5,3.4-1.4c0.9-0.9,1.4-2.2,1.4-3.4V10.8c0-1.3-0.5-2.5-1.4-3.4
		c-0.9-0.9-2.2-1.4-3.4-1.4H20.5c-2.7,0-4.9,2.2-4.9,4.9v8.5h-4.9v-8.5c0-5.4,4.4-9.8,9.8-9.8h48.8c2.6,0,5.1,1,6.9,2.9
		C78,5.7,79,8.2,79,10.8v32.9c0,2.6-1,5.1-2.9,6.9C74.3,52.4,71.8,53.4,69.3,53.4z"/>
	<path class="st0" d="M54.6,63.2H42.4c-1.3,0-2.4-1.1-2.4-2.4s1.1-2.4,2.4-2.4h12.2c1.3,0,2.4,1.1,2.4,2.4S56,63.2,54.6,63.2z"/>
	<path class="st0" d="M49.8,63.2c-1.3,0-2.4-1.1-2.4-2.4V51c0-1.3,1.1-2.4,2.4-2.4s2.4,1.1,2.4,2.4v9.8c0,0.6-0.3,1.3-0.7,1.7
		C51,62.9,50.4,63.2,49.8,63.2L49.8,63.2z"/>
</g>
</svg>
