<?xml version="1.0" encoding="utf-8"?>
<!-- Generator: Adobe Illustrator 24.0.1, SVG Export Plug-In . SVG Version: 6.00 Build 0)  -->
<svg version="1.1" id="Layer_1" xmlns="http://www.w3.org/2000/svg" xmlns:xlink="http://www.w3.org/1999/xlink" x="0px" y="0px"
	 viewBox="0 0 127 80" style="enable-background:new 0 0 127 80;" xml:space="preserve">
<style type="text/css">
	.st0{fill:#E6292B;}
</style>
<g>
	<path class="st0" d="M49,60.9c-4.7,1.4-7.3,5.5-6.9,10.4c0.6,4.7,4.3,8.3,9.1,8.7c3,0.2,5.5-0.8,8.1-3.5
		c5.9-5.9,22.3-21.3,27.8-26.4c0.4-0.4,0-1-0.6-1C78.8,51.3,54.7,59.2,49,60.9L49,60.9z"/>
	<path class="st0" d="M117.8,30.4c-1-1.8-2.2-3.5-3.7-5.3C105,12.9,91.4,4.2,75.4,1.1C40.9-5.4,7.6,17.2,1.1,51.7
		c-1.6,8.3-1.4,16.9,0.2,25.2l0.6,3l9.5-2l-0.4-2.8c-1.2-8.5,0-17.3,3-25.4c3-7.7,7.7-14.6,14-20.1c2.8-2.4,6.1-4.7,9.9-6.5
		c3.4-1.6,7.1-3,11-3.9c3.7-0.8,7.5-1.2,11.2-1c3.7,0.2,7.3,0.8,11,1.6c6.9,2,13.2,5.7,18.3,10.6c2.2,2.2,4.3,4.7,5.9,7.3l3,5.5
		c0.6,1.4,1.2,2.8,1.6,4.3c1,3,1.4,6.3,1.6,9.6c0.2,3,0,6.3-0.6,9.3c-0.4,1.6-0.8,3.5-1.4,5.1l-1.2,3.5l26.6,5.1l0.6-3
		c0-0.4,0.2-0.8,0.2-1.2C129.1,59.2,125.7,43.4,117.8,30.4L117.8,30.4z M106.6,69.8l0.6-2.4c0.6-3.7,1-7.3,0.8-11
		c-0.2-3.9-0.8-7.5-2-11c-0.6-2-1.4-3.9-2.2-5.9l8.9-5.9c6.9,11.2,9.7,24.8,7.7,38.6L106.6,69.8z"/>
</g>
</svg>
