<?xml version="1.0" encoding="utf-8"?>
<!-- Generator: Adobe Illustrator 21.0.0, SVG Export Plug-In . SVG Version: 6.00 Build 0)  -->
<svg version="1.1" id="Layer_1" xmlns="http://www.w3.org/2000/svg" xmlns:xlink="http://www.w3.org/1999/xlink" x="0px" y="0px"
	 viewBox="0 0 338 216" style="enable-background:new 0 0 338 216;" xml:space="preserve">
<style type="text/css">
	.st0{fill:#F4F4F4;}
</style>
<g>
	<g>
		<path class="st0" d="M22.9,199.4V15.6h58.6v24.2H47.4v55h32.4V119H47.4v56.2h34.1v24.2H22.9z"/>
		<path class="st0" d="M157.5,193.3c-7,6.2-16.2,9.2-27.4,9.2c-11.2,0-20.3-3.1-27.4-9.4c-7-6.2-10.6-15.9-10.6-29V138h24.5v23
			c0,6.7,1.4,11.4,4.2,14.2c2.8,2.7,5.9,4.1,9.2,4.1s6.4-1.4,9.2-4.1c2.8-2.7,4.2-7.4,4.2-14.2v-15.1c0-3.4-1.3-6.7-3.8-10
			c-2.6-3.3-5.7-6.6-9.5-10.1c-3.8-3.4-7.9-7-12.4-10.6c-4.5-3.6-8.6-7.5-12.4-11.8c-3.8-4.2-6.9-8.8-9.5-13.7
			c-2.6-4.9-3.8-10.2-3.8-16v-23c0-6.7,1-12.5,3-17.4c2-4.9,4.8-8.9,8.3-12c3.5-3.1,7.6-5.4,12.1-6.8c4.6-1.4,9.4-2.2,14.5-2.2
			c5.1,0,10,0.7,14.5,2.2c4.6,1.4,8.6,3.7,12.1,6.7c3.5,3,6.3,7,8.3,11.9c2,4.9,3,10.8,3,17.6v28.8h-24.5V54
			c0-6.7-1.4-11.4-4.2-14.2c-2.8-2.7-5.9-4.1-9.2-4.1s-6.4,1.4-9.2,4.1c-2.8,2.7-4.2,7.4-4.2,14.2v15.4c0,4.6,1.3,8.8,3.8,12.6
			c2.6,3.8,5.7,7.3,9.5,10.7c3.8,3.4,7.9,6.7,12.4,10.1c4.5,3.4,8.6,6.9,12.4,10.6c3.8,3.7,6.9,7.8,9.5,12.2
			c2.6,4.5,3.8,9.6,3.8,15.4v23.3C168.1,177.4,164.6,187.2,157.5,193.3z"/>
		<path class="st0" d="M223.8,39.8v159.6h-24.5V39.8h-22.8V15.6h70.1v24.2H223.8z"/>
		<path class="st0" d="M257.4,199.4V15.6h58.6v24.2h-34.1v55h32.4V119h-32.4v56.2h34.1v24.2H257.4z"/>
	</g>
</g>
</svg>
