<?xml version="1.0" encoding="utf-8"?>
<!-- Generator: Adobe Illustrator 21.0.0, SVG Export Plug-In . SVG Version: 6.00 Build 0)  -->
<svg version="1.1" id="Layer_1" xmlns="http://www.w3.org/2000/svg" xmlns:xlink="http://www.w3.org/1999/xlink" x="0px" y="0px"
	 viewBox="0 0 601 216" style="enable-background:new 0 0 601 216;" xml:space="preserve">
<style type="text/css">
	.st0{fill:#F4F4F4;}
</style>
<g>
	<g>
		<path class="st0" d="M42.8,39.1v55h32.4v24.2H42.8v80.4H18.4V14.9h58.6v24.2H42.8z"/>
		<path class="st0" d="M136.9,198.7l-4.8-40.8H105l-4.8,40.8H75.7l24.7-183.8h36l25,183.8H136.9z M119.4,52.6c0-2.2-0.1-4.4-0.2-6.6
			c-0.2-2.2-0.4-4.4-0.7-6.6c-0.5,4.3-0.7,8.7-0.7,13.2l-9.6,81.1H129L119.4,52.6z"/>
		<path class="st0" d="M233.9,192.6c-7,6.2-16.2,9.2-27.4,9.2c-11.2,0-20.3-3.1-27.4-9.4c-7-6.2-10.6-15.9-10.6-29v-26.2h24.5v23
			c0,6.7,1.4,11.4,4.2,14.2c2.8,2.7,5.9,4.1,9.2,4.1s6.4-1.4,9.2-4.1c2.8-2.7,4.2-7.4,4.2-14.2v-15.1c0-3.4-1.3-6.7-3.8-10
			c-2.6-3.3-5.7-6.6-9.5-10.1c-3.8-3.4-7.9-7-12.4-10.6c-4.5-3.6-8.6-7.5-12.4-11.8c-3.8-4.2-6.9-8.8-9.5-13.7
			c-2.6-4.9-3.8-10.2-3.8-16v-23c0-6.7,1-12.5,3-17.4c2-4.9,4.8-8.9,8.3-12c3.5-3.1,7.6-5.4,12.1-6.8c4.6-1.4,9.4-2.2,14.5-2.2
			c5.1,0,10,0.7,14.5,2.2c4.6,1.4,8.6,3.7,12.1,6.7c3.5,3,6.3,7,8.3,11.9c2,4.9,3,10.8,3,17.6V79h-24.5V53.3
			c0-6.7-1.4-11.4-4.2-14.2c-2.8-2.7-5.9-4.1-9.2-4.1s-6.4,1.4-9.2,4.1c-2.8,2.7-4.2,7.4-4.2,14.2v15.4c0,4.6,1.3,8.8,3.8,12.6
			c2.6,3.8,5.7,7.3,9.5,10.7c3.8,3.4,7.9,6.7,12.4,10.1c4.5,3.4,8.6,6.9,12.4,10.6c3.8,3.7,6.9,7.8,9.5,12.2
			c2.6,4.5,3.8,9.6,3.8,15.4v23.3C244.4,176.7,240.9,186.4,233.9,192.6z"/>
		<path class="st0" d="M312.6,198.7v-81.6h-26.9v81.6h-24.5V14.9h24.5v78h26.9v-78h24.5v183.8H312.6z"/>
		<path class="st0" d="M356.3,198.7V14.9h24.5v183.8H356.3z"/>
		<path class="st0" d="M471.6,181.1c-2,4.9-4.8,8.8-8.3,11.9c-3.5,3-7.6,5.3-12.1,6.7c-4.6,1.4-9.4,2.2-14.5,2.2
			c-5.1,0-10-0.7-14.5-2.2c-4.6-1.4-8.6-3.7-12.1-6.8c-3.5-3.1-6.3-7.1-8.3-12c-2-4.9-3-10.7-3-17.4V50.2c0-6.7,1-12.5,3-17.4
			c2-4.9,4.8-8.9,8.3-12c3.5-3.1,7.6-5.4,12.1-6.8c4.6-1.4,9.4-2.2,14.5-2.2c12.2,0,21.5,3,28.1,8.9c6.6,5.9,9.8,15.8,9.8,29.5
			v113.3C474.6,170.3,473.6,176.2,471.6,181.1z M450.1,53.3c0-6.7-1.4-11.4-4.2-14.2c-2.8-2.7-5.9-4.1-9.2-4.1
			c-3.4,0-6.4,1.4-9.2,4.1c-2.8,2.7-4.2,7.4-4.2,14.2v107c0,6.7,1.4,11.4,4.2,14.2c2.8,2.7,5.9,4.1,9.2,4.1c3.4,0,6.4-1.4,9.2-4.1
			c2.8-2.7,4.2-7.4,4.2-14.2V53.3z"/>
		<path class="st0" d="M548.7,198.7L519.2,78.2l-3.8-12.7l1.7,13.2v120h-24.5V14.9h31l31,126.2l4.8,13.4l-2.9-13.4V14.9h24.5v183.8
			H548.7z"/>
	</g>
</g>
</svg>
