<?xml version="1.0" encoding="utf-8"?>
<!-- Generator: Adobe Illustrator 21.0.0, SVG Export Plug-In . SVG Version: 6.00 Build 0)  -->
<svg version="1.1" id="Layer_1" xmlns="http://www.w3.org/2000/svg" xmlns:xlink="http://www.w3.org/1999/xlink" x="0px" y="0px"
	 viewBox="0 0 572 198" style="enable-background:new 0 0 572 198;" xml:space="preserve">
<style type="text/css">
	.st0{fill:#FFFFFF;}
	.st1{fill:#FFFFFF;stroke:#FFFFFF;stroke-miterlimit:10;}
</style>
<g>
	<path class="st0" d="M30.2,20c-4.7,1.3-6.9,5.2-6.9,7.8c0,0.3,0.2,0.5,0.5,0.5c0.5,0,1.3-0.6,2.6-0.6c2.1,0,4.1,1.4,4.1,4.1
		c0,2.3-1.7,4.1-4.2,4.1c-2.8,0-4.5-2.2-4.5-5c0-4.6,2.8-9.6,8.4-11.2V20z M41.9,20c-4.7,1.3-7,5.2-7,7.8c0,0.3,0.2,0.5,0.6,0.5
		c0.5,0,1.3-0.6,2.6-0.6c2.1,0,4,1.4,4,4.1c0,2.3-1.7,4.1-4.1,4.1c-2.8,0-4.5-2.2-4.5-5c0-4.6,2.8-9.6,8.4-11.2V20z"/>
	<path class="st0" d="M47.6,70.6v-0.2H52V21.9h-4.4v-0.2h17v0.2h-4.4v48.4h4.4v0.2H47.6z"/>
	<path class="st0" d="M99.5,70.4h4.2v0.2H88.2v-0.2h4V42.6c0-4.3-2.4-6.6-6.2-6.6c-4.7,0-7.7,4.4-7.7,9.2v25.1h4v0.2H67v-0.2h4.3
		v-35H67v-0.2h11.4v6.6c0.9-2.6,4.3-7.3,10.9-7.3c6.9,0,10.2,5.1,10.2,13.1V70.4z"/>
	<path class="st0" d="M132.8,46c-1.3-6.5-4.4-11.3-11.2-11.3c-5,0-7.7,3-7.7,6.8c0,10.8,20.1,6,20.1,19c0,6.1-5.2,10.8-13.3,10.8
		c-6.2,0-7.7-2.7-11.1-2.7c-1.2,0-2,0.6-2,1.9h-0.2V58.8h0.3c1.1,7,5.7,12.1,12.6,12.1c5,0,7.7-2.9,7.7-7c0-10.7-20.1-6.4-20.1-19
		c0-6.1,4.6-10.6,13.1-10.6c5.2,0,7.1,2,9.8,2c1.2,0,2-0.6,2-1.9h0.2V46H132.8z"/>
	<path class="st0" d="M148.7,40.8c1.1-2.6,4.3-6.5,10.1-6.5c8.9,0,14.6,7.3,14.6,17.7c0,10.5-6.4,18.6-15.1,18.6
		c-5.4,0-8.4-3.4-9.6-5.8v15.8h4.2v0.2h-15.7v-0.2h4.3V35.4h-4.3v-0.2h11.5V40.8z M148.7,61.1c0,5.4,3.2,8.2,7.3,8.2
		c6.6,0,9.8-6.7,9.8-17c0-10.1-3.3-16.5-9.6-16.5c-4.5,0-7.6,3-7.6,8.6V61.1z"/>
	<path class="st0" d="M176.2,70.6v-0.2h4.3v-35h-4.3v-0.2h11.4v35.2h4.2v0.2H176.2z M183.8,29.3c-2.4,0-4.1-1.7-4.1-4
		c0-2.4,1.9-4,4.2-4c2.4,0,4.1,1.6,4.1,4C188,27.6,186.2,29.3,183.8,29.3z"/>
	<path class="st0" d="M205.1,49.2v21.1h4.5v0.2h-15.8v-0.2h4.3v-35h-4.3v-0.2h11.4v9.5c1.6-4,4.9-10.1,14.7-10.1v12h-0.2
		c-1-7-3.1-8.9-6.6-8.9C208.7,37.8,205.1,42.3,205.1,49.2z"/>
	<path class="st0" d="M253.6,61.5c-0.7,5.5-5.2,9.8-12.8,9.8c-9.8,0-16.4-7.8-16.4-18.3c0-10.5,6.6-18.7,16.3-18.7
		c8.7,0,14,6.2,13.8,15.9h-22.5c-0.1,0.8-0.1,1.7-0.1,2.7c0,8.9,3.3,16.7,11.9,16.7c5,0,8.9-2.9,9.5-8.1H253.6z M246.7,50
		c0.1-10.2-1.7-15.4-6.3-15.4c-5,0-8.1,6.2-8.6,15.4H246.7z"/>
	<path class="st0" d="M298,65c-0.1,2.7-2,6.3-6.6,6.3c-3.5,0-5.7-2.3-6.4-6.7c-1.2,2.6-4.4,6.7-10.2,6.7c-9,0-14.7-7.7-14.7-18.1
		c0-10.5,6.4-18.9,15.1-18.9c5.4,0,8.5,3.4,9.6,5.8V21.9h-4.6v-0.2h11.6v43.1c0,2.4,1.2,3.6,2.9,3.6c1.6,0,2.9-1.3,3.1-3.4H298z
		 M284.8,43.8c0-5.4-3.2-8.2-7.3-8.2c-6.6,0-9.8,7.1-9.8,17.3s3.3,16.8,9.6,16.8c4.5,0,7.6-2.9,7.6-8.5V43.8z"/>
	<path class="st0" d="M318.7,72.8c1.2-4.1,2.1-6.3,2.1-10.1V21.9h-4.5v-0.2h11.4v18.7c1.2-2.6,4.3-6.1,10.1-6.1
		c9.1,0,14.7,7.5,14.7,17.9c0,10.7-7.1,19-16.8,19c-7.1,0-9.1-4.6-12.6-4.6c-2,0-2.8,1.5-4.1,6.3H318.7z M327.7,62.3
		c0,5.9,3.3,8.4,7.5,8.4c6.6,0,9.8-7.6,9.8-17.9c0-10.1-3.3-17-9.6-17c-4.5,0-7.6,2.9-7.6,8.5V62.3z"/>
	<path class="st0" d="M355.4,75.7c-0.2,0-0.3,0.1-0.3,0.3c0,1.5,1.3,4.5,5.5,4.5c4.3,0,6.9-3.1,9.6-10.3l0.3-0.9l-16.6-33.9h-3.9
		v-0.2H366v0.2h-4.7l12.4,25.5l6.6-17.9c1.5-3.9,1-7.7-4-7.7h-0.5v-0.2h12v0.2h-0.3c-3.4,0-5.2,3.6-6.9,7.7l-10.2,27.1
		c-2.8,7.6-5.4,10.5-9.8,10.5c-4.7,0-7-3.2-7-7.2c0-2.7,1.9-4.7,4.1-4.7c2.4,0,3.8,1.6,3.8,3.8c0,2.4-1.8,3.7-3.8,3.7
		C356.6,76.4,355.6,75.7,355.4,75.7z"/>
</g>
<g>
	<path class="st0" d="M73,137.3v-0.2h4.4V88.7H73v-0.2h17v0.2h-4.4v48.4h4.4v0.2H73z"/>
	<path class="st0" d="M124.8,137.1h4.2v0.2h-15.4v-0.2h4v-27.7c0-4.3-2.4-6.6-6.2-6.6c-4.7,0-7.7,4.4-7.7,9.2v25.1h4v0.2H92.3v-0.2
		h4.3v-35h-4.3v-0.2h11.4v6.6c0.9-2.6,4.3-7.3,10.9-7.3c6.9,0,10.2,5.1,10.2,13.1V137.1z"/>
	<path class="st0" d="M169.5,131.7c-0.1,2.7-2,6.3-6.6,6.3c-3.5,0-5.7-2.3-6.4-6.7c-1.2,2.6-4.4,6.7-10.2,6.7
		c-9,0-14.7-7.7-14.7-18.1c0-10.5,6.4-18.9,15.1-18.9c5.4,0,8.5,3.4,9.6,5.8V88.7h-4.6v-0.2h11.6v43.1c0,2.4,1.2,3.6,2.9,3.6
		c1.6,0,2.9-1.3,3.1-3.4H169.5z M156.4,110.5c0-5.4-3.2-8.2-7.3-8.2c-6.6,0-9.8,7.1-9.8,17.3s3.3,16.8,9.6,16.8
		c4.5,0,7.6-2.9,7.6-8.5V110.5z"/>
	<path class="st0" d="M170.8,137.3v-0.2h4.3v-35h-4.3v-0.2h11.4v35.2h4.2v0.2H170.8z M178.5,96.1c-2.4,0-4.1-1.7-4.1-4
		c0-2.4,1.9-4,4.2-4c2.4,0,4.1,1.6,4.1,4C182.7,94.3,180.8,96.1,178.5,96.1z"/>
	<path class="st0" d="M204.2,101.1c8.6,0,13.5,5.2,13.5,13.3v17.3c0,2.1,1,3.4,2.9,3.4c1.7,0,3-1.4,3.1-3.4h0.2
		c-0.1,2.7-2,6.3-6.5,6.3c-3.9,0-6.1-2.2-6.7-6.9c-1,2.3-4.5,7-11,7c-5.1,0-9.5-3.1-9.5-8.5c0-13.1,21-6.6,21-20.5
		c0-5-3.2-7.5-8.8-7.5c-5.9,0-9.3,4-9.3,5.6c0,0.3,0.1,0.4,0.4,0.4c0.2,0,1.1-0.6,2.4-0.6c2,0,4,1.4,4,4c0,2.2-1.7,4-4.2,4
		c-2.4,0-4.1-1.9-4.1-4.5C191.7,105.9,196,101.1,204.2,101.1z M210.6,113.8c-3.6,6-13.1,5.7-13.1,15.1c0,4.3,2.7,6.8,6.3,6.8
		c4.1,0,6.8-3.1,6.8-6.8V113.8z"/>
	<path class="st0" d="M257.2,137.1h4.2v0.2H246v-0.2h4v-27.7c0-4.3-2.4-6.6-6.2-6.6c-4.7,0-7.7,4.4-7.7,9.2v25.1h4v0.2h-15.5v-0.2
		h4.3v-35h-4.3v-0.2h11.4v6.6c0.9-2.6,4.3-7.3,10.9-7.3c6.9,0,10.2,5.1,10.2,13.1V137.1z"/>
	<path class="st0" d="M313.9,114.4v22.8h4.2v0.2h-15.4v-0.2h4v-27.7c0-4.3-2.4-6.6-6.2-6.6c-4.7,0-7.7,4.4-7.7,9.2v25.1h4v0.2h-15.4
		v-0.2h4.3V88.7h-4.3v-0.2h11.4v20.1c1-2.6,4.4-7.3,11-7.3C310.5,101.2,313.9,106.3,313.9,114.4z"/>
	<path class="st0" d="M349.9,128.3c-0.7,5.5-5.2,9.8-12.8,9.8c-9.8,0-16.4-7.8-16.4-18.3c0-10.5,6.6-18.7,16.3-18.7
		c8.7,0,14,6.2,13.8,15.9h-22.5c-0.1,0.8-0.1,1.7-0.1,2.7c0,8.9,3.3,16.7,11.9,16.7c5,0,8.9-2.9,9.5-8.1H349.9z M343.1,116.7
		c0.1-10.2-1.7-15.4-6.3-15.4c-5,0-8.1,6.2-8.6,15.4H343.1z"/>
	<path class="st0" d="M365.8,116v21.1h4.5v0.2h-15.8v-0.2h4.3v-35h-4.3v-0.2h11.4v9.5c1.6-4,4.9-10.1,14.7-10.1v12h-0.2
		c-1-7-3.1-8.9-6.6-8.9C369.3,104.5,365.8,109.1,365.8,116z"/>
	<path class="st0" d="M381.6,137.3v-0.2h4.3v-35h-4.3v-0.2H393v35.2h4.2v0.2H381.6z M389.2,96.1c-2.4,0-4.1-1.7-4.1-4
		c0-2.4,1.9-4,4.2-4c2.4,0,4.1,1.6,4.1,4C393.4,94.3,391.6,96.1,389.2,96.1z"/>
	<path class="st0" d="M419.5,130.6c-0.3,4-4.1,7.5-9.1,7.5c-6.8,0-9.8-4.2-9.8-10.7v-25.1h-4.3v-0.2h4.3v-7l7-3.2v10.3h11.2v0.2
		h-11.2v25.5c0,5.1,2,7.7,6.2,7.7c2.7,0,5.1-2,5.4-4.9H419.5z"/>
	<path class="st0" d="M437,101.1c8.6,0,13.5,5.2,13.5,13.3v17.3c0,2.1,1,3.4,2.9,3.4c1.7,0,3-1.4,3.1-3.4h0.2
		c-0.1,2.7-2,6.3-6.5,6.3c-3.9,0-6.1-2.2-6.7-6.9c-1,2.3-4.5,7-11,7c-5.1,0-9.5-3.1-9.5-8.5c0-13.1,21-6.6,21-20.5
		c0-5-3.2-7.5-8.8-7.5c-5.9,0-9.3,4-9.3,5.6c0,0.3,0.1,0.4,0.4,0.4c0.2,0,1.1-0.6,2.4-0.6c2,0,4,1.4,4,4c0,2.2-1.7,4-4.2,4
		c-2.4,0-4.1-1.9-4.1-4.5C424.5,105.9,428.8,101.1,437,101.1z M443.5,113.8c-3.6,6-13.1,5.7-13.1,15.1c0,4.3,2.7,6.8,6.3,6.8
		c4.1,0,6.8-3.1,6.8-6.8V113.8z"/>
	<path class="st0" d="M485.9,97.8c-0.3,0-1.1,0.6-2.4,0.6c-2,0-3.9-1.3-3.9-3.9c0-2.2,1.7-3.9,4.3-3.9c2.4,0,4.4,1.7,4.4,4.2
		c0,3.8-3.1,7.2-8.4,7.6c4.7,1.7,7,5,7,9.6c0,6.4-5.7,11.1-13.7,11.1c-2.6,0-4.5-0.6-6.2-0.6c-2.4,0-4.3,1-4.3,2.8
		c0,6.8,27.4-2,27.4,11.5c0,6.2-7,10.8-17.8,10.8c-9.9,0-13.7-3.8-13.7-8.2c0-4.5,4.6-6.4,6.6-6.6c-2-0.6-4.7-1.8-4.7-5.2
		c0-3.1,3-5.1,6.5-5.7c-4-1.5-7-5-7-9.6c0-6.6,5.7-11,13.7-11c2.9,0,4.1,0.6,6.8,0.6c3.1,0,5.9-1.7,5.9-3.7
		C486.2,97.9,486.1,97.8,485.9,97.8z M475,133.9c-2.9-0.3-6.6-0.7-8.7-0.7c-3.9,0-6.4,2.4-6.4,6.1c0,4.1,3.3,8,12.3,8
		c7.6,0,11.5-3.1,11.5-7.3C483.7,136.6,481.4,134.7,475,133.9z M479.9,112.1c0-6.5-1.7-10.7-6.4-10.7c-5,0-6.6,4.1-6.6,10.6
		c0,6.4,1.7,10.7,6.3,10.7C478.2,122.7,479.9,118.6,479.9,112.1z"/>
	<path class="st0" d="M522.2,128.3c-0.7,5.5-5.2,9.8-12.8,9.8c-9.8,0-16.4-7.8-16.4-18.3c0-10.5,6.6-18.7,16.3-18.7
		c8.7,0,14,6.2,13.8,15.9h-22.5c-0.1,0.8-0.1,1.7-0.1,2.7c0,8.9,3.3,16.7,11.9,16.7c5,0,8.9-2.9,9.5-8.1H522.2z M515.3,116.7
		c0.1-10.2-1.7-15.4-6.3-15.4c-5,0-8.1,6.2-8.6,15.4H515.3z"/>
	<path class="st0" d="M530.3,104.1c4.7-1.3,7-5.2,7-7.7c0-0.3-0.2-0.6-0.6-0.6c-0.5,0-1.3,0.6-2.6,0.6c-2.1,0-4-1.5-4-4.1
		c0-2.4,1.7-4.2,4.1-4.2c2.8,0,4.5,2.2,4.5,5.1c0,4.6-2.8,9.6-8.4,11.2V104.1z M542,104.1c4.7-1.3,6.9-5.2,6.9-7.7
		c0-0.3-0.2-0.6-0.5-0.6c-0.5,0-1.3,0.6-2.6,0.6c-2.1,0-4.1-1.5-4.1-4.1c0-2.4,1.7-4.2,4.2-4.2c2.8,0,4.5,2.2,4.5,5.1
		c0,4.6-2.8,9.6-8.4,11.2V104.1z"/>
</g>
<line class="st1" x1="69.1" y1="179.1" x2="189.7" y2="179.1"/>
</svg>
