<?xml version="1.0" encoding="utf-8"?>
<!-- Generator: Adobe Illustrator 21.0.0, SVG Export Plug-In . SVG Version: 6.00 Build 0)  -->
<svg version="1.1" id="Layer_1" xmlns="http://www.w3.org/2000/svg" xmlns:xlink="http://www.w3.org/1999/xlink" x="0px" y="0px"
	 viewBox="0 0 97 97" style="enable-background:new 0 0 97 97;" xml:space="preserve">
<style type="text/css">
	.st0{fill:#ED2127;}
</style>
<g>
	<path class="st0" d="M0.7-0.1v97h97v-97H0.7z M94.5,3v9.4H3.8V3H94.5z M3.8,15.5h28.2v78.2H3.8V15.5z M35.1,93.8V15.5h59.5v78.2
		H35.1z"/>
	<rect x="6.9" y="6.1" class="st0" width="3.1" height="3.1"/>
	<rect x="13.2" y="6.1" class="st0" width="3.1" height="3.1"/>
	<rect x="19.4" y="6.1" class="st0" width="3.1" height="3.1"/>
	<path class="st0" d="M64.8,18.7c-14.7,0-26.6,11.9-26.6,26.6s11.9,26.6,26.6,26.6s26.6-11.9,26.6-26.6S79.5,18.7,64.8,18.7z
		 M83.1,30.7L66.4,42.3V21.9C73.1,22.3,79.1,25.6,83.1,30.7z M84.9,33.2c1.9,3.1,3,6.7,3.3,10.5H69.8L84.9,33.2z M41.3,45.3
		c0-12.4,9.7-22.6,21.9-23.4v46.8C51,67.8,41.3,57.7,41.3,45.3z M66.4,68.6V46.8h21.8C87.4,58.5,78.1,67.9,66.4,68.6z"/>
	<rect x="38.2" y="75" class="st0" width="51.6" height="3.1"/>
	<rect x="38.2" y="81.2" class="st0" width="45.4" height="3.1"/>
	<rect x="86.7" y="81.2" class="st0" width="3.1" height="3.1"/>
	<rect x="6.9" y="18.7" class="st0" width="21.9" height="3.1"/>
	<rect x="13.2" y="24.9" class="st0" width="15.6" height="3.1"/>
	<rect x="6.9" y="24.9" class="st0" width="3.1" height="3.1"/>
	<rect x="6.9" y="31.2" class="st0" width="21.9" height="3.1"/>
	<rect x="6.9" y="37.4" class="st0" width="21.9" height="3.1"/>
	<rect x="6.9" y="43.7" class="st0" width="21.9" height="3.1"/>
	<rect x="6.9" y="49.9" class="st0" width="21.9" height="3.1"/>
	<rect x="6.9" y="56.2" class="st0" width="21.9" height="3.1"/>
	<rect x="6.9" y="62.5" class="st0" width="21.9" height="3.1"/>
	<rect x="6.9" y="68.7" class="st0" width="21.9" height="3.1"/>
	<rect x="6.9" y="75" class="st0" width="21.9" height="3.1"/>
	<rect x="6.9" y="81.2" class="st0" width="21.9" height="3.1"/>
	<rect x="25.7" y="87.5" class="st0" width="3.1" height="3.1"/>
	<rect x="6.9" y="87.5" class="st0" width="15.6" height="3.1"/>
	<rect x="44.5" y="87.5" class="st0" width="45.4" height="3.1"/>
	<rect x="38.2" y="87.5" class="st0" width="3.1" height="3.1"/>
	<path class="st0" d="M44.5,45.3h3.1c0-1,0.1-1.9,0.2-2.9l-3.1-0.5C44.6,43,44.5,44.1,44.5,45.3z"/>
	<path class="st0" d="M59.7,25.6c-6.6,1.7-11.8,6.5-14.1,12.9l2.9,1c1.9-5.4,6.4-9.5,11.9-10.9L59.7,25.6z"/>
</g>
</svg>
