<svg xmlns="http://www.w3.org/2000/svg" width="85.542" height="85.542"><g data-name="Group 188"><g data-name="Group 187"><path data-name="Path 204" d="M61.95 29.715a13.784 13.784 0 00-19.179-.27 13.756 13.756 0 00-19.269 19.63l.09.09 15.577 15.577a5.206 5.206 0 003.6 1.531 5.048 5.048 0 003.6-1.531L61.86 49.259l.09-.09a13.86 13.86 0 000-19.454zm-2.431 17.018l-.09.09L43.937 62.22a1.686 1.686 0 01-2.341 0l-15.4-15.4-.09-.09a10.253 10.253 0 0114.5-14.5l.09.09.9.9a1.778 1.778 0 001.261.54 1.778 1.778 0 001.261-.54l.81-.81.09-.09a10.327 10.327 0 0114.5 0 10.217 10.217 0 01.001 14.413z" fill="#ad0931"/><path data-name="Path 205" d="M42.771 11.256a1.71 1.71 0 001.711-1.711V1.711A1.71 1.71 0 0042.771 0a1.771 1.771 0 00-1.711 1.711v7.834a1.656 1.656 0 001.711 1.711z"/><path data-name="Path 206" d="M18.009 20.53a1.741 1.741 0 002.521 0 1.637 1.637 0 000-2.431l-5.493-5.493a1.719 1.719 0 10-2.431 2.431z"/><path data-name="Path 207" d="M9.545 41.06H1.711A1.71 1.71 0 000 42.771a1.771 1.771 0 001.711 1.711h7.834a1.711 1.711 0 000-3.422z"/><path data-name="Path 208" d="M18.009 65.012l-5.493 5.492a1.637 1.637 0 000 2.431 1.741 1.741 0 002.521 0l5.493-5.493a1.637 1.637 0 000-2.431 1.917 1.917 0 00-2.521.001z"/><path data-name="Path 209" d="M42.771 74.286a1.71 1.71 0 00-1.711 1.711v7.834a1.71 1.71 0 001.711 1.711 1.771 1.771 0 001.711-1.711v-7.834a1.656 1.656 0 00-1.711-1.711z"/><path data-name="Path 210" d="M67.533 65.012a1.719 1.719 0 00-2.431 2.431l5.493 5.493a1.741 1.741 0 002.521 0 1.637 1.637 0 000-2.431z"/><path data-name="Path 211" d="M83.831 41.06h-7.834a1.71 1.71 0 00-1.711 1.711 1.771 1.771 0 001.711 1.711h7.834a1.71 1.71 0 001.711-1.711 1.771 1.771 0 00-1.711-1.711z"/><path data-name="Path 212" d="M70.505 12.516l-5.493 5.492a1.637 1.637 0 000 2.431 1.741 1.741 0 002.521 0l5.493-5.493a1.637 1.637 0 000-2.431 1.917 1.917 0 00-2.521.001z"/></g></g></svg>