<svg version="1.1" id="Layer_1" xmlns="http://www.w3.org/2000/svg" x="0" y="0" viewBox="0 0 63.9 63.9" xml:space="preserve"><style>.st0{fill:none}.st1{fill:#030504}</style><path class="st0" d="M41.2 19.8c-2.9-2.2-6.4-3.5-10.1-3.5-3.7 0-7.2 1.2-10.1 3.4-7.2 5.6-8.5 15.9-2.9 23.1 5.6 7.2 15.9 8.5 23.1 2.9 7.2-5.6 8.5-15.9 2.9-23.1h1.2"/><path class="st0" d="M45.6 8.4c-4.4-2.6-9.4-4-14.5-4-15.6 0-28.3 12.7-28.3 28.4s12.7 28.3 28.3 28.3c15.7 0 28.3-12.7 28.3-28.3 0-5.1-1.4-10.1-4-14.5"/><path class="st0" d="M47.5 22.7c1.9 3.1 2.9 6.6 2.9 10.2 0 10.6-8.7 19.3-19.3 19.2-10.6 0-19.3-8.7-19.2-19.3 0-10.6 8.7-19.3 19.3-19.2 3.6 0 7.1 1 10.1 2.9"/><path class="st1" d="M47.6 6.4C33.1-2.7 13.9 1.7 4.8 16.2-4.4 30.8 0 50 14.6 59.1s33.8 4.7 42.9-9.8c6.3-10.1 6.3-22.9 0-33l-2 2c2.6 4.4 4 9.4 4 14.5 0 15.7-12.7 28.3-28.3 28.3-15.7 0-28.3-12.7-28.3-28.3S15.5 4.4 31.1 4.4c5.1 0 10.1 1.4 14.5 4l2-2"/><path class="st1" d="M41.2 19.8v-3.4c-3-1.9-6.5-2.9-10.1-2.9-10.6 0-19.3 8.6-19.3 19.2S20.4 52 31 52s19.3-8.6 19.3-19.2c0-3.6-1-7.1-2.9-10.2H44h1.2H44c5.6 7.2 4.3 17.5-2.9 23.1-7.1 5.6-17.4 4.3-23-2.9-5.6-7.2-4.3-17.5 2.9-23.1 2.9-2.2 6.4-3.4 10.1-3.4 3.7 0 7.2 1.2 10.1 3.5"/><path id="noun_goal_117084-2" d="M45.6 8.4l-4 4c-.3.3-.4.6-.4 1v7.3l-6 6c-3.4-2.3-7.9-1.4-10.2 2s-1.4 7.9 2 10.2c3.4 2.3 7.9 1.4 10.2-2 1.7-2.5 1.7-5.7 0-8.2l6-6h7.3c.4 0 .7-.1 1-.4l4-4 2-2 6-6c.5-.5.5-1.4 0-2-.3-.3-.6-.4-1-.4H56V1.4c0-.8-.6-1.4-1.4-1.4-.4 0-.7.1-1 .4l-6 6-2 2zm-9.9 24.4c0 2.5-2 4.6-4.6 4.6s-4.6-2-4.6-4.6c0-2.5 2-4.6 4.6-4.6.7 0 1.5.2 2.1.5l-3.1 3.1c-.6.5-.6 1.4 0 2 .5.6 1.4.6 2 0l3.1-3.1c.3.6.5 1.3.5 2.1zm19-17.7l-4.8 4.8H44V14l4.8-4.8.1-.1 4.4-4.4v4.5c0 .8.6 1.4 1.4 1.4h4.5l-4.5 4.5z" fill="#ad0931"/></svg>