<svg xmlns="http://www.w3.org/2000/svg" width="63.896" height="63.896"><path data-name="Rectangle 49" fill="#ad0931" d="M30.526 40.71h2.843v23.186h-2.843z"/><path data-name="Rectangle 50" fill="#ad0931" d="M30.526 0h2.843v23.186h-2.843z"/><path data-name="Rectangle 51" fill="#ad0931" d="M0 30.527h23.186v2.842H0z"/><path data-name="Path 188" d="M60.768 27.685A29.2 29.2 0 0036.207 3.122v3.239A26 26 0 0157.53 27.685z"/><path data-name="Path 189" d="M3.127 27.685h3.239A26 26 0 0127.685 6.366V3.122A29.2 29.2 0 003.127 27.685z"/><path data-name="Path 190" d="M57.53 36.207A26 26 0 0136.207 57.53v3.239a29.2 29.2 0 0024.561-24.562z"/><path data-name="Path 191" d="M3.127 36.207a29.2 29.2 0 0024.558 24.562V57.53A26 26 0 016.366 36.207z"/><path data-name="Path 192" d="M47.061 27.686h3.368a19.026 19.026 0 00-14.222-14.219v3.367a15.763 15.763 0 0110.854 10.852z"/><path data-name="Path 193" d="M27.685 16.835v-3.368a19.026 19.026 0 00-14.218 14.219h3.368a15.763 15.763 0 0110.85-10.851z"/><path data-name="Path 194" d="M27.685 50.429v-3.367a15.763 15.763 0 01-10.851-10.855h-3.367a19.026 19.026 0 0014.218 14.222z"/><path data-name="Path 195" d="M36.207 47.062v3.367a19.026 19.026 0 0014.222-14.222h-3.368a15.763 15.763 0 01-10.854 10.855z"/><path data-name="Rectangle 52" fill="#ad0931" d="M40.71 30.527h23.186v2.842H40.71z"/><path data-name="Path 196" d="M34.613 31.948a2.665 2.665 0 10-2.665 2.665 2.665 2.665 0 002.665-2.665z" fill="#ad0931"/></svg>