<svg xmlns="http://www.w3.org/2000/svg" width="90" height="81.51"><path data-name="Path 202" d="M76.484 31.715a1.65 1.65 0 00.183-.744 1.66 1.66 0 00-2.9-1.111H49.432c-.064-3.384-.375-9.465-.65-14.385a2.3 2.3 0 001.773-2.236v-.394a2.3 2.3 0 00-2.055-2.278 731.486 731.486 0 00-.166-2.731 3.211 3.211 0 00-.044-.431 4.444 4.444 0 10-6.582 0 2.966 2.966 0 00-.038.366c-.011.169-.076 1.223-.169 2.8a2.3 2.3 0 00-2.055 2.278v.394a2.3 2.3 0 001.772 2.235c-.275 4.93-.585 11-.649 14.385H16.233a1.658 1.658 0 00-2.717 1.855L.076 66.105l-.076.2v.209a15 15 0 0030 0v-.209L16.627 32.082h24.164c.1.314.226.667.388 1.108a14.771 14.771 0 01.488 1.454c0 1.542 1.239 4.374 3.263 4.374h.141c2.112 0 3.263-2.89 3.262-4.337a12.826 12.826 0 01.488-1.491c.162-.441.287-.794.388-1.108h24.164L60.076 66.105l-.076.2v.209a15 15 0 0030 0v-.209zm-.928-.744a.556.556 0 11-.556-.556.557.557 0 01.556.556zm-1.667 5.9v28.528H62.738zm2.222 0l11.151 28.528H76.111zm-28.888-5.936a12.735 12.735 0 01-.489 1.491 7.64 7.64 0 00-.623 2.218 3 3 0 01-1.05 2.152h-.117a2.973 2.973 0 01-1.055-2.153 7.6 7.6 0 00-.623-2.218 15.138 15.138 0 01-.488-1.455c0-2.914.354-9.892.662-15.429h3.12c.308 5.523.663 12.498.663 15.394zM42.778 4.444A2.222 2.222 0 1145 6.666a2.224 2.224 0 01-2.222-2.222zM45 8.889a4.384 4.384 0 001.163-.174l.109 1.827h-2.545l.109-1.828A4.352 4.352 0 0045 8.889zm-3.333 3.956a.085.085 0 01.081-.081h6.506a.085.085 0 01.08.081v.394a.085.085 0 01-.08.081h-6.506a.085.085 0 01-.081-.081zM15 30.415a.556.556 0 11-.556.556.556.556 0 01.556-.556zm-1.111 34.984H2.738l11.151-28.533zm2.222-28.533l11.151 28.533H16.111zM15 79.288A12.785 12.785 0 012.284 67.621h25.433A12.787 12.787 0 0115 79.288zm60 0a12.787 12.787 0 01-12.717-11.667h25.434A12.787 12.787 0 0175 79.288z"/><path data-name="Path 203" d="M43.889 30.82A1.111 1.111 0 1045 29.709a1.112 1.112 0 00-1.111 1.111zm1.109 0v.556z"/></svg>