<?xml version="1.0" encoding="utf-8"?>
<!-- Generator: Adobe Illustrator 25.0.1, SVG Export Plug-In . SVG Version: 6.00 Build 0)  -->
<svg version="1.1" id="Layer_1" xmlns="http://www.w3.org/2000/svg" xmlns:xlink="http://www.w3.org/1999/xlink" x="0px" y="0px"
	 viewBox="0 0 685.6 379.9" style="enable-background:new 0 0 685.6 379.9;" xml:space="preserve">
<style type="text/css">
	.st0{fill:#FFFFFF;}
</style>
<g>
	<path class="st0" d="M266.3,373.6c-2.1,0.7-4.3,1.1-6.5,1.1c-3.5,0.1-6.9-0.7-9.9-2.3c-2.8-1.5-5.1-3.7-6.6-6.4
		c-1.6-2.8-2.4-5.9-2.3-9.1c-0.1-3.6,0.8-7.1,2.5-10.2c1.6-2.8,3.9-5.1,6.8-6.6c2.9-1.5,6.1-2.3,9.3-2.3c1.9,0,3.9,0.2,5.7,0.7
		c1.7,0.4,3.3,1.1,4.8,1.9l-1.6,4.5c-1.3-0.7-2.6-1.2-4-1.6c-1.4-0.4-2.9-0.6-4.4-0.7c-2.6-0.1-5.1,0.5-7.4,1.7
		c-2.1,1.1-3.9,2.8-5,4.8c-1.2,2.3-1.8,4.8-1.8,7.3c-0.1,2.4,0.6,4.9,1.8,7c1.2,2,2.9,3.7,5,4.7c2.3,1.1,4.8,1.7,7.3,1.7
		c1.2,0,2.5-0.1,3.7-0.4c1.1-0.2,2.1-0.6,3-1.1v-7.2h-7.2v-4.7h12.1v14.6C269.9,372.3,268.2,373.1,266.3,373.6z"/>
	<path class="st0" d="M308.2,374.3l-8.5-13.3c-0.4,0-0.8,0-1.2,0h-5.4v13.3h-4.8v-36.1h9.7c2.3,0,4.5,0.4,6.6,1.3
		c1.9,0.8,3.4,2.1,4.5,3.8c1.1,1.8,1.7,3.9,1.7,6.1c0,2.1-0.5,4.3-1.5,6.2c-1,1.9-2.6,3.4-4.5,4.2l9.1,14.5H308.2z M304,354.3
		c1.1-1.3,1.7-3,1.7-4.7c0-1.1-0.3-2.2-0.7-3.2c-0.5-1.1-1.3-2-2.3-2.6c-1.2-0.7-2.6-1.1-4-1h-5.6v13.5h5.2
		C301,356.3,302.8,355.6,304,354.3L304,354.3z"/>
	<path class="st0" d="M328.2,347c1.6-2.8,3.9-5.1,6.7-6.8c5.7-3.4,12.7-3.4,18.4,0c2.8,1.7,5.1,4,6.8,6.8c3.3,5.7,3.3,12.8,0,18.5
		c-1.6,2.8-4,5.1-6.8,6.7c-8.8,5.1-20,2.2-25.2-6.6c-1.7-2.9-2.5-6.1-2.5-9.4C325.7,353,326.6,349.8,328.2,347z M332.5,363.1
		c1.2,2.1,2.9,3.8,4.9,5c2.1,1.2,4.4,1.9,6.8,1.8c2.4,0,4.7-0.6,6.8-1.8c2-1.2,3.7-2.9,4.8-5c2.4-4.3,2.4-9.6,0-13.9
		c-1.2-2.1-2.9-3.8-4.9-5c-2.1-1.2-4.4-1.9-6.8-1.8c-2.4,0-4.8,0.6-6.8,1.9c-2,1.2-3.7,3-4.9,5.1c-1.2,2.1-1.8,4.5-1.8,7
		C330.7,358.7,331.3,361.1,332.5,363.1z"/>
	<path class="st0" d="M383.9,365.8c0.8,1.3,1.8,2.3,3.1,3c1.3,0.8,2.8,1.1,4.4,1.1c1.6,0,3.1-0.4,4.5-1.1c1.3-0.7,2.4-1.7,3.2-3
		c0.8-1.3,1.2-2.8,1.2-4.3v-23.4h4.8v23.5c0,2.4-0.6,4.8-1.8,6.8c-1.2,2-2.9,3.6-4.9,4.6c-4.3,2.2-9.4,2.2-13.8,0
		c-2-1-3.7-2.6-4.9-4.6c-1.2-2.1-1.8-4.4-1.8-6.8v-23.5h4.8v23.3C382.7,363,383.1,364.5,383.9,365.8z"/>
	<path class="st0" d="M441.3,341.1c2.3,2.1,3.5,5.1,3.3,8.2c0,2-0.4,3.9-1.2,5.7c-0.9,1.8-2.3,3.3-4,4.3c-2.1,1.2-4.4,1.7-6.8,1.6
		h-5.3v13.3h-4.8v-36.1h9.7C436,338.1,439.1,339.1,441.3,341.1z M436.8,355.2c1-0.7,1.8-1.6,2.3-2.7c0.4-1,0.7-2,0.7-3.1
		c0-1.7-0.6-3.3-1.7-4.6c-1.1-1.3-2.9-2-5.3-2h-5.6v13.5h5.3C434.1,356.4,435.6,356,436.8,355.2L436.8,355.2z"/>
	<path class="st0" d="M658.1,148.3v1.6h-3.4v11H653v-11h-3.3v-1.6H658.1z"/>
	<path class="st0" d="M676,147.9V161h-1.7v-8.2l-4.7,6.6l0,0l-4.6-6.4v8h-1.6v-13.1l0,0l6.2,8.8L676,147.9L676,147.9z"/>
	<path class="st0" d="M55.1,184c-3.5-1.1-7.2-1.7-10.9-1.7c-5.2,0-9.3,1.2-12.3,3.5c-3,2.2-4.7,5.8-4.5,9.5c0,4,1.8,7.2,5.3,9.7
		c4.7,3.1,9.8,5.6,15.2,7.4c4.3,1.5,8.5,3.4,12.4,5.7c3.5,2.1,6.3,5.1,8.4,8.6c2.2,3.6,3.3,8.3,3.4,13.9c0.1,4.9-1.3,9.7-3.8,13.8
		c-2.6,4.2-6.4,7.6-10.9,9.7c-5.2,2.5-10.8,3.7-16.5,3.5c-5.8,0-11.5-0.9-17-2.8c-5.1-1.7-9.9-4.1-14.4-7.2l5.7-10.1
		c3.6,2.6,7.5,4.7,11.7,6.2c4.1,1.6,8.4,2.5,12.8,2.6c4.8,0.1,9.4-1.3,13.4-4c3.8-2.6,5.7-6.5,5.7-11.7c0.2-4.1-1.6-7.9-4.8-10.5
		c-4.1-3.1-8.6-5.5-13.4-7.3c-4.6-1.7-9.1-3.7-13.4-6c-3.6-2-6.7-4.7-9.1-8c-2.6-3.7-4-8.2-3.8-12.7c0-7.5,2.6-13.5,7.8-18.1
		c5.2-4.6,12-7,20.3-7.2c10-0.1,19.9,2.6,28.6,7.6l-4.9,9.9C62.5,186.6,58.9,185.1,55.1,184z"/>
	<path class="st0" d="M113.8,194.9c4.3-7.4,10.4-13.5,17.7-17.8c15-8.9,33.5-8.9,48.5,0c7.4,4.3,13.5,10.5,17.8,17.8
		c4.4,7.3,6.7,15.7,6.7,24.2c0.1,8.6-2.2,17-6.6,24.4c-4.3,7.4-10.4,13.5-17.8,17.7c-23.1,13.5-52.7,5.8-66.2-17.3
		c-4.4-7.5-6.7-16.1-6.6-24.7C107.2,210.6,109.5,202.2,113.8,194.9z M125.1,237.3c3.1,5.5,7.6,10,13,13.2c5.4,3.2,11.7,4.9,18,4.9
		c6.3,0.1,12.4-1.6,17.8-4.8c5.4-3.2,9.8-7.7,12.8-13.2c6.2-11.4,6.2-25.2-0.1-36.5c-3-5.5-7.5-10.1-12.9-13.3
		c-5.4-3.2-11.6-4.9-17.9-4.9c-6.3-0.1-12.5,1.7-17.9,4.9c-5.4,3.2-9.9,7.9-12.9,13.4c-3.1,5.6-4.7,11.9-4.7,18.3
		C120.4,225.6,122,231.8,125.1,237.3L125.1,237.3z"/>
	<path class="st0" d="M258.5,171.5v82.8H307v12.4h-61.3v-95.2H258.5z"/>
	<path class="st0" d="M399.7,266.6l-22.4-35.1c-1,0.1-2.1,0.1-3.2,0.1h-14.1v35h-12.8v-95.2h25.4c6-0.1,11.9,1.1,17.4,3.4
		c4.9,2.1,9.1,5.6,12,10.1c3,4.8,4.5,10.4,4.3,16c0,5.6-1.3,11.2-3.9,16.2c-2.6,4.9-6.8,8.9-11.9,11.2l24,38.3H399.7z M388.7,213.9
		c3-3.4,4.6-7.8,4.5-12.4c0-2.9-0.7-5.7-1.9-8.3c-1.3-2.8-3.4-5.1-6.1-6.8c-3.1-1.9-6.8-2.8-10.5-2.7h-14.7v35.5h13.8
		C380.7,219.3,385.7,217.5,388.7,213.9L388.7,213.9z"/>
	<path class="st0" d="M452.5,194.9c4.3-7.4,10.4-13.5,17.7-17.8c15-8.9,33.6-8.9,48.5,0c7.3,4.3,13.5,10.5,17.8,17.8
		c4.4,7.3,6.7,15.7,6.7,24.2c0.1,8.6-2.2,17-6.6,24.4c-4.3,7.4-10.4,13.5-17.8,17.7c-23,13.5-52.7,5.8-66.2-17.3
		c-4.4-7.5-6.7-16.1-6.6-24.8C445.9,210.6,448.1,202.2,452.5,194.9z M463.8,237.3c3.1,5.5,7.6,10,13,13.2c5.4,3.2,11.7,4.9,18,4.9
		c6.3,0.1,12.4-1.6,17.8-4.8c5.4-3.2,9.8-7.7,12.8-13.2c6.3-11.4,6.2-25.2-0.1-36.5c-3-5.5-7.5-10.1-12.9-13.3
		c-5.4-3.2-11.6-4.9-17.9-4.9c-6.3-0.1-12.5,1.7-17.9,4.9c-5.4,3.2-9.9,7.9-12.9,13.4c-3.1,5.6-4.7,11.9-4.7,18.3
		C459,225.6,460.7,231.8,463.8,237.3L463.8,237.3z"/>
	<path class="st0" d="M622.7,184c-3.5-1.1-7.2-1.7-10.9-1.7c-5.2,0-9.3,1.2-12.3,3.5c-3,2.2-4.7,5.8-4.5,9.5c0,4,1.8,7.2,5.3,9.7
		c4.7,3.1,9.8,5.6,15.2,7.4c4.3,1.5,8.5,3.4,12.4,5.7c3.5,2.1,6.3,5.1,8.4,8.6c2.2,3.6,3.4,8.3,3.4,13.9c0.1,4.9-1.3,9.7-3.8,13.8
		c-2.6,4.2-6.4,7.6-10.9,9.7c-5.1,2.5-10.8,3.7-16.5,3.5c-5.8,0-11.5-0.9-17-2.8c-5.1-1.7-9.9-4.1-14.3-7.2l5.7-10.1
		c3.6,2.6,7.5,4.7,11.7,6.3c4.1,1.6,8.4,2.5,12.8,2.6c4.8,0.1,9.4-1.3,13.4-4c3.8-2.6,5.7-6.5,5.7-11.7c0.1-4.1-1.7-7.9-4.9-10.5
		c-4.1-3.1-8.6-5.5-13.5-7.3c-4.6-1.7-9-3.7-13.4-6c-3.6-2-6.7-4.7-9.2-8c-2.6-3.7-4-8.2-3.8-12.7c0-7.5,2.6-13.5,7.8-18.1
		c5.2-4.6,12-7,20.3-7.2c10-0.1,19.9,2.5,28.6,7.6l-4.9,9.9C630.1,186.6,626.5,185.1,622.7,184z"/>
	<path class="st0" d="M324.6,65.3l-1-1c-15.6-16.2-15.6-41.9,0-58.2l1-1l1,1c15.7,16.2,15.7,42,0,58.2L324.6,65.3z M324.6,9
		c-13.4,14.9-13.4,37.6,0,52.5C338,46.6,338,23.9,324.6,9z"/>
	<path class="st0" d="M325.6,65.1l-1.3-0.4c-21.7-6.2-34.5-28.5-29.1-50.4l0.4-1.3l1.3,0.4c21.7,6.2,34.5,28.5,29.1,50.4L325.6,65.1
		z M297.4,16.3c-4.1,19.6,7.2,39.2,26.2,45.5C327.8,42.1,316.5,22.5,297.4,16.3z"/>
	<path class="st0" d="M314.8,66c-7.3,0-14.6-1.9-20.9-5.6l0,0c-9.4-5.4-16.4-14.3-19.4-24.7l-0.4-1.3l1.4-0.3
		c21.9-5.4,44.2,7.4,50.4,29.1l0.4,1.3l-1.3,0.3C321.6,65.6,318.2,66,314.8,66z M295.2,58.1c8.4,4.9,18.3,6.4,27.8,4.4
		c-6.2-19.1-25.8-30.4-45.4-26.3C280.5,45.4,286.8,53.2,295.2,58.1L295.2,58.1z"/>
	<path class="st0" d="M296.4,76.1c-10.9,0-21.3-4.2-29.1-11.7l-1-1l1-1c16.2-15.7,42-15.7,58.2,0l1,1l-1,1
		C317.7,71.9,307.3,76.1,296.4,76.1z M270.2,63.4c14.9,13.4,37.6,13.4,52.5,0C307.7,50,285.1,50,270.2,63.4z"/>
	<path class="st0" d="M285.6,94.1c-3.4,0-6.8-0.4-10.1-1.2l-1.3-0.3l0.4-1.3c6.2-21.7,28.5-34.5,50.4-29.1l1.3,0.3l-0.4,1.3
		c-3,10.4-10,19.3-19.4,24.7l0,0C300.2,92.2,293,94.1,285.6,94.1z M277.5,90.6c9.5,2,19.4,0.4,27.8-4.4l0,0
		c8.4-4.8,14.7-12.6,17.7-21.8C303.3,60.3,283.8,71.6,277.5,90.6z"/>
	<path class="st0" d="M295.5,113.9l-0.3-1.3c-5.4-21.9,7.4-44.2,29.1-50.4l1.3-0.4l0.3,1.3c5.4,21.9-7.4,44.1-29.1,50.4L295.5,113.9
		z M323.7,65.1c-19.1,6.2-30.4,25.8-26.2,45.5c9.2-3,17-9.3,21.8-17.7l0,0C324.1,84.5,325.7,74.6,323.7,65.1L323.7,65.1z"/>
	<path class="st0" d="M324.6,121.7l-1-1c-15.6-16.2-15.6-41.9,0-58.2l1-1l1,1c15.7,16.2,15.7,42,0,58.2L324.6,121.7z M324.6,65.4
		c-13.4,14.9-13.4,37.6,0,52.5C338,102.9,338,80.3,324.6,65.4z"/>
	<path class="st0" d="M353.7,113.9l-1.3-0.4c-21.7-6.3-34.5-28.5-29.1-50.4l0.3-1.3l1.3,0.4c10.4,3,19.3,9.9,24.7,19.3l0,0
		c5.4,9.4,7,20.5,4.4,31.1L353.7,113.9z M325.6,65.1c-4.1,19.6,7.2,39.2,26.2,45.5C355.9,90.9,344.6,71.4,325.6,65.1z"/>
	<path class="st0" d="M363.6,94.1c-18.7,0-35.1-12.4-40.2-30.3l-0.4-1.3l1.3-0.3c10.5-2.6,21.7-1.1,31.1,4.4l0,0
		c9.4,5.4,16.3,14.3,19.3,24.7l0.4,1.3l-1.3,0.3C370.4,93.7,367,94.1,363.6,94.1z M326.3,64.4c6.2,19.1,25.8,30.4,45.5,26.2
		c-3-9.2-9.3-17-17.7-21.8l0,0C345.6,64,335.8,62.4,326.3,64.4z"/>
	<path class="st0" d="M352.8,76.1c-10.9,0-21.3-4.2-29.1-11.7l-1-1l1-1c16.2-15.7,42-15.7,58.2,0l1,1l-1,1
		C374.1,71.9,363.6,76.1,352.8,76.1z M326.5,63.4c14.9,13.4,37.6,13.4,52.5,0C364.1,50,341.4,50,326.5,63.4z"/>
	<path class="st0" d="M334.4,66c-3.4,0-6.8-0.4-10.1-1.2l-1.3-0.3l0.4-1.3c3-10.4,9.9-19.3,19.3-24.7l0,0c9.4-5.4,20.5-7,31.1-4.4
		l1.3,0.3l-0.4,1.3C369.5,53.6,353.1,65.9,334.4,66z M326.3,62.5c19.6,4.1,39.2-7.2,45.5-26.2c-9.5-2-19.4-0.4-27.8,4.4l0,0
		C335.6,45.5,329.3,53.3,326.3,62.5L326.3,62.5z"/>
	<path class="st0" d="M323.7,65.1l-0.3-1.3c-5.4-21.9,7.4-44.1,29.1-50.4l1.3-0.4l0.3,1.3c5.4,21.9-7.4,44.1-29.1,50.4L323.7,65.1z
		 M351.8,16.3c-19.1,6.2-30.4,25.8-26.2,45.5C344.6,55.5,355.9,35.9,351.8,16.3z"/>
	<path class="st0" d="M324.6,65.3l-1-1c-15.6-16.2-15.6-41.9,0-58.2l1-1l1,1c15.7,16.2,15.7,42,0,58.2L324.6,65.3z M324.6,9
		c-13.4,14.9-13.4,37.6,0,52.5C338,46.6,338,23.9,324.6,9z"/>
	<path class="st0" d="M325.6,65.1l-1.3-0.4c-21.7-6.2-34.5-28.5-29.1-50.4l0.4-1.3l1.3,0.4c21.7,6.2,34.5,28.5,29.1,50.4L325.6,65.1
		z M297.4,16.3c-4.1,19.6,7.2,39.2,26.2,45.5C327.8,42.1,316.5,22.5,297.4,16.3z"/>
	<path class="st0" d="M314.8,66c-7.3,0-14.6-1.9-20.9-5.6l0,0c-9.4-5.4-16.4-14.3-19.4-24.7l-0.4-1.3l1.4-0.3
		c21.9-5.4,44.2,7.4,50.4,29.1l0.4,1.3l-1.3,0.3C321.6,65.6,318.2,66,314.8,66z M295.2,58.1c8.4,4.9,18.3,6.4,27.8,4.4
		c-6.2-19.1-25.8-30.4-45.4-26.3C280.5,45.4,286.8,53.2,295.2,58.1L295.2,58.1z"/>
	<path class="st0" d="M296.4,76.1c-10.9,0-21.3-4.2-29.1-11.7l-1-1l1-1c16.2-15.7,42-15.7,58.2,0l1,1l-1,1
		C317.7,71.9,307.3,76.1,296.4,76.1z M270.2,63.4c14.9,13.4,37.6,13.4,52.5,0C307.7,50,285.1,50,270.2,63.4z"/>
	<path class="st0" d="M285.6,94.1c-3.4,0-6.8-0.4-10.1-1.2l-1.3-0.3l0.4-1.3c6.2-21.7,28.5-34.5,50.4-29.1l1.3,0.3l-0.4,1.3
		c-3,10.4-10,19.3-19.4,24.7l0,0C300.2,92.2,293,94.1,285.6,94.1z M277.5,90.6c9.5,2,19.4,0.4,27.8-4.4l0,0
		c8.4-4.8,14.7-12.6,17.7-21.8C303.3,60.3,283.8,71.6,277.5,90.6z"/>
	<path class="st0" d="M295.5,113.9l-0.3-1.3c-5.4-21.9,7.4-44.2,29.1-50.4l1.3-0.4l0.3,1.3c5.4,21.9-7.4,44.1-29.1,50.4L295.5,113.9
		z M323.7,65.1c-19.1,6.2-30.4,25.8-26.2,45.5c9.2-3,17-9.3,21.8-17.7l0,0C324.1,84.5,325.7,74.6,323.7,65.1L323.7,65.1z"/>
	<path class="st0" d="M324.6,121.7l-1-1c-15.6-16.2-15.6-41.9,0-58.2l1-1l1,1c15.7,16.2,15.7,42,0,58.2L324.6,121.7z M324.6,65.4
		c-13.4,14.9-13.4,37.6,0,52.5C338,102.9,338,80.3,324.6,65.4z"/>
	<path class="st0" d="M353.7,113.9l-1.3-0.4c-21.7-6.3-34.5-28.5-29.1-50.4l0.3-1.3l1.3,0.4c10.4,3,19.3,9.9,24.7,19.3l0,0
		c5.4,9.4,7,20.5,4.4,31.1L353.7,113.9z M325.6,65.1c-4.1,19.6,7.2,39.2,26.2,45.5C355.9,90.9,344.6,71.4,325.6,65.1z"/>
	<path class="st0" d="M363.6,94.1c-18.7,0-35.1-12.4-40.2-30.3l-0.4-1.3l1.3-0.3c10.5-2.6,21.7-1.1,31.1,4.4l0,0
		c9.4,5.4,16.3,14.3,19.3,24.7l0.4,1.3l-1.3,0.3C370.4,93.7,367,94.1,363.6,94.1z M326.3,64.4c6.2,19.1,25.8,30.4,45.5,26.2
		c-3-9.2-9.3-17-17.7-21.8l0,0C345.6,64,335.8,62.4,326.3,64.4z"/>
	<path class="st0" d="M352.8,76.1c-10.9,0-21.3-4.2-29.1-11.7l-1-1l1-1c16.2-15.7,42-15.7,58.2,0l1,1l-1,1
		C374.1,71.9,363.6,76.1,352.8,76.1z M326.5,63.4c14.9,13.4,37.6,13.4,52.5,0C364.1,50,341.4,50,326.5,63.4z"/>
	<path class="st0" d="M334.4,66c-3.4,0-6.8-0.4-10.1-1.2l-1.3-0.3l0.4-1.3c3-10.4,9.9-19.3,19.3-24.7l0,0c9.4-5.4,20.5-7,31.1-4.4
		l1.3,0.3l-0.4,1.3C369.5,53.6,353.1,65.9,334.4,66z M326.3,62.5c19.6,4.1,39.2-7.2,45.5-26.2c-9.5-2-19.4-0.4-27.8,4.4l0,0
		C335.6,45.5,329.3,53.3,326.3,62.5L326.3,62.5z"/>
	<path class="st0" d="M323.7,65.1l-0.3-1.3c-5.4-21.9,7.4-44.1,29.1-50.4l1.3-0.4l0.3,1.3c5.4,21.9-7.4,44.1-29.1,50.4L323.7,65.1z
		 M351.8,16.3c-19.1,6.2-30.4,25.8-26.2,45.5C344.6,55.5,355.9,35.9,351.8,16.3z"/>
</g>
</svg>
