<svg xmlns="http://www.w3.org/2000/svg" viewBox="0 0 83 73.78"><defs><style>.cls-1{fill:#ed2127;}</style></defs><title>Asset 9</title><g id="Layer_2" data-name="Layer 2"><g id="Layer_1-2" data-name="Layer 1"><path class="cls-1" d="M59.1.34a1.61,1.61,0,0,1,.5,1.1v18.8a1.56,1.56,0,0,1-.8,1.3,1.58,1.58,0,0,1-1.5-.1L54.2,19h0v.1l-.9,1.4a.1.1,0,0,1-.1.1l-1.1,1.5a.1.1,0,0,1-.1.1l-1.1,1.4-1.1,1.2h0l-1.2,1.3v.1l-1.1,1.1h0l-1.3,1.2-.1.1-.4.3H63.4v-5.3a1.56,1.56,0,0,1,.8-1.3,1.37,1.37,0,0,1,1.5.2l16.8,13.3a1.46,1.46,0,0,1,0,2.2L65.8,51.44a1.6,1.6,0,0,1-1.5.2,1.34,1.34,0,0,1-.8-1.3V45H45.7l.3.3.1.1,1.1,1h0l1.9,1.9.1.1.9,1h0l1.1,1.3h0l1.1,1.4a.1.1,0,0,0,.1.1l.9,1.4h0l.8,1.3,3.1-2.4a1.6,1.6,0,0,1,1.5-.2,1.34,1.34,0,0,1,.8,1.3v18.7a1.61,1.61,0,0,1-.5,1.1,1.31,1.31,0,0,1-1.2.3l-18.4-4.3a1.53,1.53,0,0,1-1.1-1.1,1.47,1.47,0,0,1,.5-1.4L42.5,64l-.3-.6-1-1.6-1.5-2.1-1-1.3-2.1-2.3-1.4-1.5-1.1-1.1-1.8-1.6-3.4-2.8-1.8-1.4L23,44.94H1.4a1.28,1.28,0,0,1-1-.4,1.28,1.28,0,0,1-.4-1V30.34a1.37,1.37,0,0,1,1.4-1.4H23.1l1.5-1,1.7-1.2,1.9-1.4L31.1,23l1.9-1.7,1.2-1.1,1.1-1.1,1.4-1.4,1.3-1.4.7-.8.8-.9.7-.9,1.4-2,.7-1.1.3-.8L39,6.94a1.47,1.47,0,0,1-.5-1.4,1.53,1.53,0,0,1,1.1-1.1L57.9,0A1.25,1.25,0,0,1,59.1.34Z"/></g></g></svg>