<svg xmlns="http://www.w3.org/2000/svg" viewBox="0 0 74.25 87.64"><defs><style>.cls-1{fill:#ed2127;}</style></defs><title>Asset 12</title><g id="Layer_2" data-name="Layer 2"><g id="Layer_1-2" data-name="Layer 1"><path class="cls-1" d="M53.24,42.7H21c-5.39,0-9.86-1.56-12.94-4.52a13.82,13.82,0,0,1,0-19.79c3.08-3,7.55-4.51,12.94-4.51h31l-7.93,8.8a1.21,1.21,0,0,0-.32.88,1.24,1.24,0,0,0,.4.84,1.21,1.21,0,0,0,1.72-.1l9.79-10.86a1.21,1.21,0,0,0,0-1.63l-8.9-9.9a1.24,1.24,0,0,0-.93-.41,1.21,1.21,0,0,0-.89,2l7.14,8H21C8.21,11.46,1.5,19.93,1.5,28.29S8.21,45.13,21,45.13H53.24c5.38,0,9.85,1.55,12.92,4.49a13.74,13.74,0,0,1,.23,19.49c-3.06,3.06-7.58,4.69-13.07,4.69H22.09l8-8.85A1.21,1.21,0,0,0,30,63.23a1.21,1.21,0,0,0-.88-.31,1.25,1.25,0,0,0-.85.41L18.47,74.19a1.2,1.2,0,0,0,0,1.59l8.92,9.94a1.24,1.24,0,0,0,.85.42h.08a1.22,1.22,0,0,0,.81-.31,1.18,1.18,0,0,0,.4-.85,1.25,1.25,0,0,0-.17-.68h0l-7.27-8.08H53.32c7.66,0,12.24-3,14.74-5.48a15.85,15.85,0,0,0,4.69-11.28C72.74,51.13,66,42.7,53.24,42.7Z"/><path class="cls-1" d="M28.29,87.64H28.1a2.78,2.78,0,0,1-1.87-.94l-8.91-9.92a2.72,2.72,0,0,1,0-3.59l9.79-10.87a2.74,2.74,0,0,1,1.89-.9A2.72,2.72,0,0,1,31.87,64a2.7,2.7,0,0,1-.7,1.95L25.46,72.3H53.32c5.08,0,9.24-1.47,12-4.25a12.24,12.24,0,0,0-.21-17.35c-2.78-2.66-6.89-4.07-11.88-4.07H21C7.22,46.63,0,37.4,0,28.29S7.22,10,21,10H48.77L43.88,4.51a2.65,2.65,0,0,1-.46-2.87A2.68,2.68,0,0,1,45.87,0,2.82,2.82,0,0,1,48,.92l8.88,9.89a2.7,2.7,0,0,1,0,3.64L47.05,25.31a2.8,2.8,0,0,1-1.86.9,2.68,2.68,0,0,1-2-.71,2.73,2.73,0,0,1-.89-1.88,2.69,2.69,0,0,1,.73-2l5.65-6.27H21c-5,0-9.11,1.41-11.9,4.1a12.32,12.32,0,0,0,0,17.62C11.92,39.78,16,41.2,21,41.2H53.24c13.78,0,21,9.18,21,18.25A17.33,17.33,0,0,1,69.12,71.8c-2.7,2.7-7.63,5.92-15.8,5.92H25.46l4.43,5.08a4,4,0,0,1,1,3h0A2.83,2.83,0,0,1,30.1,87,2.73,2.73,0,0,1,28.29,87.64Zm17-64Zm-.44-.38h0Zm.9-20.39h0Zm.38-.43,0,0Z"/></g></g></svg>