<svg xmlns="http://www.w3.org/2000/svg" viewBox="0 0 90.67 90.66"><defs><style>.cls-1{fill:#ed2127;}</style></defs><title>Asset 8</title><g id="Layer_2" data-name="Layer 2"><g id="Layer_1-2" data-name="Layer 1"><path class="cls-1" d="M45.33,51a5.67,5.67,0,1,1-5.66-5.66A5.66,5.66,0,0,1,45.33,51"/><path class="cls-1" d="M2.83,90.66a2.83,2.83,0,0,1-2-4.86l8.73-8.5a2.83,2.83,0,1,1,3.95,4.06l-8.73,8.5a2.86,2.86,0,0,1-2,.8Zm73.67,0a2.86,2.86,0,0,1-2-.86L66.2,81.3a2.83,2.83,0,0,1,4.06-4l8.27,8.5a2.83,2.83,0,0,1-2,4.81Zm-5.67-68A2.83,2.83,0,0,1,68,19.83v-8.5a2.83,2.83,0,0,1,5.66,0v8.5A2.82,2.82,0,0,1,70.83,22.66Zm8.5,0h-8.5a2.83,2.83,0,1,1,0-5.66h7.33l4.89-4.89L80.9,11a2.79,2.79,0,0,1-1.27-1.27L78.56,7.62l-5.72,5.71a2.83,2.83,0,0,1-4-4l8.5-8.5a2.84,2.84,0,0,1,4.54.74l2.41,4.82L89.1,8.8a2.84,2.84,0,0,1,.74,4.54l-8.5,8.5a2.84,2.84,0,0,1-2,.83ZM39.67,53.83a2.84,2.84,0,0,1-2-4.84L68.83,17.83a2.83,2.83,0,0,1,4,4L41.67,53a2.86,2.86,0,0,1-2,.83Zm0,14.16a17,17,0,1,1,12-29,2.83,2.83,0,1,1-4,4A11.33,11.33,0,1,0,51,51a2.84,2.84,0,0,1,5.67,0,17,17,0,0,1-17,17Zm0,11.34A28.34,28.34,0,1,1,59.7,31a2.83,2.83,0,1,1-4,4,23.25,23.25,0,1,0,5,7.63,2.83,2.83,0,1,1,5.25-2.13A28,28,0,0,1,68,51,28.37,28.37,0,0,1,39.67,79.33Zm0,11.33A39.67,39.67,0,1,1,67.71,23a2.83,2.83,0,0,1-4,4,34.57,34.57,0,1,0,5.6,7.48,2.83,2.83,0,1,1,4.94-2.77,39.6,39.6,0,0,1-34.58,59Z"/></g></g></svg>