<svg xmlns="http://www.w3.org/2000/svg" viewBox="0 0 136.19 134.89"><defs><style>.cls-1,.cls-2{fill:#ed2127;}.cls-1{stroke:#ed2127;stroke-miterlimit:10;}</style></defs><title>Asset 11</title><g id="Layer_2" data-name="Layer 2"><g id="Layer_1-2" data-name="Layer 1"><path class="cls-1" d="M95.87,107.39H50.25a6,6,0,0,0,.45-6.74l-9.53-17c5.48-3.33,12.77-6.39,27-6.39a5.75,5.75,0,0,0,4.23.54,4.2,4.2,0,0,0,2.34-2.88c1-4-1.89-12.41-7.29-21.32-5.85-9.54-14.31-18.63-19-15.93a3.91,3.91,0,0,0-1.79,2.61,8.72,8.72,0,0,0-.27,2.07C37.3,55.75,29.56,60.79,22.63,65.2c-.18.09-3.69,2.34-4.86,3.15-5.39,3.77-5.48,11.33-2.52,16.37,2.07,3.51,7.2,6,11.43,6a10.14,10.14,0,0,0,2.88-.45,3.2,3.2,0,0,0,.81-.36S40.27,107,40.45,107.3H11.3l-6.19.09h-1V60.61H19.69a1.8,1.8,0,0,0,0-3.6H4.1a3.61,3.61,0,0,0-3.6,3.6v61.18a3.61,3.61,0,0,0,3.6,3.6H43.69v5.4H35.14a1.8,1.8,0,0,0,0,3.6H72a1.8,1.8,0,0,0,0-3.6H63.48v-5.4h39.59a3.61,3.61,0,0,0,3.6-3.6V60.61a3.61,3.61,0,0,0-3.6-3.6H97.58a1.8,1.8,0,0,0,0,3.6h5.49v46.78ZM50.25,40.81h.18c1.53,0,7.29,4,13.86,14.76C71.13,66.64,71.85,73.65,71,74.46c-.81.27-3.78-1.44-7.83-6.11a13.17,13.17,0,0,0-7-17.19,12.72,12.72,0,0,0-4-1c-2.34-5.49-2.43-8.82-1.89-9.36ZM60.42,64.93q-1.62-2.3-3.51-5.13c-1.26-2-2.25-3.87-3.15-5.58a9.33,9.33,0,0,1,6.66,10.71ZM47.28,47.38A58.63,58.63,0,0,0,53.94,61.6a62.44,62.44,0,0,0,9.54,12.15,64,64,0,0,0-6.39.63,66.64,66.64,0,0,1-7.74-10.26A58.81,58.81,0,0,1,43.6,52.06c1.16-1.35,2.42-3,3.68-4.68ZM40.9,55.21A68,68,0,0,0,46.29,66a73.93,73.93,0,0,0,6.57,9.18,45.75,45.75,0,0,0-17.18,7.73,15.65,15.65,0,0,1-1.62,1l-8.91-16.1A72.89,72.89,0,0,0,40.9,55.21ZM28.3,87c-2.79,1.08-8.28-1.17-10-4-2.07-3.6-2.16-9.08,1.53-11.6.72-.54,1.44-1,2.25-1.53L31,85.71A18.78,18.78,0,0,1,28.3,87Zm5.31,1.44c1.35-.81,2.7-1.62,4-2.52.18-.09.27-.18.45-.27s9.53,16.83,9.53,16.83a2.42,2.42,0,0,1-1,3.42,2.63,2.63,0,0,1-3.59-1Zm26.27,42.38H47.28v-5.4h12.6Zm43.19-9H4.1V111h99Z"/><path class="cls-1" d="M94.07,118.19h3.6a1.8,1.8,0,0,0,0-3.6h-3.6a1.8,1.8,0,1,0,0,3.6Z"/><path class="cls-1" d="M77,59.62l10.17,4.95a1.8,1.8,0,0,0,2.43-.81l4.86-10.53a5.77,5.77,0,0,0-2.7-7.56,5.55,5.55,0,0,0-7.47,2.52c0,.09,0,.09-.09.18L83.45,50l-1.53-.72a5.69,5.69,0,0,0-7.56,2.61.09.09,0,0,1-.09.09A5.86,5.86,0,0,0,77,59.62Zm.54-6.21a2.93,2.93,0,0,1,1.17-1.17,1.53,1.53,0,0,1,.63-.09,3.83,3.83,0,0,1,1,.18l3.15,1.53a1.8,1.8,0,0,0,2.43-.81l1.53-3.24a2,2,0,0,1,1.17-1.08,1.81,1.81,0,0,1,1.53.09,2.13,2.13,0,0,1,1.08,1.26,2,2,0,0,1-.09,1.62L87,60.52l-8.55-4.14a2.45,2.45,0,0,1-.9-3Z"/><path class="cls-2" d="M133.21,4.7A6.91,6.91,0,0,0,124.43.38L104.65,6.79a6.67,6.67,0,0,0-4,3.48,7,7,0,0,0-.42,5.29l2.65,7.8a6.89,6.89,0,0,0,8.78,4.32l19.78-6.41a6.67,6.67,0,0,0,4-3.48,7,7,0,0,0,.41-5.29Zm-2.79,10.45a1.47,1.47,0,0,1-.83.69l-19.65,6.41a1.45,1.45,0,0,1-1.81-.84l-2.64-7.8a.85.85,0,0,1,.14-1,1.41,1.41,0,0,1,.83-.7L126.1,5.53h.42a1.32,1.32,0,0,1,1.25,1l2.65,7.8a.88.88,0,0,1,0,.84Z"/><path class="cls-2" d="M115.52,11.8l.83,2.65,1,2.65,4.46-4.46-3.21-.42Z"/><path class="cls-2" d="M68.22,39.74a4.65,4.65,0,0,0,3.72,1.69h16.8a5.05,5.05,0,0,0,5.07-5.07V21.93a5.06,5.06,0,0,0-5.07-5.07H71.94a5.05,5.05,0,0,0-5.07,5.07V36.47a5.59,5.59,0,0,0,.9,2.93,1.63,1.63,0,0,1,.45.34Zm5.3-2.82L78,30.73l1.35,2.59,1.8,3.6Zm15.78-.45a.53.53,0,0,1-.56.57h-2.6l-2-3.95,2-1.58,3,3.72v1.24ZM71.49,21.93a.54.54,0,0,1,.56-.56h16.8a.51.51,0,0,1,.45.56V28l-1-1.24a2.3,2.3,0,0,0-3.16-.34l-3,2.48L80.4,25.54a2.26,2.26,0,0,0-3.05-1,1.49,1.49,0,0,0-.79.67l-5.07,7Z"/></g></g></svg>