<svg xmlns="http://www.w3.org/2000/svg" viewBox="0 0 93.63 90.48"><defs><style>.cls-1{fill:#ed2127;}</style></defs><title>Asset 7</title><g id="Layer_2" data-name="Layer 2"><g id="Layer_1-2" data-name="Layer 1"><path class="cls-1" d="M74.86,15.26a40,40,0,0,0-3.75-3.95L71,11.2,70.8,11a39,39,0,0,0-3.2-2.64l-.13-.1a42.37,42.37,0,0,0-50.34,0l-.13.1c-1.1.87-2.2,1.71-3.2,2.64a.93.93,0,0,0-.18.16l-.12.11a42,42,0,0,0-3.7,4,42.36,42.36,0,0,0-.31,53.82,38.63,38.63,0,0,0,4,4.29,4.18,4.18,0,0,0,.44.4h0A42.42,42.42,0,0,0,54.39,83a.73.73,0,0,0,.5-.9.74.74,0,0,0-.57-.52,23.71,23.71,0,0,1-9-4,31.81,31.81,0,0,1-4.18-3.85.73.73,0,0,0-1-.12.75.75,0,0,0-.27.59v3.48C35,76.47,30.68,71.93,27.67,65.32a27.17,27.17,0,0,1,7.42-3.26.75.75,0,0,0,.55-.81,21.47,21.47,0,0,1-.19-2.89.73.73,0,0,0-.74-.72.5.5,0,0,0-.17,0A31.27,31.27,0,0,0,26,61.17a57.4,57.4,0,0,1-2.84-15.75H38.72a.76.76,0,0,0,.61-.33,24.1,24.1,0,0,1,5.24-5.66.76.76,0,0,0,.29-.57V29h0A31.94,31.94,0,0,0,59,24.35v.13a56.88,56.88,0,0,1,2,9.41.74.74,0,0,0,.66.64c.85.09,1.68.23,2.5.4a.73.73,0,0,0,.87-.56.7.7,0,0,0,0-.25,58,58,0,0,0-2.75-12L62.25,22h.06A32.7,32.7,0,0,0,67.22,17l.12-.15c.29-.37.57-.76.86-1.15a34.12,34.12,0,0,1,2.65,2.86,37.11,37.11,0,0,1,8.57,21.76H76.8a.75.75,0,0,0-.74.75.8.8,0,0,0,.21.5,23.67,23.67,0,0,1,3,3.83h.09v.13a23.73,23.73,0,0,1,2.8,6.3.73.73,0,0,0,.9.52.75.75,0,0,0,.53-.52A42.46,42.46,0,0,0,74.86,15.26ZM20.09,12.52a.52.52,0,0,0,.11-.1A37.28,37.28,0,0,1,32.35,6.51,23.89,23.89,0,0,0,29.62,9.1a34,34,0,0,0-5.53,8.57L24,17.59a25.93,25.93,0,0,1-3.29-3.5c-.06-.06-.11-.13-.16-.19-.28-.36-.55-.73-.82-1.1Zm-6.37,6a34.24,34.24,0,0,1,2.66-2.86c.28.39.56.77.87,1.15l.11.15a32.24,32.24,0,0,0,4.91,4.93h.06l-.06.16A60.58,60.58,0,0,0,19,40.24H5.17a36.85,36.85,0,0,1,8.55-21.68Zm4,49.55c-.36.41-.69.84-1,1.27a34.19,34.19,0,0,1-3.28-3.53A37.08,37.08,0,0,1,5.23,45.4H19.08a59.83,59.83,0,0,0,3.5,18.05,31,31,0,0,0-4.78,4.66Zm6.61-.43a33.88,33.88,0,0,0,5.25,7.94,23.3,23.3,0,0,0,2.76,2.68,37.22,37.22,0,0,1-11.92-5.77l-.32-.23c.32-.43.66-.85,1-1.26a26.91,26.91,0,0,1,3.26-3.32ZM39.8,40.32H23.06a58.39,58.39,0,0,1,2.53-15.86v-.13A31.61,31.61,0,0,0,39.8,28.94Zm0-15.84a27.27,27.27,0,0,1-12.6-4.43C30.14,13.13,34.46,8.26,39.38,6.9h0l.37-.1Zm5.09,0h0V6.8h0l.38.1h0c4.92,1.4,9.23,6.23,12.17,13.15a27.47,27.47,0,0,1-12.58,4.43ZM64.07,13.89l-.15.19a25.78,25.78,0,0,1-3.28,3.49l-.09.08A35,35,0,0,0,55,9.11h0a23.13,23.13,0,0,0-2.73-2.6,37.43,37.43,0,0,1,12.12,5.91.32.32,0,0,0,.13.1l.34.27C64.62,13.16,64.36,13.53,64.07,13.89Z"/><path class="cls-1" d="M93.62,84.75a5.3,5.3,0,0,0-2-3.76L76.08,69a.88.88,0,0,1-.28-1.1,19.23,19.23,0,0,0-1.5-21.57,19,19,0,0,0-2.07-2.23,19.76,19.76,0,0,0-3.57-2.6,18.36,18.36,0,0,0-2.28-1.1,19.22,19.22,0,0,0-15.29.43,19,19,0,0,0-6,4.4,17.92,17.92,0,0,0-2.47,3.34,18.9,18.9,0,0,0-2.43,7.06,19.21,19.21,0,0,0,6,16.7l.11.1a21.19,21.19,0,0,0,1.89,1.51A19.23,19.23,0,0,0,70.09,74a.88.88,0,0,1,1.14.14l13.2,14.59a5.22,5.22,0,0,0,3.9,1.74h0a5.24,5.24,0,0,0,3.88-1.71,5.36,5.36,0,0,0,1.4-3.61A1.36,1.36,0,0,0,93.62,84.75Zm-46.23-25a8.44,8.44,0,0,1-.09-1,11.6,11.6,0,0,1,.26-3,11.94,11.94,0,0,1,14.16-9.18c.24,0,.47.11.71.18a12.25,12.25,0,0,1,3.5,1.62,11.94,11.94,0,0,1-6.21,21.8,15.32,15.32,0,0,1-1.66,0,12.28,12.28,0,0,1-3.72-1,11.94,11.94,0,0,1-7-9.45Z"/></g></g></svg>