<?xml version="1.0" encoding="utf-8"?>
<!-- Generator: Adobe Illustrator 21.0.0, SVG Export Plug-In . SVG Version: 6.00 Build 0)  -->
<svg version="1.1" id="Layer_1" xmlns="http://www.w3.org/2000/svg" xmlns:xlink="http://www.w3.org/1999/xlink" x="0px" y="0px"
	 viewBox="0 0 1275 395" style="enable-background:new 0 0 1275 395;" xml:space="preserve">
<style type="text/css">
	.st0{fill:#ED1C24;}
</style>
<g>
	<path class="st0" d="M1.3,204.5v-1c0-103.5,78-188.2,189.8-188.2c68.6,0,109.7,22.9,143.5,56.1l-51,58.8
		c-28-25.6-56.6-41.2-93-41.2C129.3,89,85,140,85,202.4v1c0,62.4,43.2,114.4,105.6,114.4c41.6,0,67.1-16.6,95.7-42.6l51,51.4
		c-37.4,40.1-79.1,65-149.3,65C80.9,391.6,1.3,309,1.3,204.5z"/>
	<path class="st0" d="M348.2,247.6v-1c0-79.6,56.6-145.1,137.8-145.1c93.1,0,135.8,72.3,135.8,151.3c0,6.2-0.6,13.5-1,20.8h-194
		c7.8,35.9,32.7,54.6,68.1,54.6c26.5,0,45.8-8.3,67.6-28.6l45.2,40c-26,32.2-63.4,52-113.9,52C410,391.6,348.2,332.9,348.2,247.6z
		 M544.7,224.2c-4.7-35.4-25.5-59.3-58.8-59.3c-32.7,0-54.1,23.4-60.3,59.3H544.7z"/>
	<path class="st0" d="M668,174.3h-32.8v-65H668V91.6c0-30.7,7.8-53,22.4-67.6C705,9.4,726.2,2.2,754.3,2.2c25,0,41.5,3.1,56.1,7.8
		v65.5c-11.4-4.2-22.4-6.7-35.9-6.7c-18.2,0-28.6,9.4-28.6,30.1v10.9h64v64.5H747v211.1h-79V174.3z"/>
	<path class="st0" d="M802.6,305.3v-1c0-60.9,46.3-88.9,112.3-88.9c28.1,0,48.4,4.7,68.1,11.5v-4.7c0-32.8-20.3-50.9-59.8-50.9
		c-30.1,0-51.5,5.7-76.9,15L826.5,126c30.7-13.5,60.8-22.4,108.2-22.4c43.2,0,74.4,11.4,94.1,31.2c20.8,20.8,30.2,51.5,30.2,88.9
		v161.7h-76.4v-30.1c-19.3,21.3-45.8,35.3-84.2,35.3C845.7,390.6,802.6,360.5,802.6,305.3z M984.1,287.1v-14
		c-13.5-6.2-31.2-10.4-50.4-10.4c-33.8,0-54.6,13.5-54.6,38.5v1c0,21.3,17.7,33.8,43.2,33.8C959,336,984.1,315.7,984.1,287.1z"/>
	<path class="st0" d="M1101.1,106.7h79v56.2c16.1-38.5,42.1-63.4,88.9-61.4v82.7h-4.2c-52.5,0-84.7,31.7-84.7,98.3v102.9h-79
		L1101.1,106.7L1101.1,106.7z"/>
</g>
</svg>
