<svg xmlns="http://www.w3.org/2000/svg" viewBox="0 0 90 90"><defs><style>.cls-1{fill:#ed2127;}</style></defs><title>crmsystems</title><g id="Layer_2" data-name="Layer 2"><g id="Services"><g id="SqHeMy"><path class="cls-1" d="M0,52.2V37.8c2.26-.48,4.49-1.08,6.77-1.41s3.84-1.44,4.37-3.93c.3-1.43,1.28-2.7,1.7-4.12a3.74,3.74,0,0,0-.12-2.58c-1.37-2.56-2.93-5-4.49-7.63,3.08-3.08,6.06-6.12,9.14-9a2.09,2.09,0,0,1,1.89,0,41.25,41.25,0,0,1,5,2.95c1.75,1.22,3.27,1.6,5.24.29,1.39-.93,3.18-1.24,4.75-1.94a2.44,2.44,0,0,0,1.32-1.24c.81-3,1.49-6.08,2.21-9.13H52.2c.68,3.05,1.3,6.12,2.08,9.15.12.49.86.93,1.42,1.18a56.83,56.83,0,0,0,5.8,2.36,4,4,0,0,0,2.76-.12c2.56-1.34,5-2.9,7.6-4.44,3.06,3.09,6,6,8.91,9.08a2.25,2.25,0,0,1,.14,2.06,37.22,37.22,0,0,1-3.06,5.21,3.86,3.86,0,0,0-.27,4.84,45.29,45.29,0,0,1,2,5,2.41,2.41,0,0,0,1.24,1.32c3,.81,6.08,1.48,9.13,2.2V52.2c-2.32.51-4.64,1.09-7,1.49-2.1.36-3.49,1.18-3.93,3.5-.29,1.5-1.32,2.85-1.77,4.34a4.07,4.07,0,0,0,.08,2.76c1.33,2.57,2.9,5,4.2,7.19l-10.08,10c-2.3-1.35-4.78-2.88-7.34-4.26A3,3,0,0,0,62,77.11c-2.11.75-4.17,1.63-6.2,2.57a2.74,2.74,0,0,0-1.43,1.41C53.55,84,52.9,87,52.2,90h-14c-.61-2.24-1.37-4.45-1.78-6.72S35.15,79.51,32.69,79A11.19,11.19,0,0,1,29,77.43a3.13,3.13,0,0,0-3.84.21C22.94,79.14,20.58,80.42,18,82c-1.59-1.69-3.12-3.34-4.66-5s-4.24-3.2-4.49-5.06,1.76-4.1,3.05-6,1.74-3.54.33-5.64C11.34,59,11,57.23,10.37,55.74A2.47,2.47,0,0,0,9.14,54.4C6.12,53.59,3.05,52.92,0,52.2ZM45,21.13A23.87,23.87,0,1,0,68.87,45,23.8,23.8,0,0,0,45,21.13Z"/></g></g></g></svg>