<svg xmlns="http://www.w3.org/2000/svg" viewBox="0 0 90.39 84.11"><defs><style>.cls-1{fill:#ed2127;}</style></defs><title>design</title><g id="Layer_2" data-name="Layer 2"><g id="Services"><g id="GcpIqH"><path class="cls-1" d="M0,61.56C11.89,40.88,23.5,20.68,35.4,0L70.79,61.54H42.4c1.3,7,10.59,12.87,19.44,12.39,9.28-.51,17.64-9.19,18.35-19.06C81,43,74.26,35.46,60.13,32.63V22.79Q75.88,23.42,84.82,36C97.28,53.4,87.76,78.56,66.94,83.39c-14.67,3.4-30.35-5.5-34.81-19.88-.49-1.59-1.14-2-2.69-2-8.84.07-17.69,0-26.54,0ZM35.4,20.44,17.48,51.61H53.32Z"/></g></g></g></svg>