<svg xmlns="http://www.w3.org/2000/svg" viewBox="0 0 90 90"><defs><style>.cls-1{fill:#ed2127;}</style></defs><title>webdevelopment</title><g id="Layer_2" data-name="Layer 2"><g id="Services"><g id="_5qxyY6" data-name="5qxyY6"><path class="cls-1" d="M90,90H0V0H90Zm-9.16-9.1V27.18H9.12V80.9Zm-53.73-63H80.82V9.11H27.11ZM9.19,9.05v8.8h8.64V9.05Z"/><path class="cls-1" d="M38.24,67l-7.19,5.41L18,54,31.05,35.56,38.24,41c-2.7,3.92-5.27,7.75-8,11.49a2.27,2.27,0,0,0,0,3.13C33,59.27,35.5,63.06,38.24,67Z"/><path class="cls-1" d="M51.76,41l7.18-5.4L72,54,59,72.44,51.75,67c2.71-3.92,5.28-7.76,8-11.5a2.25,2.25,0,0,0,0-3.12C57,48.72,54.5,44.93,51.76,41Z"/></g></g></g></svg>