<svg xmlns="http://www.w3.org/2000/svg" xmlns:xlink="http://www.w3.org/1999/xlink" width="390" height="430" viewBox="0 0 390 430">
  <defs>
    <clipPath id="clip-Home">
      <rect width="390" height="430"/>
    </clipPath>
  </defs>
  <g id="Home" clip-path="url(#clip-Home)">
    <rect width="390" height="430" fill="#fff"/>
    <g id="Group_15" data-name="Group 15" transform="translate(-1490.383 14.37)">
      <g id="Group_1" data-name="Group 1" transform="translate(1521.383 36.63)">
        <path id="Path_1" data-name="Path 1" d="M288.756,0H38.33A38.374,38.374,0,0,0,0,38.33V89.438H25.554V38.33A12.791,12.791,0,0,1,38.33,25.554H288.756A12.791,12.791,0,0,1,301.532,38.33V288.756a12.791,12.791,0,0,1-12.777,12.777H38.33a12.791,12.791,0,0,1-12.777-12.777V237.648H0v51.107a38.374,38.374,0,0,0,38.33,38.33H288.756a38.374,38.374,0,0,0,38.33-38.33V38.33A38.374,38.374,0,0,0,288.756,0Z" fill="#ed1c24"/>
        <path id="Path_2" data-name="Path 2" d="M135.253,272.442l18.069,18.069,79.4-79.4-79.4-79.4-18.069,18.069L183.8,198.337H0V223.89H183.8Z" transform="translate(0 -47.571)" fill="#ed1c24"/>
      </g>
    </g>
  </g>
</svg>
