<?xml version="1.0" encoding="utf-8"?>
<!-- Generator: Adobe Illustrator 22.0.1, SVG Export Plug-In . SVG Version: 6.00 Build 0)  -->
<svg version="1.1" id="Layer_1" xmlns="http://www.w3.org/2000/svg" xmlns:xlink="http://www.w3.org/1999/xlink" x="0px" y="0px"
	 viewBox="0 0 43.8 43.8" style="enable-background:new 0 0 43.8 43.8;" xml:space="preserve">
<style type="text/css">
	.st0{fill:none;stroke:#FFFFFF;stroke-width:0.5;stroke-miterlimit:10;}
	.st1{fill:#FFFFFF;}
</style>
<g>
	<circle class="st0" cx="22.1" cy="22" r="20.5"/>
</g>
<g id="O60nLE_1_">
	<g>
		<path class="st1" d="M16,12c4.1,0,8.2,0,12.3,0c0.1,0,0.3,0,0.4,0.1c2,0.4,3.4,2,3.4,4c0,3.9,0,7.8,0,11.7c0,0.1,0,0.3,0,0.4
			c-0.2,2.1-1.9,3.7-4.1,3.7c-3.9,0-7.8,0-11.7,0c-0.1,0-0.3,0-0.4,0c-1.8-0.2-3.2-1.4-3.6-3.1c0-0.2-0.1-0.4-0.1-0.6
			c0-4.1,0-8.2,0-12.3c0,0,0-0.1,0-0.1c0.2-1.6,1.3-3,2.9-3.5C15.4,12.1,15.7,12.1,16,12z M30.5,21.9c0-2,0-3.9,0-5.9
			c0-1.4-1.1-2.5-2.5-2.5c-3.9,0-7.8,0-11.7,0c-1.4,0-2.5,1.1-2.5,2.5c0,3.9,0,7.8,0,11.7c0,1.4,1.1,2.5,2.5,2.5c3.9,0,7.8,0,11.7,0
			c0.2,0,0.4,0,0.6-0.1c1.1-0.3,1.9-1.3,1.9-2.4C30.5,25.9,30.5,23.9,30.5,21.9z"/>
		<path class="st1" d="M16.4,21.9c0-3.2,2.6-5.7,5.7-5.7c3.2,0,5.7,2.6,5.7,5.7c0,3.2-2.6,5.7-5.7,5.7C19,27.7,16.4,25.1,16.4,21.9z
			 M22.1,17.8c-2.3,0-4.2,1.9-4.2,4.2c0,2.3,1.9,4.2,4.2,4.2c2.3,0,4.2-1.9,4.2-4.2C26.3,19.6,24.5,17.8,22.1,17.8z"/>
		<path class="st1" d="M28.9,16.3c0,0.6-0.5,1.1-1.1,1.1c-0.6,0-1.1-0.5-1.1-1.1c0-0.6,0.5-1.1,1.1-1.1
			C28.4,15.2,28.9,15.7,28.9,16.3z"/>
	</g>
</g>
</svg>
