<?xml version="1.0" encoding="utf-8"?>
<!-- Generator: Adobe Illustrator 21.0.0, SVG Export Plug-In . SVG Version: 6.00 Build 0)  -->
<svg version="1.1" id="Layer_1" xmlns="http://www.w3.org/2000/svg" xmlns:xlink="http://www.w3.org/1999/xlink" x="0px" y="0px"
	 viewBox="0 0 40 40" style="enable-background:new 0 0 40 40;" xml:space="preserve">
<style type="text/css">
	.st0{clip-path:url(#SVGID_2_);fill:#ED1C24;}
	.st1{clip-path:url(#SVGID_4_);fill:#ED1C24;}
</style>
<g>
	<defs>
		<rect id="SVGID_1_" x="2" y="3.8" width="34.6" height="34.2"/>
	</defs>
	<clipPath id="SVGID_2_">
		<use xlink:href="#SVGID_1_"  style="overflow:visible;"/>
	</clipPath>
	<path class="st0" d="M30.3,10.7c-2.9-3.2-6.8-5-11.2-5.3c-0.4,0-0.8,0.3-0.8,0.7c0,0.4,0.3,0.8,0.7,0.8c3.9,0.2,7.5,1.9,10.1,4.8
		s3.9,6.6,3.7,10.4c0,0.4,0.3,0.8,0.7,0.8s0.7-0.3,0.8-0.7C34.6,17.9,33.2,13.8,30.3,10.7"/>
</g>
<g>
	<defs>
		<rect id="SVGID_3_" x="2" y="3.8" width="34.6" height="34.2"/>
	</defs>
	<clipPath id="SVGID_4_">
		<use xlink:href="#SVGID_3_"  style="overflow:visible;"/>
	</clipPath>
	<path class="st1" d="M27.4,21.8c0.4,0,0.8-0.3,0.8-0.7c0.1-2.4-0.7-4.8-2.4-6.6c-1.7-1.8-3.9-2.9-6.4-3c-0.4,0-0.8,0.3-0.8,0.7
		s0.3,0.8,0.7,0.8c2.1,0.1,4,1,5.3,2.5c1.4,1.5,2.1,3.5,2,5.5C26.7,21.4,27,21.7,27.4,21.8 M32,30.3c-2.8-2.6-6.1-4.4-7-4.9
		c-0.4-0.2-0.8-0.1-1.1,0.2L21.3,28c-1-0.2-4-1.1-6.9-4.4c-2.8-3.2-3.2-6.3-3.3-7.4l2.8-2.1c0.4-0.3,0.5-0.7,0.3-1.1
		c-0.1-0.4-1.5-4.2-3.8-7.6C10.3,5.3,10,5.2,9.8,5.1C9.5,5.1,9.2,5.2,9,5.3C8.5,5.7,8,6,7.5,6.5C5,8.6,3.2,10.8,2.9,11.2
		c-0.1,0.2-0.2,0.4-0.2,0.7c0,0.8,0.6,7.9,7.3,15.6s13.7,9.3,14.5,9.5h0.2c0.2,0,0.3,0,0.5-0.1c0.5-0.3,3-1.7,5.5-3.8
		c0.5-0.4,1-0.8,1.4-1.3c0.2-0.2,0.3-0.5,0.3-0.7C32.3,30.8,32.2,30.5,32,30.3"/>
</g>
</svg>
