<?xml version="1.0" encoding="utf-8"?>
<!-- Generator: Adobe Illustrator 21.0.0, SVG Export Plug-In . SVG Version: 6.00 Build 0)  -->
<svg version="1.1" id="Layer_1" xmlns="http://www.w3.org/2000/svg" xmlns:xlink="http://www.w3.org/1999/xlink" x="0px" y="0px"
	 viewBox="0 0 1890 537" style="enable-background:new 0 0 1890 537;" xml:space="preserve">
<style type="text/css">
	.st0{fill:#F9F9F9;}
</style>
<path class="st0" d="M190.4,489.5c-18.9,16.5-43.3,24.8-73.4,24.8c-30,0-54.5-8.4-73.4-25.1c-18.9-16.7-28.3-42.7-28.3-77.9v-70.2
	H81V403c0,18,3.8,30.7,11.3,38c7.5,7.3,15.8,10.9,24.8,10.9s17.3-3.6,24.8-10.9c7.5-7.3,11.3-20,11.3-38v-40.5
	c0-9-3.4-17.9-10.3-26.7c-6.9-8.8-15.3-17.8-25.4-27c-10.1-9.2-21.1-18.7-33.1-28.3c-12-9.7-23.1-20.2-33.1-31.5
	c-10.1-11.4-18.6-23.6-25.4-36.7c-6.9-13.1-10.3-27.4-10.3-42.8v-61.8c0-18,2.7-33.6,8-46.7c5.4-13.1,12.8-23.8,22.2-32.2
	c9.4-8.4,20.3-14.5,32.5-18.3c12.2-3.9,25.2-5.8,38.9-5.8c13.7,0,26.7,1.9,38.9,5.8c12.2,3.9,23.1,9.9,32.5,18
	c9.4,8.2,16.8,18.8,22.2,31.9c5.4,13.1,8,28.9,8,47.3v77.2h-65.7v-68.9c0-18-3.8-30.7-11.3-38C134.3,70.6,126.1,67,117,67
	s-17.3,3.7-24.8,10.9c-7.5,7.3-11.3,20-11.3,38v41.2c0,12.5,3.4,23.7,10.3,33.8c6.9,10.1,15.3,19.6,25.4,28.6
	c10.1,9,21.1,18,33.1,27c12,9,23.1,18.5,33.1,28.3c10.1,9.9,18.6,20.8,25.4,32.8c6.9,12,10.3,25.7,10.3,41.2v62.4
	C218.7,447,209.3,473,190.4,489.5z"/>
<path class="st0" d="M368.1,77.9v428h-65.7v-428h-61.1v-65h187.9v65H368.1z"/>
<path class="st0" d="M605.6,505.9l-56.6-202.7h-25.1v202.7h-65.7v-493h113.9c24.9,0,45.5,7.9,61.8,23.8
	c16.3,15.9,24.5,42.3,24.5,79.2v79.2c0,24.9-4.3,45.2-12.9,60.8c-8.6,15.7-20.2,26.7-34.8,33.1l60.5,216.9H605.6z M592.7,124.3
	c0-18-2.9-30.7-8.7-38c-5.8-7.3-14.9-10.9-27.4-10.9h-32.8v165.4h32.8c12.4,0,21.6-3.6,27.4-10.9c5.8-7.3,8.7-20,8.7-38V124.3z"/>
<path class="st0" d="M842.4,505.9l-12.9-109.4h-72.7l-12.9,109.4h-65.7l66.3-493h96.5l66.9,493H842.4z M795.4,114.1
	c0-6-0.2-11.9-0.6-17.7c-0.4-5.8-1.1-11.7-1.9-17.8c-1.3,11.6-1.9,23.4-1.9,35.5l-25.7,217.5h56L795.4,114.1z"/>
<path class="st0" d="M1015.6,77.9v428h-65.7v-428h-61.1v-65h187.9v65H1015.6z"/>
<path class="st0" d="M1105.7,505.9v-493h157v65h-91.4v147.4h86.9v65h-86.9v150.6h91.4v65H1105.7z"/>
<path class="st0" d="M1493.4,481.5c-4.9,6-11.6,11.4-20,16.1c-8.4,4.7-18.6,8.7-30.6,11.9c-12,3.2-26.4,4.8-43.1,4.8
	c-15,0-29-1.9-41.8-5.8c-12.9-3.9-23.9-10-33.1-18.3c-9.2-8.4-16.5-19.1-21.9-32.2c-5.4-13.1-8-28.6-8-46.7V107.5
	c0-18,2.7-33.6,8-46.7c5.4-13.1,12.7-23.8,21.9-32.2c9.2-8.4,20.3-14.5,33.1-18.3c12.9-3.9,26.8-5.8,41.8-5.8c15,0,29,1.9,41.8,5.8
	c12.9,3.9,23.9,9.9,33.1,18c9.2,8.2,16.5,18.8,21.9,31.9c5.4,13.1,8,28.9,8,47.3v76.6h-65.7v-68.2c0-18-3.9-30.7-11.6-38
	c-7.7-7.3-17-10.9-27.7-10.9c-10.7,0-20,3.7-27.7,10.9c-7.7,7.3-11.6,20-11.6,38V403c0,18,3.9,30.7,11.6,38
	c7.7,7.3,16.9,10.9,27.7,10.9c9.9,0,17.7-1.3,23.5-3.9s11-7.7,15.8-15.4V316.1h-43.8v-65.7h109.4v214.3
	C1502.1,469.9,1498.4,475.5,1493.4,481.5z"/>
<path class="st0" d="M1551,505.9v-493h65.7v493H1551z"/>
<path class="st0" d="M1860.3,458.6c-5.4,13.1-12.8,23.7-22.2,31.9c-9.4,8.2-20.3,14.2-32.5,18c-12.2,3.9-25.2,5.8-38.9,5.8
	c-13.7,0-26.7-1.9-38.9-5.8c-12.2-3.9-23.1-10-32.5-18.3c-9.4-8.4-16.8-19.1-22.2-32.2c-5.4-13.1-8-28.6-8-46.7V107.5
	c0-18,2.7-33.6,8-46.7c5.4-13.1,12.8-23.8,22.2-32.2c9.4-8.4,20.3-14.5,32.5-18.3c12.2-3.9,25.2-5.8,38.9-5.8
	c13.7,0,26.7,1.9,38.9,5.8c12.2,3.9,23.1,9.9,32.5,18c9.4,8.2,16.8,18.8,22.2,31.9c5.4,13.1,8,28.9,8,47.3v77.2h-65.7v-68.9
	c0-18-3.8-30.7-11.3-38c-7.5-7.3-15.8-10.9-24.8-10.9c-9,0-17.3,3.7-24.8,10.9c-7.5,7.3-11.3,20-11.3,38V403c0,18,3.8,30.7,11.3,38
	c7.5,7.3,15.8,10.9,24.8,10.9c9,0,17.3-3.6,24.8-10.9c7.5-7.3,11.3-20,11.3-38v-61.8h65.7v70.2
	C1868.4,429.8,1865.7,445.6,1860.3,458.6z"/>
</svg>
