<?xml version="1.0" encoding="utf-8"?>
<!-- Generator: Adobe Illustrator 21.0.0, SVG Export Plug-In . SVG Version: 6.00 Build 0)  -->
<svg version="1.1" id="Layer_1" xmlns="http://www.w3.org/2000/svg" xmlns:xlink="http://www.w3.org/1999/xlink" x="0px" y="0px"
	 viewBox="0 0 106 170" style="enable-background:new 0 0 106 170;" xml:space="preserve">
<style type="text/css">
	.st0{clip-path:url(#SVGID_1_);fill:url(#SVGID_2_);}
	.st1{clip-path:url(#SVGID_3_);fill:url(#SVGID_4_);}
	.st2{clip-path:url(#SVGID_5_);fill:url(#SVGID_6_);}
</style>
<g>
	<g>
		<defs>
			<path id="SVGID_10_" d="M2.1,41.4V68c0,1,0.5,2,1.4,2.5l95.9,60.7c2,1.3,4.6-0.2,4.6-2.5v-24.5c0-2.3-1.2-4.4-3.1-5.6L6.7,38.9
				c-0.5-0.3-1.1-0.5-1.6-0.5C3.5,38.5,2.1,39.7,2.1,41.4"/>
		</defs>
		<clipPath id="SVGID_1_">
			<use xlink:href="#SVGID_10_"  style="overflow:visible;"/>
		</clipPath>
		
			<linearGradient id="SVGID_2_" gradientUnits="userSpaceOnUse" x1="-628.2272" y1="472.2398" x2="-626.1444" y2="472.2398" gradientTransform="matrix(35.3687 -66.5189 -66.5189 -35.3687 53647.9102 -24930.3652)">
			<stop  offset="0" style="stop-color:#C7D309"/>
			<stop  offset="0.1159" style="stop-color:#C3D21D"/>
			<stop  offset="0.2676" style="stop-color:#BACF39"/>
			<stop  offset="0.4393" style="stop-color:#A9C959"/>
			<stop  offset="0.6256" style="stop-color:#8FC37D"/>
			<stop  offset="0.8214" style="stop-color:#65BAA2"/>
			<stop  offset="1" style="stop-color:#0AB1C3"/>
		</linearGradient>
		<polygon class="st0" points="-36.9,111.8 24.5,-3.8 142.9,59.2 81.5,174.7 		"/>
	</g>
	<g>
		<defs>
			<path id="SVGID_13_" d="M37.6,6.1v26.5c0,1,0.5,2,1.4,2.5l60.3,38.8c2,1.3,4.6-0.1,4.6-2.5V46.9c0-2.3-1.2-4.4-3.1-5.6L42.3,3.6
				c-0.5-0.3-1.1-0.5-1.6-0.5C39.1,3.1,37.6,4.4,37.6,6.1"/>
		</defs>
		<clipPath id="SVGID_3_">
			<use xlink:href="#SVGID_13_"  style="overflow:visible;"/>
		</clipPath>
		
			<linearGradient id="SVGID_4_" gradientUnits="userSpaceOnUse" x1="-628.2616" y1="472.3324" x2="-626.1788" y2="472.3324" gradientTransform="matrix(34.9482 -65.7281 -65.7281 -34.9482 53012.0547 -24633.5879)">
			<stop  offset="0" style="stop-color:#C7D309"/>
			<stop  offset="0.1159" style="stop-color:#C3D21D"/>
			<stop  offset="0.2676" style="stop-color:#BACF39"/>
			<stop  offset="0.4393" style="stop-color:#A9C959"/>
			<stop  offset="0.6256" style="stop-color:#8FC37D"/>
			<stop  offset="0.8214" style="stop-color:#65BAA2"/>
			<stop  offset="1" style="stop-color:#0AB1C3"/>
		</linearGradient>
		<polygon class="st1" points="7.8,59.3 52.3,-24.4 133.8,19 89.3,102.7 		"/>
	</g>
	<g>
		<defs>
			<path id="SVGID_16_" d="M2.1,98.6v26.5c0,1,0.5,2,1.4,2.5l60.3,38.8c2,1.3,4.6-0.1,4.6-2.5v-24.5c0-2.3-1.2-4.4-3.1-5.6L6.7,96.1
				c-0.5-0.3-1.1-0.5-1.6-0.5C3.5,95.6,2.1,96.9,2.1,98.6"/>
		</defs>
		<clipPath id="SVGID_5_">
			<use xlink:href="#SVGID_16_"  style="overflow:visible;"/>
		</clipPath>
		
			<linearGradient id="SVGID_6_" gradientUnits="userSpaceOnUse" x1="-628.2538" y1="472.2485" x2="-626.171" y2="472.2485" gradientTransform="matrix(34.9482 -65.7281 -65.7281 -34.9482 53017.3984 -24631.3555)">
			<stop  offset="0" style="stop-color:#C7D309"/>
			<stop  offset="0.1159" style="stop-color:#C3D21D"/>
			<stop  offset="0.2676" style="stop-color:#BACF39"/>
			<stop  offset="0.4393" style="stop-color:#A9C959"/>
			<stop  offset="0.6256" style="stop-color:#8FC37D"/>
			<stop  offset="0.8214" style="stop-color:#65BAA2"/>
			<stop  offset="1" style="stop-color:#0AB1C3"/>
		</linearGradient>
		<polygon class="st2" points="-27.8,151.8 16.7,68.1 98.2,111.5 53.7,195.2 		"/>
	</g>
</g>
</svg>
