<?xml version="1.0" encoding="utf-8"?>
<!-- Generator: Adobe Illustrator 21.0.0, SVG Export Plug-In . SVG Version: 6.00 Build 0)  -->
<svg version="1.1" id="Layer_1" xmlns="http://www.w3.org/2000/svg" xmlns:xlink="http://www.w3.org/1999/xlink" x="0px" y="0px"
	 viewBox="0 0 362.5 210.9" style="enable-background:new 0 0 362.5 210.9;" xml:space="preserve">
<style type="text/css">
	.st0{fill:url(#SVGID_1_);}
	.st1{fill:url(#SVGID_2_);}
	.st2{fill:url(#SVGID_3_);}
	.st3{fill:#C7D309;}
	.st4{fill:#FFFFFF;}
</style>
<g>
	<g>
		<linearGradient id="SVGID_1_" gradientUnits="userSpaceOnUse" x1="161.4448" y1="80.33" x2="200.1532" y2="7.53">
			<stop  offset="0" style="stop-color:#C7D309"/>
			<stop  offset="0.1171" style="stop-color:#C3D21C"/>
			<stop  offset="0.2704" style="stop-color:#BACF39"/>
			<stop  offset="0.4437" style="stop-color:#A9CB59"/>
			<stop  offset="0.632" style="stop-color:#90C57E"/>
			<stop  offset="0.8298" style="stop-color:#65BDA4"/>
			<stop  offset="1" style="stop-color:#14B5C3"/>
		</linearGradient>
		<path class="st0" d="M205.6,67.3l-50.4-31.9c-0.5-0.3-0.7-0.8-0.7-1.3V20.1c0-1.2,1.4-2,2.4-1.3l49.5,31.3c1,0.6,1.6,1.8,1.6,3V66
			C208,67.2,206.7,68,205.6,67.3z"/>
		<linearGradient id="SVGID_2_" gradientUnits="userSpaceOnUse" x1="158.5256" y1="79.0567" x2="196.7739" y2="7.1222">
			<stop  offset="0" style="stop-color:#C7D309"/>
			<stop  offset="0.1171" style="stop-color:#C3D21C"/>
			<stop  offset="0.2704" style="stop-color:#BACF39"/>
			<stop  offset="0.4437" style="stop-color:#A9CB59"/>
			<stop  offset="0.632" style="stop-color:#90C57E"/>
			<stop  offset="0.8298" style="stop-color:#65BDA4"/>
			<stop  offset="1" style="stop-color:#14B5C3"/>
		</linearGradient>
		<path class="st1" d="M205.6,37.2l-31.7-20.4c-0.5-0.3-0.7-0.8-0.7-1.3V1.6c0-1.2,1.4-2,2.4-1.3L206.4,20c1,0.6,1.6,1.8,1.6,2.9
			v12.9C208,37.1,206.7,37.9,205.6,37.2z"/>
		<linearGradient id="SVGID_3_" gradientUnits="userSpaceOnUse" x1="164.3734" y1="81.4991" x2="202.6217" y2="9.5645">
			<stop  offset="0" style="stop-color:#C7D309"/>
			<stop  offset="0.1171" style="stop-color:#C3D21C"/>
			<stop  offset="0.2704" style="stop-color:#BACF39"/>
			<stop  offset="0.4437" style="stop-color:#A9CB59"/>
			<stop  offset="0.632" style="stop-color:#90C57E"/>
			<stop  offset="0.8298" style="stop-color:#65BDA4"/>
			<stop  offset="1" style="stop-color:#14B5C3"/>
		</linearGradient>
		<path class="st2" d="M186.9,85.8l-31.7-20.4c-0.5-0.3-0.7-0.8-0.7-1.3V50.2c0-1.2,1.4-2,2.4-1.3l30.8,19.8c1,0.6,1.6,1.8,1.6,2.9
			v12.9C189.3,85.7,188,86.5,186.9,85.8z"/>
	</g>
	<g>
		<path class="st3" d="M126.4,197.6v-12.5h-2.8v-1.7h2.8v-6.1h1.8v6.1h6.7v1.7h-6.7v12.3c0,2.7,1.6,3.7,3.8,3.7
			c0.9,0,1.7-0.2,2.8-0.7v1.7c-1,0.4-1.9,0.7-3.1,0.7C128.8,202.8,126.4,201.2,126.4,197.6z"/>
		<path class="st3" d="M138.1,183.4h1.8v5.4c1.5-3.4,4.7-5.9,8.4-5.7v2h-0.2c-4.4,0-8.3,3.3-8.3,9.5v7.8h-1.8V183.4z"/>
		<path class="st3" d="M148.9,196.9L148.9,196.9c0-4,3.4-6.3,8.3-6.3c2.7,0,4.5,0.3,6.3,0.8v-0.8c0-3.8-2.4-5.8-6.3-5.8
			c-2.3,0-4.2,0.6-6,1.5l-0.7-1.6c2.1-1,4.1-1.6,6.8-1.6c2.6,0,4.6,0.7,6,2.1c1.3,1.3,1.9,3,1.9,5.4v11.9h-1.8v-3.2
			c-1.3,1.8-3.7,3.6-7.3,3.6C152.7,202.9,148.9,200.9,148.9,196.9z M163.5,195.3v-2.2c-1.6-0.4-3.7-0.9-6.5-0.9
			c-4,0-6.3,1.8-6.3,4.4v0.1c0,2.8,2.6,4.4,5.5,4.4C160.2,201.2,163.5,198.8,163.5,195.3z"/>
		<path class="st3" d="M168.7,175.9h2.3v2.5h-2.3V175.9z M168.9,183.4h1.8v19h-1.8V183.4z"/>
		<path class="st3" d="M174.2,183.4h1.8v3.5c1.3-2.2,3.4-4,6.9-4c4.8,0,7.6,3.3,7.6,7.8v11.6h-1.8v-11.3c0-3.9-2.2-6.5-6-6.5
			c-3.7,0-6.6,2.8-6.6,6.8v11h-1.8V183.4z"/>
		<path class="st3" d="M194.2,175.9h2.3v2.5h-2.3V175.9z M194.4,183.4h1.8v19h-1.8V183.4z"/>
		<path class="st3" d="M200.3,183.4h1.8v3.5c1.3-2.2,3.4-4,6.9-4c4.8,0,7.6,3.3,7.6,7.8v11.6h-1.8v-11.3c0-3.9-2.2-6.5-6-6.5
			c-3.7,0-6.6,2.8-6.6,6.8v11h-1.8V183.4z"/>
		<path class="st3" d="M220.7,205.6l1.1-1.5c2.3,1.8,4.9,2.7,7.7,2.7c4.4,0,7.5-2.5,7.5-7.4v-2.8c-1.6,2.4-4.2,4.4-8,4.4
			c-4.6,0-9.1-3.5-9.1-9V192c0-5.5,4.6-9,9.1-9c3.8,0,6.4,2,8,4.3v-3.8h1.8v16.1c0,2.8-0.9,4.9-2.4,6.5c-1.6,1.6-4.1,2.5-6.9,2.5
			C226.3,208.5,223.3,207.5,220.7,205.6z M237.1,192L237.1,192c0-4.5-3.9-7.3-7.9-7.3c-4,0-7.4,2.8-7.4,7.2v0.1
			c0,4.3,3.4,7.3,7.4,7.3C233.2,199.3,237.1,196.4,237.1,192z"/>
	</g>
	<g>
		<path class="st4" d="M0,144.7l4.1-6.2c4.4,3.2,9,4.9,13.1,4.9c3.9,0,6.2-1.7,6.2-4.3v-0.2c0-3.1-4.2-4.2-8.9-5.6
			C8.5,131.7,2,129.3,2,121.6v-0.2c0-7.6,6.3-12.2,14.2-12.2c5,0,10.4,1.7,14.7,4.5l-3.6,6.5c-3.9-2.3-7.9-3.8-11.3-3.8
			c-3.6,0-5.6,1.7-5.6,3.9v0.2c0,2.9,4.3,4.2,9,5.7c5.8,1.8,12.4,4.5,12.4,11.6v0.2c0,8.4-6.5,12.5-14.8,12.5
			C11.3,150.6,5,148.6,0,144.7z"/>
		<path class="st4" d="M36.9,110h9.1v6.7c2.9-4.2,7.1-7.5,13.6-7.5c9.4,0,18.5,7.4,18.5,20.7v0.2c0,13.2-9.1,20.7-18.5,20.7
			c-6.7,0-10.8-3.3-13.6-7V162h-9.1V110z M68.9,130v-0.2c0-7.7-5.2-12.8-11.4-12.8s-11.6,5.1-11.6,12.8v0.2
			c0,7.6,5.4,12.8,11.6,12.8C63.8,142.8,68.9,137.9,68.9,130z"/>
		<path class="st4" d="M83.2,110h9.1v9c2.5-6,7.1-10.1,14.1-9.7v9.7H106c-8,0-13.6,5.2-13.6,15.8v15.2h-9.1V110z"/>
		<path class="st4" d="M112.2,110h9.1v39.9h-9.1V110z"/>
		<path class="st4" d="M127.5,110h9.1v6.1c2.6-3.7,6.3-7,12.5-7c9,0,14.2,6,14.2,15.3v25.5h-9.1v-22.7c0-6.2-3.1-9.7-8.5-9.7
			c-5.3,0-9,3.7-9,9.9v22.5h-9.1V110z"/>
		<path class="st4" d="M170.9,157.4l3.4-6.9c4.3,2.6,8.8,4.2,14.2,4.2c8.2,0,12.6-4.2,12.6-12.2v-3.1c-3.3,4.3-7.5,7.3-14.1,7.3
			c-9.4,0-18.1-7-18.1-18.7v-0.2c0-11.8,8.8-18.7,18.1-18.7c6.7,0,10.9,3.1,14,6.8v-6h9.1v31.7c0,6.7-1.7,11.7-5.1,15
			c-3.6,3.6-9.2,5.4-16.4,5.4C182.1,162.1,176,160.5,170.9,157.4z M201.2,128v-0.2c0-6.5-5.4-11-11.7-11s-11.3,4.4-11.3,11v0.2
			c0,6.5,5.1,11,11.3,11C195.8,138.9,201.2,134.5,201.2,128z"/>
		<path class="st4" d="M220.8,117.8h-5.1v-7.6h5.1v-2.9c0-4.4,1.1-7.7,3.2-9.8c2.1-2.1,5.1-3.2,9-3.2c3.2,0,5.4,0.5,7.4,1.1v7.7
			c-1.8-0.6-3.4-1-5.4-1c-3.5,0-5.3,1.9-5.3,6v2.2h10.6v7.6H230v32h-9.1V117.8z"/>
		<path class="st4" d="M261.1,130.1v-0.2c0-11.4,8.1-20.8,19.5-20.8c12.7,0,19.1,10,19.1,21.5c0,0.8-0.1,1.7-0.2,2.6h-29.3
			c1,6.5,5.6,10.1,11.5,10.1c4.5,0,7.6-1.7,10.8-4.8l5.4,4.8c-3.8,4.5-9,7.5-16.3,7.5C270,150.8,261.1,142.4,261.1,130.1z
			 M290.7,127.1c-0.6-5.9-4.1-10.5-10.1-10.5c-5.6,0-9.5,4.3-10.4,10.5H290.7z"/>
		<path class="st4" d="M305.6,94.7h9.1v55.2h-9.1V94.7z"/>
		<path class="st4" d="M321.3,130v-0.2c0-13.2,9-20.7,18.5-20.7c6.6,0,10.7,3.3,13.6,7V94.7h9.1v55.2h-9.1v-6.7
			c-2.9,4.2-7.1,7.5-13.6,7.5C330.4,150.7,321.3,143.2,321.3,130z M353.5,130v-0.2c0-7.7-5.4-12.8-11.6-12.8
			c-6.3,0-11.5,4.8-11.5,12.8v0.2c0,7.7,5.3,12.8,11.5,12.8C348.1,142.8,353.5,137.6,353.5,130z"/>
		<circle class="st4" cx="116.8" cy="101.1" r="4.6"/>
		<circle class="st4" cx="250.6" cy="101.1" r="4.6"/>
		<rect x="246" y="110" class="st4" width="9.1" height="39.9"/>
	</g>
</g>
</svg>
