<?xml version="1.0" encoding="utf-8"?>
<!-- Generator: Adobe Illustrator 21.0.0, SVG Export Plug-In . SVG Version: 6.00 Build 0)  -->
<svg version="1.1" id="Layer_1" xmlns="http://www.w3.org/2000/svg" xmlns:xlink="http://www.w3.org/1999/xlink" x="0px" y="0px"
	 viewBox="0 0 423.2 117.9" style="enable-background:new 0 0 423.2 117.9;" xml:space="preserve">
<style type="text/css">
	.st0{fill:none;}
	.st1{fill:#FFFFFF;}
	.st2{fill:#C7D309;}
</style>
<rect id="SVGID_5_" x="-19.4" y="-159.3" class="st0" width="557.2" height="170"/>
<g>
	<path class="st1" d="M12.4,58.8l4.5-6.8c4.8,3.6,9.9,5.4,14.4,5.4c4.3,0,6.8-1.8,6.8-4.7v-0.2c0-3.4-4.7-4.6-9.8-6.1
		c-6.5-1.8-13.7-4.5-13.7-12.9v-0.2C14.5,25,21.4,20,30.1,20c5.5,0,11.5,1.9,16.1,5l-4,7.1c-4.2-2.6-8.7-4.2-12.4-4.2
		c-3.9,0-6.1,1.8-6.1,4.3v0.2c0,3.2,4.7,4.6,9.9,6.2c6.4,2,13.6,4.9,13.6,12.8v0.2c0,9.2-7.1,13.8-16.3,13.8
		C24.7,65.4,17.8,63.2,12.4,58.8"/>
	<path class="st1" d="M52.9,20.7H63V28c3.2-4.6,7.8-8.2,15-8.2c10.3,0,20.4,8.1,20.4,22.8v0.2c0,14.5-10,22.8-20.4,22.8
		c-7.3,0-11.9-3.7-15-7.7v20.1H52.9V20.7z M88.1,42.7v-0.2c0-8.5-5.7-14-12.5-14c-6.8,0-12.8,5.6-12.8,14v0.2c0,8.4,6,14,12.8,14
		C82.4,56.8,88.1,51.4,88.1,42.7"/>
	<path class="st1" d="M103.8,20.7h10v9.9c2.7-6.6,7.8-11,15.5-10.7v10.6h-0.6c-8.8,0-15,5.7-15,17.4v16.7h-10V20.7z"/>
	<rect x="135.7" y="20.7" class="st1" width="10" height="43.9"/>
	<path class="st1" d="M152.5,20.7h10v6.7c2.8-4.1,6.9-7.6,13.7-7.6c9.9,0,15.6,6.6,15.6,16.8v28h-10.1V39.7c0-6.8-3.4-10.7-9.4-10.7
		c-5.8,0-9.9,4.1-9.9,10.9v24.8h-10V20.7z"/>
	<path class="st1" d="M200.2,72.8l3.7-7.6c4.7,2.9,9.6,4.7,15.6,4.7c9,0,13.9-4.7,13.9-13.5V53c-3.7,4.7-8.2,8.1-15.5,8.1
		c-10.3,0-19.9-7.6-19.9-20.5v-0.2c0-13,9.7-20.6,19.9-20.6c7.4,0,12,3.4,15.4,7.5v-6.6h10.1v34.9c0,7.4-1.9,12.9-5.6,16.5
		c-4,4-10.1,5.9-18,5.9C212.6,78,205.8,76.2,200.2,72.8 M233.5,40.5v-0.2c0-7.1-5.9-12-12.9-12c-7,0-12.5,4.8-12.5,12v0.2
		c0,7.1,5.6,12,12.5,12C227.6,52.5,233.5,47.6,233.5,40.5"/>
	<path class="st1" d="M255.1,29.4h-5.6V21h5.6v-3.2c0-4.8,1.2-8.5,3.6-10.8c2.3-2.3,5.6-3.5,9.9-3.5c3.5,0,5.9,0.5,8.1,1.2v8.5
		c-2-0.7-3.7-1.1-5.9-1.1c-3.8,0-5.8,2.1-5.8,6.6v2.4h11.6v8.3h-11.5v35.2h-10V29.4z"/>
	<path class="st1" d="M299.4,42.8v-0.2c0-12.5,8.9-22.8,21.4-22.8c14,0,21,11,21,23.6c0,0.9-0.1,1.8-0.2,2.8h-32.2
		c1.1,7.1,6.1,11.1,12.6,11.1c4.9,0,8.4-1.8,11.9-5.2l5.9,5.2c-4.2,5-9.9,8.2-17.9,8.2C309.2,65.6,299.4,56.4,299.4,42.8
		 M331.8,39.6c-0.7-6.5-4.5-11.5-11.1-11.5c-6.1,0-10.5,4.7-11.4,11.5H331.8z"/>
	<rect x="348.3" y="3.9" class="st1" width="10" height="60.6"/>
	<path class="st1" d="M365.5,42.7v-0.2c0-14.5,9.9-22.8,20.4-22.8c7.2,0,11.8,3.6,15,7.7V3.9h10.1v60.6h-10.1v-7.3
		c-3.2,4.6-7.8,8.2-15,8.2C375.5,65.5,365.5,57.3,365.5,42.7 M400.9,42.7v-0.2c0-8.5-6-14-12.7-14c-6.9,0-12.6,5.3-12.6,14v0.2
		c0,8.5,5.8,14,12.6,14C394.9,56.8,400.9,51.1,400.9,42.7"/>
	<g>
		<path class="st2" d="M292.1,108.2c-3.2,0-5.9-1.8-5.9-5.7V88.7h-3v-1.8h3v-6.7h2v6.7h7.3v1.8h-7.3v13.5c0,3,1.8,4.1,4.2,4.1
			c1,0,1.9-0.2,3.1-0.7v1.9C294.5,107.9,293.4,108.2,292.1,108.2z"/>
	</g>
	<g>
		<path class="st2" d="M310.2,88.8c-4.8,0-9.1,3.7-9.1,10.5v8.6h-2V86.9h2v5.9c1.6-3.7,5.1-6.4,9.3-6.3v2.2H310.2z"/>
	</g>
	<g>
		<path class="st2" d="M327,107.8v-3.5c-1.4,2-4,4-8,4c-3.9,0-8.1-2.2-8.1-6.6v-0.1c0-4.3,3.7-6.8,9.1-6.8c2.9,0,4.9,0.4,6.9,0.9
			v-0.9c0-4.2-2.6-6.4-6.9-6.4c-2.5,0-4.6,0.7-6.6,1.7l-0.7-1.8c2.3-1.1,4.6-1.8,7.4-1.8c5.4,0,8.7,2.8,8.7,8.2v13H327z M327,97.6
			c-1.8-0.5-4.1-0.9-7.1-0.9c-4.4,0-6.9,2-6.9,4.9v0.1c0,3,2.9,4.8,6.1,4.8c4.3,0,7.9-2.6,7.9-6.4V97.6z"/>
	</g>
	<g>
		<path class="st2" d="M332.8,81.4v-2.7h2.5v2.7H332.8z M333,107.8V86.9h2v20.9H333z"/>
	</g>
	<g>
		<path class="st2" d="M354.7,107.8V95.4c0-4.3-2.4-7.1-6.6-7.1c-4.1,0-7.3,3.1-7.3,7.5v12.1h-2V86.9h2v3.9c1.4-2.5,3.7-4.4,7.6-4.4
			c5.3,0,8.4,3.6,8.4,8.6v12.8H354.7z"/>
	</g>
	<g>
		<path class="st2" d="M360.7,81.4v-2.7h2.5v2.7H360.7z M361,107.8V86.9h2v20.9H361z"/>
	</g>
	<g>
		<path class="st2" d="M383.3,107.8V95.4c0-4.3-2.4-7.1-6.6-7.1c-4.1,0-7.3,3.1-7.3,7.5v12.1h-2V86.9h2v3.9c1.4-2.5,3.7-4.4,7.6-4.4
			c5.3,0,8.4,3.6,8.4,8.6v12.8H383.3z"/>
	</g>
	<g>
		<path class="st2" d="M399.5,114.4c-3.5,0-6.7-1.1-9.6-3.2l1.2-1.6c2.5,1.9,5.4,3,8.5,3c4.8,0,8.2-2.7,8.2-8.1v-3
			c-1.8,2.6-4.6,4.8-8.7,4.8c-5,0-10.1-3.9-10.1-9.8v-0.1c0-6,5-9.9,10.1-9.9c4.2,0,7,2.2,8.7,4.7v-4.2h2v17.7
			C409.8,110.9,405.5,114.4,399.5,114.4z M407.9,96.3c0-4.8-4.3-8-8.7-8c-4.4,0-8.1,3-8.1,7.9v0.1c0,4.7,3.8,8,8.1,8
			C403.6,104.3,407.9,101.1,407.9,96.3L407.9,96.3z"/>
	</g>
	<path class="st1" d="M145.8,11c0,2.8-2.2,5-5,5s-5-2.3-5-5c0-2.8,2.2-5,5-5S145.8,8.2,145.8,11"/>
	<path class="st1" d="M292.8,11c0,2.8-2.3,5-5,5c-2.8,0-5-2.3-5-5c0-2.8,2.2-5,5-5C290.6,6,292.8,8.2,292.8,11"/>
	<rect x="282.8" y="20.7" class="st1" width="10.1" height="43.9"/>
</g>
<rect id="SVGID_7_" x="-19.4" y="-159.3" class="st0" width="557.2" height="170"/>
</svg>
