<?xml version="1.0" encoding="utf-8"?>
<!-- Generator: Adobe Illustrator 21.0.0, SVG Export Plug-In . SVG Version: 6.00 Build 0)  -->
<svg version="1.1" id="Layer_1" xmlns="http://www.w3.org/2000/svg" xmlns:xlink="http://www.w3.org/1999/xlink" x="0px" y="0px"
	 viewBox="0 0 479.6 149" style="enable-background:new 0 0 479.6 149;" xml:space="preserve">
<style type="text/css">
	.st0{fill:url(#SVGID_1_);}
	.st1{fill:url(#SVGID_2_);}
	.st2{fill:url(#SVGID_3_);}
	.st3{fill:#01384E;}
	.st4{enable-background:new    ;}
	.st5{fill:#C7D309;}
</style>
<g>
	<g>
		
			<linearGradient id="SVGID_1_" gradientUnits="userSpaceOnUse" x1="12.0568" y1="10.7938" x2="79.0777" y2="136.8418" gradientTransform="matrix(1 0 0 -1 0 149.89)">
			<stop  offset="0" style="stop-color:#C7D309"/>
			<stop  offset="0.1171" style="stop-color:#C3D21C"/>
			<stop  offset="0.2704" style="stop-color:#BACF39"/>
			<stop  offset="0.4437" style="stop-color:#A9CB59"/>
			<stop  offset="0.632" style="stop-color:#90C57E"/>
			<stop  offset="0.8298" style="stop-color:#65BDA4"/>
			<stop  offset="1" style="stop-color:#14B5C3"/>
		</linearGradient>
		<path class="st0" d="M88.5,116.6L1.3,61.3C0.5,60.8,0,59.9,0,59V34.9c0-2.1,2.4-3.4,4.2-2.3l85.7,54.3c1.8,1.1,2.8,3,2.8,5.1v22.3
			C92.7,116.4,90.3,117.7,88.5,116.6z"/>
		
			<linearGradient id="SVGID_2_" gradientUnits="userSpaceOnUse" x1="6.9255" y1="13.0394" x2="73.1496" y2="137.5889" gradientTransform="matrix(1 0 0 -1 0 149.89)">
			<stop  offset="0" style="stop-color:#C7D309"/>
			<stop  offset="0.1171" style="stop-color:#C3D21C"/>
			<stop  offset="0.2704" style="stop-color:#BACF39"/>
			<stop  offset="0.4437" style="stop-color:#A9CB59"/>
			<stop  offset="0.632" style="stop-color:#90C57E"/>
			<stop  offset="0.8298" style="stop-color:#65BDA4"/>
			<stop  offset="1" style="stop-color:#14B5C3"/>
		</linearGradient>
		<path class="st1" d="M88.5,64.4L33.6,29.1c-0.8-0.5-1.3-1.4-1.3-2.3V2.7c0-2.2,2.4-3.5,4.2-2.3l53.3,34.3c1.7,1.1,2.8,3,2.8,5.1
			v22.3C92.7,64.2,90.3,65.5,88.5,64.4z"/>
		
			<linearGradient id="SVGID_3_" gradientUnits="userSpaceOnUse" x1="17.1049" y1="8.7818" x2="83.3291" y2="133.3313" gradientTransform="matrix(1 0 0 -1 0 149.89)">
			<stop  offset="0" style="stop-color:#C7D309"/>
			<stop  offset="0.1171" style="stop-color:#C3D21C"/>
			<stop  offset="0.2704" style="stop-color:#BACF39"/>
			<stop  offset="0.4437" style="stop-color:#A9CB59"/>
			<stop  offset="0.632" style="stop-color:#90C57E"/>
			<stop  offset="0.8298" style="stop-color:#65BDA4"/>
			<stop  offset="1" style="stop-color:#14B5C3"/>
		</linearGradient>
		<path class="st2" d="M56.1,148.5L1.3,113.3C0.5,112.8,0,111.9,0,111V86.9c0-2.2,2.4-3.5,4.2-2.3l53.3,34.3c1.7,1.1,2.8,3,2.8,5.1
			v22.3C60.3,148.4,57.9,149.7,56.1,148.5z"/>
	</g>
	<path class="st3" d="M116.2,94.9l4.1-6.2c4.4,3.2,9,4.9,13.1,4.9c3.9,0,6.2-1.7,6.2-4.3v-0.2c0-3.1-4.2-4.2-8.9-5.6
		c-5.9-1.7-12.5-4.1-12.5-11.7v-0.2c0-7.6,6.3-12.2,14.2-12.2c5,0,10.4,1.7,14.7,4.5l-3.6,6.5c-3.9-2.3-7.9-3.8-11.3-3.8
		c-3.6,0-5.6,1.7-5.6,3.9v0.2c0,2.9,4.3,4.2,9,5.7c5.8,1.8,12.4,4.5,12.4,11.6v0.2c0,8.4-6.5,12.5-14.8,12.5
		C127.5,100.9,121.2,98.9,116.2,94.9z"/>
	<path class="st3" d="M153.2,60.2h9.1v6.7c2.9-4.2,7.1-7.5,13.6-7.5c9.4,0,18.5,7.4,18.5,20.7v0.2c0,13.2-9.1,20.7-18.5,20.7
		c-6.7,0-10.8-3.3-13.6-7v18.3h-9.1V60.2z M185.1,80.3v-0.2c0-7.7-5.2-12.8-11.4-12.8s-11.6,5.1-11.6,12.8v0.2
		c0,7.6,5.4,12.8,11.6,12.8C180,93,185.1,88.1,185.1,80.3z"/>
	<path class="st3" d="M199.5,60.2h9.1v9c2.5-6,7.1-10.1,14.1-9.7v9.7h-0.5c-8,0-13.6,5.2-13.6,15.8v15.2h-9.1V60.2z"/>
	<path class="st3" d="M228.5,60.2h9.1v39.9h-9.1V60.2z"/>
	<path class="st3" d="M243.8,60.2h9.1v6.1c2.6-3.7,6.3-7,12.5-7c9,0,14.2,6,14.2,15.3v25.5h-9.1V77.5c0-6.2-3.1-9.7-8.5-9.7
		c-5.3,0-9,3.7-9,9.9v22.5h-9.1v-40H243.8z"/>
	<path class="st3" d="M287.1,107.6l3.4-6.9c4.3,2.6,8.8,4.2,14.2,4.2c8.2,0,12.6-4.2,12.6-12.2v-3.1c-3.3,4.3-7.5,7.3-14.1,7.3
		c-9.4,0-18.1-7-18.1-18.7V78c0-11.8,8.8-18.7,18.1-18.7c6.7,0,10.9,3.1,14,6.8v-6h9.1V92c0,6.7-1.7,11.7-5.1,15
		c-3.6,3.6-9.2,5.4-16.4,5.4C298.4,112.4,292.3,110.7,287.1,107.6z M317.4,78.2V78c0-6.5-5.4-11-11.7-11s-11.3,4.4-11.3,11v0.2
		c0,6.5,5.1,11,11.3,11C312.1,89.2,317.4,84.7,317.4,78.2z"/>
	<path class="st3" d="M337.1,68.1H332v-7.6h5.1v-2.9c0-4.4,1.1-7.7,3.2-9.8s5.1-3.2,9-3.2c3.2,0,5.4,0.5,7.4,1.1v7.7
		c-1.8-0.6-3.4-1-5.4-1c-3.5,0-5.3,1.9-5.3,6v2.2h10.6v7.6h-10.4v32h-9.1L337.1,68.1L337.1,68.1z"/>
	<path class="st3" d="M377.4,80.3v-0.2c0-11.4,8.1-20.8,19.5-20.8c12.7,0,19.1,10,19.1,21.5c0,0.8-0.1,1.7-0.2,2.6h-29.3
		c1,6.5,5.6,10.1,11.5,10.1c4.5,0,7.6-1.7,10.8-4.8l5.4,4.8c-3.8,4.5-9,7.5-16.3,7.5C386.3,101,377.4,92.7,377.4,80.3z M406.9,77.4
		c-0.6-5.9-4.1-10.5-10.1-10.5c-5.6,0-9.5,4.3-10.4,10.5H406.9z"/>
	<path class="st3" d="M421.8,45h9.1v55.2h-9.1V45z"/>
	<path class="st3" d="M437.5,80.3v-0.2c0-13.2,9-20.7,18.5-20.7c6.6,0,10.7,3.3,13.6,7V45h9.1v55.2h-9.1v-6.7
		c-2.9,4.2-7.1,7.5-13.6,7.5C446.6,101,437.5,93.5,437.5,80.3z M469.8,80.3v-0.2c0-7.7-5.4-12.8-11.6-12.8
		c-6.3,0-11.5,4.8-11.5,12.8v0.2c0,7.7,5.3,12.8,11.5,12.8C464.3,93,469.8,87.9,469.8,80.3z"/>
	<g class="st4">
		<path class="st5" d="M365.4,134.6v-12.5h-2.8v-1.7h2.8v-6.1h1.8v6.1h6.7v1.7h-6.7v12.3c0,2.7,1.6,3.7,3.8,3.7
			c0.9,0,1.7-0.2,2.8-0.7v1.7c-1,0.4-1.9,0.7-3.1,0.7C367.8,139.8,365.4,138.2,365.4,134.6z"/>
	</g>
	<g class="st4">
		<path class="st5" d="M377.1,120.4h1.8v5.4c1.5-3.4,4.7-5.9,8.4-5.7v2h-0.2c-4.4,0-8.3,3.3-8.3,9.5v7.8h-1.8V120.4z"/>
	</g>
	<g class="st4">
		<path class="st5" d="M388.8,133.9L388.8,133.9c0-4,3.4-6.3,8.3-6.3c2.7,0,4.5,0.3,6.3,0.8v-0.8c0-3.8-2.4-5.8-6.3-5.8
			c-2.3,0-4.2,0.6-6,1.5l-0.7-1.6c2.1-1,4.1-1.6,6.8-1.6c2.6,0,4.6,0.7,6,2.1c1.3,1.3,1.9,3,1.9,5.4v11.9h-1.8v-3.2
			c-1.3,1.8-3.7,3.6-7.3,3.6C392.6,139.9,388.8,137.9,388.8,133.9z M403.4,132.3v-2.2c-1.6-0.4-3.7-0.9-6.5-0.9
			c-4,0-6.3,1.8-6.3,4.4v0.1c0,2.8,2.6,4.4,5.5,4.4C400.1,138.2,403.4,135.8,403.4,132.3z"/>
	</g>
	<g class="st4">
		<path class="st5" d="M408.7,113h2.3v2.5h-2.3V113z M408.9,120.4h1.8v19h-1.8V120.4z"/>
	</g>
	<g class="st4">
		<path class="st5" d="M414.2,120.4h1.8v3.5c1.3-2.2,3.4-4,6.9-4c4.8,0,7.6,3.3,7.6,7.8v11.6h-1.8v-11.3c0-3.9-2.2-6.5-6-6.5
			c-3.7,0-6.6,2.8-6.6,6.8v11h-1.8V120.4z"/>
	</g>
	<g class="st4">
		<path class="st5" d="M434.2,113h2.3v2.5h-2.3V113z M434.4,120.4h1.8v19h-1.8V120.4z"/>
	</g>
	<g class="st4">
		<path class="st5" d="M440.2,120.4h1.8v3.5c1.3-2.2,3.4-4,6.9-4c4.8,0,7.6,3.3,7.6,7.8v11.6h-1.8v-11.3c0-3.9-2.2-6.5-6-6.5
			c-3.7,0-6.6,2.8-6.6,6.8v11h-1.8V120.4z"/>
	</g>
	<g class="st4">
		<path class="st5" d="M460.7,142.6l1.1-1.5c2.3,1.8,4.9,2.7,7.7,2.7c4.4,0,7.5-2.5,7.5-7.4v-2.8c-1.6,2.4-4.2,4.4-8,4.4
			c-4.6,0-9.1-3.5-9.1-9V129c0-5.5,4.6-9,9.1-9c3.8,0,6.4,2,8,4.3v-3.8h1.8v16.1c0,2.8-0.9,4.9-2.4,6.5c-1.6,1.6-4.1,2.5-6.9,2.5
			C466.2,145.5,463.3,144.5,460.7,142.6z M477,129L477,129c0-4.5-3.9-7.3-7.9-7.3c-4,0-7.4,2.8-7.4,7.2v0.1c0,4.3,3.4,7.3,7.4,7.3
			C473.1,136.3,477,133.4,477,129z"/>
	</g>
	<circle class="st3" cx="233" cy="51.4" r="4.6"/>
	<circle class="st3" cx="366.8" cy="51.4" r="4.6"/>
	<rect x="362.3" y="60.2" class="st3" width="9.1" height="39.9"/>
</g>
</svg>
