<?xml version="1.0" encoding="utf-8"?>
<!-- Generator: Adobe Illustrator 21.0.0, SVG Export Plug-In . SVG Version: 6.00 Build 0)  -->
<svg version="1.1" id="Layer_1" xmlns="http://www.w3.org/2000/svg" xmlns:xlink="http://www.w3.org/1999/xlink" x="0px" y="0px"
	 viewBox="0 0 40 40" style="enable-background:new 0 0 40 40;" xml:space="preserve">
<style type="text/css">
	.st0{enable-background:new    ;}
	.st1{clip-path:url(#SVGID_2_);fill:#FFFFFF;}
</style>
<g class="st0">
	<g>
		<defs>
			<rect id="SVGID_1_" x="3.2" y="3.2" width="33.6" height="33.6"/>
		</defs>
		<clipPath id="SVGID_2_">
			<use xlink:href="#SVGID_1_"  style="overflow:visible;"/>
		</clipPath>
		<path class="st1" d="M20,3.2C10.7,3.2,3.2,10.7,3.2,20S10.7,36.8,20,36.8S36.8,29.3,36.8,20S29.3,3.2,20,3.2 M20,31.6
			c-1.4,0-2.6-1.2-2.6-2.6s1.2-2.6,2.6-2.6s2.6,1.2,2.6,2.6S21.4,31.6,20,31.6 M22.6,21.8c0,1.4-1.2,2.6-2.6,2.6s-2.6-1.2-2.6-2.6
			V11c0-1.4,1.2-2.6,2.6-2.6s2.6,1.2,2.6,2.6V21.8z"/>
	</g>
</g>
</svg>
