<?xml version="1.0" encoding="utf-8"?>
<!-- Generator: Adobe Illustrator 21.0.0, SVG Export Plug-In . SVG Version: 6.00 Build 0)  -->
<svg version="1.1" id="Layer_1" xmlns="http://www.w3.org/2000/svg" xmlns:xlink="http://www.w3.org/1999/xlink" x="0px" y="0px"
	 viewBox="0 0 40 40" style="enable-background:new 0 0 40 40;" xml:space="preserve">
<style type="text/css">
	.st0{enable-background:new    ;}
	.st1{clip-path:url(#SVGID_2_);fill:#FFFFFF;}
</style>
<g class="st0">
	<g>
		<defs>
			<rect id="SVGID_1_" x="1.8" y="2" width="36.5" height="36"/>
		</defs>
		<clipPath id="SVGID_2_">
			<use xlink:href="#SVGID_1_"  style="overflow:visible;"/>
		</clipPath>
		<path class="st1" d="M2.2,12.8l1.7,1c0.3,0.2,0.5,0.6,0.5,1c0,0.6,0,1.2,0.1,1.7c0.1,0.4-0.1,0.8-0.5,1l-1.6,1.1
			c-0.4,0.3-0.5,0.8-0.3,1.2l1,2.3c0.2,0.4,0.7,0.6,1.2,0.5l1.8-0.5c0.4-0.1,0.8,0,1,0.3c0.4,0.4,0.8,0.8,1.3,1.2
			c0.3,0.2,0.5,0.6,0.4,1l-0.3,1.9c-0.1,0.5,0.2,0.9,0.6,1.1l2.4,0.9c0.5,0.2,0.9,0,1.2-0.4l1-1.7c0.2-0.3,0.6-0.5,1-0.5
			c0.5,0,1.1,0,1.6-0.1c0.4-0.1,0.8,0.1,1,0.5l1.1,1.6c0.3,0.4,0.8,0.5,1.2,0.3l2.3-1c0.4-0.2,0.6-0.7,0.5-1.2l-0.5-1.8
			c-0.1-0.4,0-0.8,0.3-1c0.4-0.4,0.8-0.8,1.2-1.2c0.2-0.3,0.6-0.5,1-0.4l1.9,0.3c0.5,0.1,0.9-0.2,1.1-0.6l0.9-2.4
			c0.2-0.5,0-0.9-0.4-1.2l-1.6-0.9c-0.3-0.2-0.5-0.6-0.5-1c0.1-0.6,0-1.2-0.1-1.7c-0.1-0.4,0.1-0.8,0.5-1l1.6-1.1
			c0.4-0.3,0.5-0.8,0.3-1.2l-1-2.3C27,8.1,26.5,7.8,26,8l-1.8,0.5c-0.4,0.1-0.8,0-1-0.3C22.9,7.8,22.4,7.4,22,7
			c-0.3-0.2-0.5-0.6-0.4-1l0.3-1.9C22,3.6,21.7,3.2,21.2,3l-2.4-0.9c-0.5-0.2-0.9,0-1.2,0.4l-0.9,1.6c-0.2,0.3-0.6,0.5-1,0.5
			c-0.6-0.1-1.2,0-1.7,0.1c-0.4,0.1-0.8-0.1-1-0.5l-1.1-1.6c-0.3-0.4-0.8-0.5-1.2-0.3l-2.3,1C8,3.5,7.7,4,7.8,4.5l0.5,1.8
			c0.1,0.4,0,0.8-0.3,1C7.7,7.8,7.3,8.2,6.9,8.6C6.7,8.9,6.3,9.1,5.9,9L4,8.7C3.5,8.6,3,8.9,2.9,9.3L2,11.7
			C1.6,12.1,1.8,12.6,2.2,12.8 M9.7,13.3c1-2.9,4.3-4.4,7.2-3.4s4.4,4.3,3.4,7.2s-4.3,4.4-7.2,3.4C10.2,19.5,8.7,16.3,9.7,13.3
			 M23.9,34.3c-0.2,0.2-0.1,0.5,0.1,0.8l1,1c0.2,0.2,0.5,0.2,0.8,0.1l0.9-0.6c0.2-0.1,0.5-0.2,0.6-0.1c0.3,0.2,0.6,0.3,0.9,0.4
			c0.2,0.1,0.4,0.3,0.4,0.5l0.2,1.2c0.1,0.3,0.3,0.5,0.6,0.5h1.5c0.3,0,0.5-0.2,0.6-0.5l0.2-1.2c0.1-0.2,0.2-0.4,0.4-0.5
			c0.3-0.1,0.6-0.2,0.9-0.4c0.2-0.1,0.5-0.1,0.6,0.1l0.9,0.7c0.2,0.2,0.6,0.1,0.8-0.1l1-1c0.2-0.2,0.2-0.5,0.1-0.8l-0.6-0.9
			c-0.1-0.2-0.2-0.5-0.1-0.6c0.2-0.3,0.3-0.6,0.4-0.9c0.1-0.2,0.3-0.4,0.5-0.4l1.2-0.2c0.3-0.1,0.5-0.3,0.5-0.6v-1.5
			c0-0.3-0.2-0.5-0.5-0.6l-1.1-0.2c-0.2-0.1-0.4-0.2-0.5-0.5s-0.2-0.6-0.3-0.9c-0.1-0.2-0.1-0.5,0.1-0.6l0.7-0.9
			c0.2-0.2,0.1-0.6-0.1-0.8l-1-1c-0.2-0.2-0.5-0.2-0.8-0.1l-0.9,0.6c-0.2,0.1-0.5,0.2-0.6,0.1c-0.3-0.2-0.6-0.3-0.9-0.4
			c-0.2-0.1-0.4-0.3-0.4-0.5l-0.2-1.2c-0.1-0.3-0.3-0.5-0.6-0.5h-1.5c-0.3,0-0.5,0.2-0.6,0.5l-0.2,1.1c-0.1,0.2-0.2,0.4-0.5,0.5
			s-0.6,0.2-0.9,0.3c-0.2,0.1-0.5,0.1-0.6-0.1L26,23.4c-0.2-0.2-0.6-0.1-0.8,0.1l-1,1C24,24.7,24,25,24.1,25.3l0.6,0.9
			c0.1,0.2,0.2,0.5,0.1,0.6c-0.2,0.3-0.3,0.6-0.4,1c-0.1,0.2-0.3,0.4-0.5,0.4l-1.2,0.2c-0.3,0.1-0.5,0.3-0.5,0.6v1.5
			c0,0.3,0.2,0.5,0.5,0.6l1.2,0.2c0.2,0.1,0.4,0.2,0.5,0.4c0.1,0.3,0.2,0.6,0.4,0.9c0.1,0.2,0.1,0.5-0.1,0.6L23.9,34.3z M27.9,27.6
			c1.3-1.3,3.4-1.3,4.7-0.1c1.3,1.3,1.3,3.4,0.1,4.7c-1.3,1.3-3.4,1.3-4.7,0.1C26.6,31,26.6,28.9,27.9,27.6"/>
	</g>
</g>
</svg>
