<?xml version="1.0" encoding="utf-8"?>
<!-- Generator: Adobe Illustrator 21.0.0, SVG Export Plug-In . SVG Version: 6.00 Build 0)  -->
<svg version="1.1" id="Layer_1" xmlns="http://www.w3.org/2000/svg" xmlns:xlink="http://www.w3.org/1999/xlink" x="0px" y="0px"
	 viewBox="0 0 40 40" style="enable-background:new 0 0 40 40;" xml:space="preserve">
<style type="text/css">
	.st0{fill:#FFFFFF;enable-background:new    ;}
</style>
<path class="st0" d="M12.3,1.2C6.2,1.2,0.6,6.8,0.6,13s5.6,11.8,11.8,11.8c0.6,0,1.3-0.1,1.9-0.2c0.9-4.8,4.9-8.8,9.7-9.7
	c0.1-0.6,0.2-1.2,0.2-1.9C24.1,6.8,18.5,1.2,12.3,1.2z M12.3,6.9c0.9,0,1.7,0.8,1.7,1.7v2.8h2.7c0.9,0,1.7,0.8,1.7,1.7
	s-0.8,1.7-1.7,1.7H14v2.7c0,0.9-0.8,1.7-1.7,1.7s-1.7-0.8-1.7-1.7v-2.7H7.9c-0.9,0-1.7-0.8-1.7-1.7s0.8-1.7,1.7-1.7h2.8V8.5
	C10.7,7.7,11.5,6.9,12.3,6.9z"/>
<path class="st0" d="M27.2,16.1c-6.2,0-11.8,5.6-11.8,11.8S21,39.7,27.2,39.7C33.4,39.6,39,34,39,27.8C39,21.7,33.4,16.1,27.2,16.1z
	 M22.8,26.2h8.8c0.9,0,1.7,0.8,1.7,1.7c0,0.9-0.8,1.7-1.7,1.7h-8.8c-0.9,0-1.7-0.8-1.7-1.7C21.1,27,21.9,26.2,22.8,26.2z"/>
</svg>
