<?xml version="1.0" encoding="utf-8"?>
<!-- Generator: Adobe Illustrator 21.0.0, SVG Export Plug-In . SVG Version: 6.00 Build 0)  -->
<svg version="1.1" id="Layer_1" xmlns="http://www.w3.org/2000/svg" xmlns:xlink="http://www.w3.org/1999/xlink" x="0px" y="0px"
	 viewBox="0 0 40 40" style="enable-background:new 0 0 40 40;" xml:space="preserve">
<style type="text/css">
	.st0{fill:#FFFFFF;enable-background:new    ;}
</style>
<path class="st0" d="M36.9,2.5H3.1c-0.3,0-0.6,0.3-0.6,0.6v33.8c0,0.3,0.3,0.6,0.6,0.6h33.8c0.3,0,0.6-0.3,0.6-0.6V3.1
	C37.5,2.8,37.2,2.5,36.9,2.5z M14.2,3.7h1.2c0,16.2,1.8,29.5,21,29.8v1.2c-8.4-0.3-14-2.2-17.4-5.9C14.9,24.2,13.5,17,14.2,3.7z
	 M36.3,17.7c-7-0.3-12-6.1-12.2-14h3.5c0.2,5,3.5,10.1,8.7,10.5V17.7z M36.3,18.8v2.9c-8.9-0.3-14.3-9.2-14.5-18H23
	C23.2,12.3,28.7,18.5,36.3,18.8z M36.3,22.9v2.3C25.9,24.8,20.2,14,20,3.7h0.6C20.8,13,26.7,22.5,36.3,22.9z M36.3,26.4v2.3
	c-11.3-0.2-17.4-8.7-18-25h0.6C19.1,14.6,25.2,26,36.3,26.4z M36.3,29.9v2.3C18.2,32,16.5,19.7,16.5,3.7h0.6
	C17.8,20.8,24.2,29.6,36.3,29.9z M36.3,13c-4.5-0.4-7.3-4.9-7.6-9.3h7.6V13z M3.7,27.9c1.4-1.5,3.9-11,3.5-24.3h1.2
	C8.3,21,6,30.7,3.7,32.1V27.9z M6,3.7C6.3,14.5,4.7,22,3.7,25.3V3.7H6z M3.7,36.3v-3c3.6-1,5.8-11.9,5.8-29.7h1.2
	c0,24.1-2.7,32.7-5.3,32.7H3.7z M10.7,36.3c0.3-2.6,2.7-4.4,5.2-4c2.1,0.3,3.7,1.9,4,4H10.7z M21.2,36.3c-0.3-3.2-3.2-5.5-6.4-5.2
	c-2.8,0.3-4.9,2.5-5.2,5.2H7.5C11,32,11.8,16.9,11.8,3.6H13c-0.6,11.5,0.1,20.3,5.1,25.8c3.6,4,9.4,6,18.2,6.3v0.6
	C36.3,36.3,21.2,36.3,21.2,36.3z"/>
</svg>
