<?xml version="1.0" encoding="utf-8"?>
<!-- Generator: Adobe Illustrator 21.0.0, SVG Export Plug-In . SVG Version: 6.00 Build 0)  -->
<svg version="1.1" id="Layer_1" xmlns="http://www.w3.org/2000/svg" xmlns:xlink="http://www.w3.org/1999/xlink" x="0px" y="0px"
	 viewBox="0 0 46.8 46.8" style="enable-background:new 0 0 46.8 46.8;" xml:space="preserve">
<style type="text/css">
	.st0{fill:#FFFFFF;stroke:#FFFFFF;stroke-miterlimit:10;}
</style>
<g>
	<path class="st0" d="M24.2,37.1H3.8V8.4h26.4h1.1v-4c0-0.9-0.7-1.7-1.6-1.7H4.3c-0.9,0-1.6,0.7-1.6,1.7v37.8c0,0.9,0.7,1.7,1.6,1.7
		H25c-0.5-0.7-0.8-1.5-0.8-2.5L24.2,37.1L24.2,37.1z M13.9,5.2h6.3c0.2,0,0.4,0.2,0.4,0.4c0,0.3-0.2,0.4-0.4,0.4h-6.3
		c-0.3,0-0.4-0.2-0.4-0.4C13.4,5.3,13.6,5.2,13.9,5.2z M17,41.8c-0.7,0-1.2-0.6-1.2-1.3s0.6-1.3,1.2-1.3c0.7,0,1.2,0.6,1.2,1.3
		C18.2,41.2,17.7,41.8,17,41.8z"/>
	<path class="st0" d="M41.7,12h-12c-1.3,0-2.3,1-2.3,2.3v27.3c0,1.3,1,2.3,2.3,2.3h12c1.3,0,2.3-1,2.3-2.3V14.3C44,13,43,12,41.7,12
		z M32.7,13.8h6c0.2,0,0.4,0.2,0.4,0.4c0,0.2-0.2,0.4-0.4,0.4h-6c-0.2,0-0.4-0.2-0.4-0.4C32.3,14,32.5,13.8,32.7,13.8z M35.7,41.9
		c-0.7,0-1.2-0.5-1.2-1.2c0-0.7,0.5-1.2,1.2-1.2c0.7,0,1.2,0.5,1.2,1.2C36.9,41.4,36.3,41.9,35.7,41.9z M42.9,37.5H28.5v-21h14.4
		V37.5z"/>
</g>
</svg>
