<?xml version="1.0" encoding="utf-8"?>
<!-- Generator: Adobe Illustrator 21.0.0, SVG Export Plug-In . SVG Version: 6.00 Build 0)  -->
<svg version="1.1" id="Layer_1" xmlns="http://www.w3.org/2000/svg" xmlns:xlink="http://www.w3.org/1999/xlink" x="0px" y="0px"
	 viewBox="0 0 46 46" style="enable-background:new 0 0 46 46;" xml:space="preserve">
<style type="text/css">
	.st0{fill:#FFFFFF;}
</style>
<g>
	<g>
		<path class="st0" d="M39.5,2.6c-2.7,0-5,2.2-5,5c0,1.3,0.5,2.6,1.5,3.5c0.2,0.2,0.5,0.4,0.8,0.6l-4.1,11.1c-0.1,0-0.3,0-0.4,0
			c-1.9,0-3.6,1.1-4.4,2.7l-7.2-3c0-0.1,0-0.3,0-0.4c0-2.7-2.2-5-5-5s-5,2.2-5,5c0,1.2,0.4,2.3,1.2,3.2l-4.6,8.4
			c-0.3-0.1-0.7-0.1-1.1-0.1c-2.7,0-5,2.2-5,5c0,2.7,2.2,5,5,5s5-2.2,5-5c0-1.2-0.4-2.4-1.2-3.3l4.6-8.3c0.4,0.1,0.8,0.1,1.3,0.1
			c1.5,0,2.9-0.7,3.8-1.8l7.9,3.2c0.4,2.3,2.4,4.1,4.9,4.1c2.7,0,5-2.2,5-5c0-1.5-0.6-2.9-1.8-3.8l4.2-11.5c2.4-0.1,4.4-1.9,4.7-4.2
			c0-0.2,0-0.5,0-0.7C44.5,4.8,42.2,2.6,39.5,2.6z M6.2,40.6c-1.1,0-2-0.9-2-2s0.9-2,2-2c0.5,0,0.9,0.2,1.3,0.5
			c0.4,0.4,0.7,0.9,0.7,1.5C8.2,39.7,7.3,40.6,6.2,40.6z M17.7,22.5c-0.1,0.9-1,1.7-1.9,1.7c-0.5,0-1-0.2-1.4-0.6s-0.6-0.9-0.6-1.4
			c0-1.1,0.9-2,2-2s2,0.9,2,2C17.8,22.2,17.7,22.4,17.7,22.5z M32.3,29.8c-1.1,0-2-0.9-2-2c0-0.1,0-0.3,0-0.4c0.2-0.9,1-1.6,1.9-1.6
			c0.4,0,0.7,0.1,1,0.3c0.6,0.3,0.9,1,0.9,1.7C34.3,28.9,33.4,29.8,32.3,29.8z M41.5,7.8c-0.1,0.9-1,1.7-1.9,1.7
			c-0.3,0-0.7-0.1-1-0.3c-0.1-0.1-0.3-0.2-0.4-0.3c-0.4-0.4-0.6-0.9-0.6-1.4c0-1.1,0.9-2,2-2s2,0.9,2,2C41.5,7.6,41.5,7.7,41.5,7.8z
			"/>
	</g>
</g>
</svg>
