<?xml version="1.0" encoding="utf-8"?>
<!-- Generator: Adobe Illustrator 21.0.0, SVG Export Plug-In . SVG Version: 6.00 Build 0)  -->
<svg version="1.1" id="Layer_1" xmlns="http://www.w3.org/2000/svg" xmlns:xlink="http://www.w3.org/1999/xlink" x="0px" y="0px"
	 viewBox="0 0 40 40" style="enable-background:new 0 0 40 40;" xml:space="preserve">
<style type="text/css">
	.st0{fill:#FFFFFF;}
</style>
<path class="st0" d="M23.9,1.3c-8.4,0-15.2,6-15.2,13.4S15.5,28,23.9,28c3.1,0,5.9-0.8,8.3-2.2c2.2,1.3,4.5,1.3,5.8,1.1
	c0.4-0.1,0.5-0.6,0.2-0.8c-1.3-0.9-2-2.1-2.4-3.1c2.1-2.3,3.4-5.2,3.4-8.4C39.2,7.2,32.3,1.3,23.9,1.3z M24.9,20.1
	c0,0.4-0.3,0.6-0.6,0.6h-1.6c-0.4,0-0.6-0.3-0.6-0.6v-1c0-0.4,0.3-0.6,0.6-0.6h1.6c0.4,0,0.6,0.3,0.6,0.6V20.1z M27.4,14.1
	c-0.4,0.6-0.9,1-1.6,1.4c-0.4,0.3-0.6,0.5-0.7,0.8c-0.1,0.2-0.2,0.4-0.2,0.7c0,0.2-0.2,0.4-0.4,0.4h-1.9c-0.3,0-0.5-0.2-0.4-0.5
	c0.1-0.6,0.2-1,0.4-1.3c0.3-0.4,0.8-0.8,1.5-1.3c0.4-0.3,0.7-0.5,0.9-0.9s0.3-0.7,0.3-1.2c0-0.5-0.1-0.8-0.4-1.1
	c-0.3-0.3-0.6-0.4-1.1-0.4c-0.4,0-0.7,0.1-0.9,0.4c-0.2,0.2-0.3,0.3-0.3,0.6c-0.1,0.3-0.4,0.5-0.6,0.5l-1.8-0.1
	c-0.2,0-0.4-0.2-0.4-0.4c0.1-1,0.4-1.7,1.1-2.2c0.8-0.6,1.7-0.9,2.9-0.9c1.3,0,2.3,0.3,3.1,1c0.8,0.7,1.1,1.5,1.1,2.6
	C28,12.9,27.8,13.5,27.4,14.1z M3.7,34.6c-1.8-1.9-2.8-4.3-2.8-7c0-3.9,2.3-7.2,5.6-9.2c1.9,7,8.9,12.3,17.4,12.3
	c0.7,0,1.3-0.1,1.9-0.1c-1.5,4.7-6.4,8.2-12.2,8.2c-2.6,0-4.9-0.7-6.9-1.8C4.9,38,3,38,1.9,37.8c-0.3-0.1-0.4-0.5-0.2-0.7
	C2.8,36.5,3.4,35.5,3.7,34.6z"/>
</svg>
