<?xml version="1.0" encoding="utf-8"?>
<!-- Generator: Adobe Illustrator 21.0.0, SVG Export Plug-In . SVG Version: 6.00 Build 0)  -->
<svg version="1.1" id="Layer_1" xmlns="http://www.w3.org/2000/svg" xmlns:xlink="http://www.w3.org/1999/xlink" x="0px" y="0px"
	 viewBox="0 0 46.8 46.8" style="enable-background:new 0 0 46.8 46.8;" xml:space="preserve">
<style type="text/css">
	.st0{fill:#FFFFFF;stroke:#FFFFFF;stroke-width:0.5;stroke-miterlimit:10;enable-background:new    ;}
</style>
<path class="st0" d="M45.1,38.6l-5.7-14.2c-0.6-1.5-2.2-2.5-3.7-2.5h-6l0.8-1.6c0.3-0.5,0.5-1,0.5-1s0.2-0.5,0.5-1
	c0,0,1.3-2.5,1.3-4.5c0-5.2-4.2-9.4-9.5-9.4c-5.2,0-9.5,4.2-9.5,9.4c0,2,1.3,4.5,1.3,4.5c0.3,0.5,0.5,0.9,0.5,0.9s0.2,0.5,0.5,1
	l0.8,1.6h-6c-1.5,0-3.2,1-3.7,2.5L1.6,38.6c-0.4,0.9-0.3,1.8,0.2,2.5s1.3,1.1,2.2,1.1h38.8c0.9,0,1.7-0.4,2.2-1.2
	C45.4,40.4,45.5,39.5,45.1,38.6z M23.4,8.3c2.8,0,5.1,2.4,5.1,5.3s-2.3,5.3-5.1,5.3s-5.1-2.4-5.1-5.3S20.6,8.3,23.4,8.3z M4.2,39.4
	l5.6-14.1c0.2-0.4,0.8-0.9,1.2-0.9h7.6l4.2,7.1c0.3,0.5,0.8,0.5,1.1,0l4.2-7.1h7.6c0.4,0,1.1,0.5,1.2,0.9l5.6,14.1H4.2z"/>
</svg>
