<?xml version="1.0" encoding="utf-8"?>
<!-- Generator: Adobe Illustrator 21.0.0, SVG Export Plug-In . SVG Version: 6.00 Build 0)  -->
<svg version="1.1" id="Layer_1" xmlns="http://www.w3.org/2000/svg" xmlns:xlink="http://www.w3.org/1999/xlink" x="0px" y="0px"
	 viewBox="0 0 40 40" style="enable-background:new 0 0 40 40;" xml:space="preserve">
<style type="text/css">
	.st0{fill:#FFFFFF;}
</style>
<g>
	<path class="st0" d="M23.8,2L23.8,2v0.3v8.8c0,0.2,0.2,0.4,0.4,0.4h9.1l0,0L24,2.2L23.8,2z"/>
	<path class="st0" d="M32.9,15.3H20v-0.4v-3.4V2.4C20,2.2,19.8,2,19.6,2H7.1C6.9,2,6.7,2.2,6.7,2.4v35.3c0,0.2,0.2,0.4,0.4,0.4h25.8
		c0.2,0,0.4-0.2,0.4-0.4v-22C33.3,15.4,33.1,15.3,32.9,15.3z M29.5,31.9c0,0.2-0.2,0.4-0.4,0.4H10.9c-0.2,0-0.4-0.2-0.4-0.4v-3
		c0-0.2,0.2-0.4,0.4-0.4h18.2c0.2,0,0.4,0.2,0.4,0.4V31.9z M29.5,24.4c0,0.2-0.2,0.4-0.4,0.4H10.9c-0.2,0-0.4-0.2-0.4-0.4v-3
		c0-0.2,0.2-0.4,0.4-0.4h18.2c0.2,0,0.4,0.2,0.4,0.4V24.4z"/>
</g>
</svg>
