<?xml version="1.0" encoding="utf-8"?>
<!-- Generator: Adobe Illustrator 21.0.0, SVG Export Plug-In . SVG Version: 6.00 Build 0)  -->
<svg version="1.1" id="Layer_1" xmlns="http://www.w3.org/2000/svg" xmlns:xlink="http://www.w3.org/1999/xlink" x="0px" y="0px"
	 viewBox="0 0 40 40" style="enable-background:new 0 0 40 40;" xml:space="preserve">
<style type="text/css">
	.st0{fill:#FFFFFF;}
</style>
<g>
	<g>
		<path class="st0" d="M35.5,6.2h-1.7V4.5c0-0.9-0.8-1.7-1.7-1.7c-0.9,0-1.7,0.8-1.7,1.7v1.7h-3.4V4.5c0-0.9-0.8-1.7-1.7-1.7
			c-0.9,0-1.7,0.8-1.7,1.7v1.7h-6.9V4.5c0-0.9-0.8-1.7-1.7-1.7c-0.9,0-1.7,0.8-1.7,1.7v1.7H9.7V4.5c0-0.9-0.8-1.7-1.7-1.7
			S6.2,3.5,6.2,4.5v1.7H4.5C3.5,6.2,2.8,7,2.8,7.9v27.6c0,0.9,0.8,1.7,1.7,1.7h25.1c0.5,0,0.9-0.2,1.2-0.5l5.9-5.9
			c0.3-0.3,0.5-0.8,0.5-1.2V7.9C37.2,7,36.5,6.2,35.5,6.2z M33.8,27.9c0,0.4-0.3,0.7-0.7,0.7h-3.8c-0.4,0-0.7,0.3-0.7,0.7v3.8
			c0,0.4-0.3,0.7-0.7,0.7h-21c-0.4,0-0.7-0.3-0.7-0.7V13.8c0-0.4,0.3-0.7,0.7-0.7h26.2c0.4,0,0.7,0.3,0.7,0.7V27.9z"/>
		<path class="st0" d="M14.1,16.6h-2.1c-0.4,0-0.7,0.3-0.7,0.7v2.1c0,0.4,0.3,0.7,0.7,0.7h2.1c0.4,0,0.7-0.3,0.7-0.7v-2.1
			C14.8,16.9,14.5,16.6,14.1,16.6z"/>
		<path class="st0" d="M21,16.6H19c-0.4,0-0.7,0.3-0.7,0.7v2.1c0,0.4,0.3,0.7,0.7,0.7H21c0.4,0,0.7-0.3,0.7-0.7v-2.1
			C21.7,16.9,21.4,16.6,21,16.6z"/>
		<path class="st0" d="M27.9,16.6h-2.1c-0.4,0-0.7,0.3-0.7,0.7v2.1c0,0.4,0.3,0.7,0.7,0.7h2.1c0.4,0,0.7-0.3,0.7-0.7v-2.1
			C28.6,16.9,28.3,16.6,27.9,16.6z"/>
		<path class="st0" d="M14.1,23.4h-2.1c-0.4,0-0.7,0.3-0.7,0.7v2.1c0,0.4,0.3,0.7,0.7,0.7h2.1c0.4,0,0.7-0.3,0.7-0.7v-2.1
			C14.8,23.8,14.5,23.4,14.1,23.4z"/>
		<path class="st0" d="M21,23.4H19c-0.4,0-0.7,0.3-0.7,0.7v2.1c0,0.4,0.3,0.7,0.7,0.7H21c0.4,0,0.7-0.3,0.7-0.7v-2.1
			C21.7,23.8,21.4,23.4,21,23.4z"/>
		<path class="st0" d="M27.9,23.4h-2.1c-0.4,0-0.7,0.3-0.7,0.7v2.1c0,0.4,0.3,0.7,0.7,0.7h2.1c0.4,0,0.7-0.3,0.7-0.7v-2.1
			C28.6,23.8,28.3,23.4,27.9,23.4z"/>
	</g>
</g>
</svg>
