<?xml version="1.0" encoding="utf-8"?>
<!-- Generator: Adobe Illustrator 21.0.0, SVG Export Plug-In . SVG Version: 6.00 Build 0)  -->
<svg version="1.1" id="Layer_1" xmlns="http://www.w3.org/2000/svg" xmlns:xlink="http://www.w3.org/1999/xlink" x="0px" y="0px"
	 viewBox="0 0 40 40" style="enable-background:new 0 0 40 40;" xml:space="preserve">
<style type="text/css">
	.st0{fill:#FFFFFF;stroke:#FFFFFF;stroke-width:0.25;stroke-miterlimit:10;}
</style>
<g>
	<g>
		<path class="st0" d="M37.8,36.5H2.2c-0.4,0-0.8-0.5-0.8-1v-31c0-0.6,0.3-1,0.8-1h35.6c0.4,0,0.8,0.5,0.8,1v31
			C38.6,36,38.2,36.5,37.8,36.5z M3,34.4h34V5.6H3V34.4z"/>
	</g>
	<g>
		<path class="st0" d="M37.8,11.7H2.2c-0.4,0-0.8-0.5-0.8-1c0-0.6,0.3-1,0.8-1h35.6c0.4,0,0.8,0.5,0.8,1
			C38.6,11.3,38.2,11.7,37.8,11.7z"/>
	</g>
	<g>
		<path class="st0" d="M37.8,20H2.2c-0.4,0-0.8-0.5-0.8-1s0.3-1,0.8-1h35.6c0.4,0,0.8,0.5,0.8,1S38.2,20,37.8,20z"/>
	</g>
	<g>
		<path class="st0" d="M37.8,28.3H2.2c-0.4,0-0.8-0.5-0.8-1s0.3-1,0.8-1h35.6c0.4,0,0.8,0.5,0.8,1S38.2,28.3,37.8,28.3z"/>
	</g>
	<g>
		<path class="st0" d="M14.6,36.5c-0.4,0-0.8-0.5-0.8-1V10.7c0-0.6,0.3-1,0.8-1c0.4,0,0.8,0.5,0.8,1v24.8
			C15.4,36,15.1,36.5,14.6,36.5z"/>
	</g>
	<g>
		<path class="st0" d="M25.4,36.5c-0.4,0-0.8-0.5-0.8-1V11.7c0-0.6,0.3-1,0.8-1s0.8,0.5,0.8,1v23.7C26.2,36,25.8,36.5,25.4,36.5z"/>
	</g>
</g>
</svg>
