<svg id="Layer_1" xmlns="http://www.w3.org/2000/svg" viewBox="0 0 926.7 970"><style>.st0{fill:#fff}</style><path class="st0" d="M417.4 203.4c8.1-15.9 19.1-31.6 33.6-47 14.4 15.4 25.5 31.1 33.5 47 3.3 6.4 6.1 12.9 8.3 19.4 5.1 15.1 7.5 30.3 6.9 45.6-.1 1.4-.2 2.7-.3 4.1-1.3 18.4-6.6 35.1-13.4 49.6-3.6 7.7-7.7 14.7-11.8 21.1-5.9 9-11.9 16.6-16.9 22.3-2.4 2.7-4.5 5-6.4 6.9-1.8-1.9-4-4.2-6.4-6.9-5-5.7-11-13.3-16.9-22.3-4.1-6.3-8.1-13.3-11.8-21-6.9-14.5-12.1-31.3-13.4-49.7-.1-1.4-.3-2.7-.3-4.1-.6-15.3 1.8-30.5 6.9-45.6 2.3-6.5 5.1-13 8.4-19.4M397.8 327c5.5 12.2 11.9 23 18.3 32.1 3.2 4.6 6.4 8.8 9.5 12.5 9.1 11 16.5 17.9 18.7 19.8.3.2.6.5.7.6l6 5.1 5.9-5.1c.1-.1.4-.4.7-.6 2.2-2 9.6-8.8 18.7-19.8 3.1-3.7 6.3-7.9 9.5-12.5 6.4-9.1 12.8-19.8 18.2-32 6.6-14.6 11.6-31.3 13.3-49.7.3-2.7.6-5.3.7-8.1.3-8.3-.3-16.6-1.5-24.8-1.8-12.9-5.3-25.6-10.6-38.2-2.5-5.9-5.3-11.8-8.6-17.7-9.9-17.7-23.1-34.9-40-51.8l-6.5-6.5-6.5 6.5c-16.9 16.9-30.1 34.2-40 51.8-3.3 5.8-6.1 11.7-8.6 17.6-5.3 12.6-8.8 25.3-10.6 38.2-1.1 8.2-1.8 16.5-1.5 24.8.1 2.7.4 5.4.7 8 1.9 18.5 6.9 35.1 13.5 49.8m-187.2-10.4c3.2 0 6.2.3 9.3.5 7.4.4 14.4 1.2 21 2.6 18.1 3.6 33.4 10.2 46.2 18.7 16 10.6 28.1 23.9 37.4 37.3 4.7 6.9 8.7 13.7 12 20.3 4.8 9.6 8.3 18.5 10.7 25.6 1.1 3.3 2 6.4 2.7 8.9-2.5.6-5.7 1.4-9.2 2.1-7.5 1.5-17 2.9-27.7 3.5-3.2.2-6.4.3-9.8.3-4.6 0-9.4-.2-14.2-.6-16.3-1.3-33.5-5.3-50.2-13.4-14-6.8-27.5-16.6-39.8-30.5-4.4-5-8.6-10.6-12.6-16.7-9.4-14.3-17.7-31.5-24.1-52.6 17-4 33.2-6 48.3-6m-43.5 62.1c3.6 5.9 7.3 11.3 11.2 16.4 8.6 11.2 17.9 20.6 27.6 28.1 9.4 7.3 19.1 12.8 28.8 17.2 17 7.7 34 11.7 49 13.3 7 .7 13.5 1.1 19.5 1.1 6.2 0 12-.4 17.6-.9s10.9-1.1 15.7-1.9c14.4-2.3 24-5.3 26.6-6.2.3-.1.8-.3.9-.3l7.4-2.6-1.4-7.7c0-.1-.1-.4-.2-.9-.6-2.8-3-12.8-8.1-26.2-1.8-4.5-3.9-9.4-6.3-14.6-4.8-10.2-11.1-21.3-19.1-32.3-9.2-12.6-20.8-24.9-35.2-35.2-8.7-6.3-18.6-11.9-29.5-16.4-11.5-4.7-24.3-8.2-38.5-10-6.3-.8-12.8-1.2-19.6-1.3-1 0-1.9-.1-2.8-.1-19.4 0-40.3 3-62.1 8.8l-8.9 2.4 2.4 8.8c6.4 24.2 15.1 44 25 60.5"/><path class="st0" d="M237.6 357.8c1 0 1.8.2 2.8.3 13.8.7 24 5.9 31.2 12.7 2.3 2.2 4.3 4.5 6.1 6.8 1 1.3 1.8 2.6 2.7 3.9 2.9 4.6 5 9 6.3 12.7-3.3.5-7.3 1-11.8 1-1.5 0-3-.2-4.5-.3-.9-.1-2-.1-2.9-.2-3.2-.4-6.2-.9-9.1-1.8-11-3.3-19.7-10.2-26.3-20.5-2.6-4-4.9-8.5-6.8-13.6 4.3-.7 8.5-1 12.3-1m-26.3 14.7c3.3 7.1 7.2 13.1 11.4 17.9 16.6 19.3 38.2 23 52.3 23 3.7 0 7.1-.2 10.2-.6 9.4-1.1 15.8-3.3 16.1-3.4l5.5-1.9 1.9-.7-.3-1.8-1.1-5.9c-.8-4.5-2.5-9.8-4.9-15.4-7.5-17.5-23.3-37.6-50.8-42.8-4.4-.8-8.9-1.3-13.9-1.3-2.3 0-4.9.3-7.3.5-6.2.5-12.5 1.4-19.1 3.2l-8.9 2.4 2.4 8.8c1.7 6.7 4 12.6 6.5 18m8.7 287.8c-3.1.2-6.1.5-9.3.5-15.1 0-31.3-2-48.3-5.9 6.4-21.1 14.7-38.3 24.1-52.6 4-6.1 8.2-11.7 12.6-16.7 12.2-13.9 25.8-23.7 39.8-30.5 16.7-8.2 33.9-12.1 50.2-13.4 4.8-.4 9.6-.7 14.2-.7 3.4 0 6.7.1 9.8.3 10.8.6 20.3 2 27.8 3.5 3.5.7 6.6 1.4 9.1 2.1-.7 2.5-1.7 5.7-2.9 9.1-2.5 7.2-6 16.1-11 25.7-3.5 6.8-7.7 13.9-12.7 21-9 12.7-20.6 25.2-35.5 35.4-13 8.9-28.5 15.9-46.9 19.7-6.6 1.2-13.7 2-21 2.5m51.6 7.3c11-4.5 20.8-10.1 29.5-16.4 14.4-10.4 25.9-22.7 35.1-35.2 8-10.9 14.3-22.1 19.1-32.3 2.4-5.1 4.5-10 6.3-14.6 5.2-13.3 7.5-23.2 8.1-26.1.1-.5.2-.9.2-.9l1.4-7.7-7.4-2.6c-.1 0-.5-.2-.9-.3-2.5-.9-12.2-3.9-26.6-6.2-4.7-.8-10.1-1.4-15.7-1.9-5.5-.5-11.3-.8-17.6-.8-5.9 0-12.5.3-19.5 1.1-15 1.7-32 5.6-49 13.3-9.7 4.4-19.4 9.9-28.8 17.2-9.7 7.5-18.9 16.9-27.6 28.1-3.9 5-7.6 10.5-11.2 16.4-10 16.5-18.6 36.3-25.1 60.3l-2.4 8.8 8.8 2.4c21.9 5.8 42.8 8.8 62.1 8.8 1 0 1.9-.1 2.9-.1 6.8-.1 13.3-.5 19.6-1.3 14.4-1.8 27.1-5.3 38.7-10"/><path class="st0" d="M240.4 619.3c-1 .1-1.8.3-2.8.3-3.9 0-8-.3-12.3-1 1.9-5.1 4.3-9.6 6.8-13.6 6.6-10.3 15.3-17.2 26.2-20.4 2.9-.9 6-1.4 9.3-1.8 1-.1 2-.2 3.1-.2 1.4-.1 2.8-.3 4.3-.3 4.5 0 8.5.4 11.8 1-1.4 3.7-3.5 8.2-6.4 12.8-.8 1.3-1.6 2.5-2.6 3.8-1.8 2.3-3.7 4.6-6 6.7-7.3 6.8-17.5 12-31.4 12.7m61.9-25.6c2.4-5.6 4.1-11 4.9-15.4l1.1-5.8.4-1.9-1.9-.6-5.6-2c-.4-.1-6.7-2.3-16.1-3.4-3.1-.4-6.5-.6-10.2-.6-14.1 0-35.7 3.7-52.3 23-4.2 4.9-8.1 10.8-11.4 17.9-2.5 5.3-4.7 11.3-6.5 18l-2.4 8.8 8.9 2.4c6.6 1.8 13 2.7 19.2 3.2 2.4.2 4.9.5 7.3.5 4.9 0 9.5-.5 13.9-1.4 27.4-5.1 43.2-25.2 50.7-42.7m194.8 180.2c-8.1 15.9-19.1 31.6-33.5 47-14.5-15.4-25.5-31.1-33.6-47-3.3-6.4-6.1-12.9-8.3-19.4-5.1-15.1-7.5-30.3-7-45.6 0-1.4.2-2.7.3-4.1 1.3-18.4 6.6-35.2 13.4-49.7 3.7-7.7 7.7-14.7 11.8-21.1 5.9-9 11.9-16.6 16.9-22.3 2.4-2.7 4.6-5 6.4-6.9 1.8 1.9 4 4.2 6.4 6.9 5 5.7 11 13.2 16.9 22.3 4.1 6.3 8.1 13.3 11.7 21 6.8 14.5 12.1 31.3 13.4 49.8.1 1.3.3 2.6.3 3.9.6 15.4-1.8 30.6-6.9 45.7-2.2 6.6-5 13.1-8.2 19.5m19.5-123.5c-5.5-12.2-11.9-23-18.3-32.1-3.2-4.6-6.4-8.8-9.5-12.5-9-11-16.5-17.8-18.7-19.8-.3-.3-.6-.5-.7-.6l-5.9-5.1-6 5.1c-.1.1-.4.4-.7.6-2.2 1.9-9.6 8.7-18.7 19.8-3 3.7-6.3 7.9-9.5 12.5-6.4 9.1-12.8 19.8-18.2 31.9-6.6 14.6-11.6 31.4-13.3 49.8-.3 2.7-.6 5.3-.7 8-.3 8.3.3 16.6 1.5 24.8 1.8 12.9 5.3 25.6 10.6 38.2 2.5 5.9 5.3 11.8 8.6 17.7 9.9 17.6 23.1 34.9 40 51.8l6.5 6.4 6.5-6.4c16.9-16.9 30.1-34.2 40-51.8 3.3-5.8 6.1-11.7 8.6-17.6 5.3-12.6 8.8-25.3 10.5-38.2 1.1-8.2 1.8-16.5 1.5-24.8-.1-2.7-.4-5.4-.7-8-1.8-18.4-6.8-35.1-13.4-49.7"/><path class="st0" d="M463.5 748.4c-3.4-4.2-6-8.4-8.2-12.6-4.1-7.9-6.3-16-6-24 .1-3.4.7-6.6 1.5-9.7 1-2.5 2-5.1 2.9-7.6.5-1.4 1.2-2.9 1.7-4.4 2.6-5 5.5-9.3 8.1-12.4 2.5 3.1 5.5 7.2 8 12.1.5 1.6 1.2 3.1 1.8 4.7.9 2.6 2 5.2 3 7.8.7 3 1.3 6.2 1.4 9.5.3 8-1.9 16-6 23.9-2.2 4.3-4.8 8.5-8.2 12.7m5.9-90.8l-4.5-3.8-1.5-1.3-1.5 1.3-4.5 3.8c-.5.4-5.5 4.9-11 12.3-7 9.4-14.9 23.5-15.6 41.1-.3 8.1 1 16.1 3.8 23.9 2.2 6.4 5.5 12.7 9.8 18.8 3.5 5 7.6 9.9 12.4 14.8l6.5 6.5 6.5-6.5c4.8-4.8 9-9.7 12.5-14.8 4.3-6.2 7.5-12.4 9.8-18.8 2.8-7.8 4.1-15.7 3.8-23.9-.7-17.6-8.5-31.7-15.6-41.1-5.4-7.4-10.4-11.9-10.9-12.3m240.8-2.7c-3.2 0-6.2-.3-9.3-.5-7.4-.4-14.4-1.2-21-2.6-18.1-3.6-33.4-10.2-46.2-18.7-16-10.6-28.1-23.8-37.4-37.3-4.8-6.9-8.8-13.8-12.1-20.4-4.8-9.6-8.3-18.5-10.7-25.6-1.1-3.3-2-6.4-2.7-8.8 2.5-.6 5.7-1.4 9.2-2.1 7.5-1.5 17-2.9 27.8-3.5 3.2-.2 6.4-.3 9.8-.3 4.6 0 9.3.3 14.2.7 16.3 1.3 33.5 5.3 50.2 13.4 14 6.9 27.5 16.6 39.8 30.5 4.4 5 8.6 10.6 12.6 16.7 9.4 14.2 17.7 31.4 24.1 52.5-16.9 4.1-33.1 6-48.3 6m43.6-62c-3.5-5.9-7.3-11.3-11.2-16.4-8.6-11.2-17.9-20.6-27.6-28.1-9.4-7.3-19.1-12.8-28.8-17.2-17-7.7-34-11.7-49-13.3-7-.8-13.5-1.1-19.5-1.1-6.2 0-12 .4-17.6.8-5.6.5-10.9 1.1-15.6 1.9-14.4 2.3-24 5.3-26.6 6.2-.4.1-.8.3-.9.3l-7.4 2.6 1.4 7.7c0 .1.1.4.2.9.6 2.8 2.9 12.7 8.1 26.2 1.7 4.5 3.9 9.4 6.3 14.6 4.8 10.2 11.1 21.3 19.1 32.2 9.2 12.6 20.8 24.8 35.1 35.2 8.8 6.3 18.6 11.9 29.5 16.4 11.5 4.7 24.3 8.2 38.5 10 6.3.8 12.8 1.2 19.6 1.3 1 0 1.9.1 2.8.1 19.4 0 40.3-3 62.2-8.8l8.9-2.4-2.4-8.8c-6.5-24.1-15.2-43.8-25.1-60.3"/><path class="st0" d="M683.3 613.8c-1 0-1.8-.2-2.8-.3-13.8-.7-24-5.8-31.2-12.7-2.3-2.2-4.3-4.5-6.1-6.8-1-1.3-1.8-2.6-2.7-3.9-2.9-4.6-5-9-6.3-12.7 3.3-.5 7.3-1 11.8-1 1.6 0 3 .2 4.6.3.9.1 1.9.1 2.8.2 3.1.4 6.1.9 8.9 1.7 11 3.2 19.9 10.1 26.5 20.5 2.6 4 4.9 8.5 6.8 13.6-4.3.8-8.5 1.1-12.3 1.1m26.3-14.7c-3.3-7.1-7.2-13-11.4-17.9-16.6-19.3-38.2-23-52.2-23-3.7 0-7.1.2-10.2.6-9.4 1.1-15.8 3.3-16.1 3.4l-5.5 1.9-1.9.7.3 1.8 1.1 5.9c.8 4.5 2.4 9.8 4.9 15.4 7.5 17.5 23.3 37.6 50.8 42.8 4.3.8 8.9 1.3 13.9 1.3 2.3 0 4.9-.3 7.3-.5 6.2-.5 12.5-1.4 19.1-3.2l8.8-2.4-2.4-8.8c-1.7-6.7-4-12.7-6.5-18"/><path class="st0" d="M792.1 560.2c-8.8-10.9-17.9-20.7-27.4-29.5 17.6-9.8 34.8-22.9 51.6-39.6l6.5-6.5-6.5-6.5c-16.8-16.7-34-29.8-51.6-39.6 9.5-8.8 18.7-18.6 27.4-29.6 36.9 16.4 73.2 41.6 108.6 75.7-35.4 34-71.7 59.2-108.6 75.6m50 142.3c-35.1 8.7-68.6 13.2-99.6 13.2-11.3 0-22.1-.6-32.6-1.7-6.5-.7-12.9-1.5-19.1-2.6-13.5-2.4-26.1-5.6-38.1-9.7-6.8-2.3-13.4-4.8-19.7-7.5-7.4-3.2-14.4-6.7-21.2-10.5-10.3-5.7-20-12.1-28.9-18.8-2.7-2-5.2-4.1-7.8-6.2-.1-.4-.1-.8-.2-1.2-1.7-8.4-3.7-16.6-6-24.5-3.5-11.9-7.8-23.2-12.5-33.9-3.9-8.9-7.9-17.5-12.3-25.6-3.8-7.1-7.8-13.8-11.8-20.2-13.1-20.9-26.7-37.9-38-50.5-.3-.3-.5-.5-.7-.8-1.1-1.3-2.2-2.5-3.3-3.6-3-3.3-5.8-6.2-8.3-8.7l-.6-.6c3.8-1 8.4-2 13.3-3.1 1.5-.3 2.9-.6 4.5-1 .4-.1.9-.2 1.3-.3 16.1-3.2 37.1-6.1 60.7-6.8 3.2-.1 6.3-.2 9.5-.2 5.4 0 11 .1 16.6.4 13.6.7 27.6 2.2 41.8 5 2.6.5 5.2 1 7.8 1.6 9.3 2.1 18.6 4.6 27.9 7.8 1.9.6 3.8 1.3 5.6 2 2.8 1 5.5 2.1 8.2 3.2 10.7 4.3 21.3 9.5 31.8 15.7 6.7 3.9 13.4 8.3 19.9 13.1 5.6 4 11 8.5 16.4 13.1 9.5 8.3 18.7 17.6 27.5 28 4 4.8 7.9 9.8 11.8 15.1 22.3 30.7 41.8 70 56.1 119.8M682 862.2c-47.4-13.5-87.5-32.3-120.3-56 5-12.8 8.9-25.6 11.8-38.6 17.4 10.4 37.5 18.8 60.6 24.9l8.9 2.4 2.4-8.8c6.2-23.1 9-44.7 8.6-65 12.4 3.8 25.5 6.9 39.4 9.1 4.4 40.1.6 84.2-11.4 132m-46.6-147.6c1.1 17.9-.6 37.1-5.4 57.7-20.2-6.1-37.7-14.2-52.7-24 1.3-8.3 2-16.6 2.5-24.9 5.5 2.6 11.6 4.8 18.2 6.6l8.9 2.4 2.4-8.8c1.8-6.6 2.9-13 3.4-19.2 7.2 3.7 14.9 7.1 22.7 10.2m-41-20.5c.2 4.9.1 9.9-.8 15.4-5.1-1.9-9.4-4.3-13.4-6.8V700c-.2-5.5-.8-10.9-1.4-16.3 4.9 3.5 10.2 7 15.6 10.4m-131 226.5c-34.2-35.4-59.6-71.6-76-108.4-2.7-5.9-5-11.9-7.2-17.9-4.6-12.5-8.2-25-10.7-37.6-1.4-7-2.4-14-3.2-21-.9-7.8-1.4-15.7-1.4-23.6-.1-3.7-.1-7.5.1-11.3.3-8.5 1.2-16.7 2.4-24.8.9-3.1 1.5-6.2 1.8-9.2 6.4-5.7 12.3-11.6 18-17.6 8.6-9.1 16.4-18.5 23.4-28.1 5.8-7.8 11-15.7 15.9-23.5 4.3-6.9 8.2-13.7 11.7-20.4 11.5-21.6 19.4-41.7 24.8-57.5.1-.4.3-.8.4-1.2.7-2.3 1.4-4.4 2.1-6.4.8-3.5 1.5-6.7 2.3-9.5.2.1.3.3.5.4 2.6 2.6 5.7 5.5 9.1 8.6 1.2 1.4 2.5 2.7 3.8 4.2.2.2.3.4.5.5 10.8 12.4 23.9 29 36.5 49.3 4.4 7.1 8.6 14.6 12.7 22.6 6.2 12 12 24.9 16.8 38.7 1 2.7 1.7 5.5 2.6 8.2 2.8 8.9 5.3 18.1 7.2 27.6.3 1.5.5 3 .7 4.5.5 3 1 6 1.4 9 1.1 8 2 16.2 2.4 24.6.1 3.8.1 7.6.1 11.3-.1 7.9-.6 15.8-1.4 23.6-.8 7-1.7 14-3.2 21-2.5 12.6-6.1 25.2-10.7 37.6-2.2 6-4.5 11.9-7.2 17.9-16.6 36.8-42 73.1-76.2 108.4m-218.7-58.4c-11.9-47.7-15.7-91.8-11.5-132 13.9-2.2 27-5.2 39.4-9.1-.3 20.2 2.4 41.9 8.6 65l2.4 8.8 8.9-2.4c23.1-6.2 43.2-14.6 60.6-24.9 3 12.9 6.9 25.8 11.8 38.6-32.6 23.7-72.8 42.5-120.2 56m101.9-162.3c-.1.9 0 1.9 0 2.8-4 2.6-8.4 4.9-13.5 6.8-.9-5.5-1-10.5-.8-15.4 5.4-3.3 10.6-6.9 15.6-10.5-.5 5.4-1.1 10.7-1.3 16.3m2.8 48.4c-15 9.7-32.4 17.8-52.7 24-4.8-20.7-6.5-39.9-5.5-57.7 7.9-3.1 15.5-6.4 22.8-10.2.5 6.1 1.6 12.5 3.4 19.1l2.4 8.8 8.9-2.3c6.6-1.8 12.7-4 18.2-6.6.4 8.4 1.2 16.7 2.5 24.9m-165.2-32.6c-31 0-64.5-4.4-99.6-13.1 14.3-49.9 33.7-89.1 56.3-120 3.9-5.3 7.7-10.3 11.8-15.1 8.8-10.5 18-19.8 27.5-28.1 5.4-4.7 10.8-9.1 16.3-13.2 6.5-4.8 13.2-9.1 19.9-13.1 10.5-6.2 21.1-11.4 31.8-15.7 3.2-.7 6.2-1.7 8.9-2.9 8.2 2.7 16.3 5 24.5 6.9 12.1 2.8 24.1 4.9 36 6.2 9.7 1.1 19.2 1.7 28.5 2 3.4.1 6.8.1 10.1.1 4.5 0 8.9-.1 13.3-.3 24.8-.9 46.4-4.1 62.9-7.5.3-.1.6-.1.9-.2 1.8-.4 3.6-.8 5.3-1.1 4.2-1 8-1.9 11.4-2.7.3-.1.7-.2 1-.3-1.2 4.5-2.7 9.7-4.7 15.7-.2.5-.3 1-.5 1.4s-.3.9-.5 1.3c-5.3 15.8-13.1 35.7-24.6 56.8-4 7.4-8.4 14.9-13.3 22.4-7.3 11.3-15.7 22.6-25.2 33.5l-5.4 6c-6 6.5-12.4 12.7-19.2 18.8-1.9 1.7-3.8 3.3-5.8 4.9-2.5 2.1-5.1 4.2-7.8 6.2-8.9 6.8-18.5 13.1-28.9 18.9-6.8 3.7-13.8 7.3-21.2 10.5-6.3 2.8-12.9 5.3-19.7 7.5-11.9 4-24.6 7.3-38 9.6-6.2 1.1-12.6 1.9-19.1 2.6-10.7 1.4-21.5 2-32.9 2M26.1 484.6c35.4-34.1 71.6-59.3 108.6-75.7 8.8 10.9 17.9 20.8 27.4 29.6-17.6 9.8-34.8 22.9-51.6 39.6l-6.5 6.5 6.5 6.5c16.8 16.7 34 29.8 51.6 39.6-9.5 8.8-18.6 18.6-27.4 29.6-37-16.5-73.3-41.7-108.6-75.7m156.7 6.4c4.7 4.7 9.5 8.7 14.4 12.2-6.9 4.5-13.7 9.4-20.4 14.7-15.8-8-31.5-19-46.8-33.3 15.3-14.3 31-25.3 46.8-33.3 6.7 5.3 13.4 10.2 20.3 14.7-4.9 3.4-9.7 7.4-14.4 12.2l-6.5 6.5 6.6 6.3zm32.3 1.5c-4.1-2.2-8.2-4.7-12.2-8 4-3.3 8.1-5.8 12.2-8 5.4 2.9 10.8 5.5 16.2 8-5.4 2.5-10.8 5.2-16.2 8m-130.5-226c35.1-8.7 68.6-13.2 99.6-13.2 11.4 0 22.2.7 32.6 1.8 6.5.7 12.9 1.5 19.1 2.6 13.5 2.4 26.1 5.6 38.1 9.6 6.8 2.3 13.4 4.8 19.7 7.5 7.4 3.2 14.5 6.7 21.2 10.5 10.3 5.7 20 12.1 28.9 18.8 2.5 2.8 5.2 5.3 8 7.4 1.7 8.4 3.7 16.6 6 24.6 3.5 11.9 7.8 23.1 12.5 33.9 3.9 8.9 7.9 17.6 12.3 25.6 3.8 7.1 7.8 13.7 11.8 20.1 13.1 20.9 26.7 37.9 38 50.5.2.3.5.5.7.8l3.3 3.6c3.4 3.1 6.6 6.1 9.2 8.6l.6.6c-.3.1-.5.2-.8.2-3.8 1-8.4 2-13.3 3.1-1.5.3-2.9.6-4.5 1-.4.1-.9.2-1.3.3-16.1 3.2-37.1 6.1-60.7 6.7-3.2.1-6.3.2-9.5.2-5.4 0-11-.2-16.6-.4-13.6-.7-27.6-2.3-41.8-5-2.6-.5-5.2-1-7.8-1.6-9.3-2-18.6-4.6-27.9-7.8-1.9-.7-3.8-1.4-5.6-2.1-2.8-1-5.5-2-8.2-3.2-10.7-4.3-21.3-9.5-31.8-15.7-6.7-4-13.3-8.3-19.9-13.1-5.5-4.1-11-8.5-16.3-13.2-9.5-8.3-18.7-17.6-27.5-28-4-4.8-7.9-9.9-11.8-15.1-22.5-30.5-41.9-69.7-56.3-119.6m160.1-159.6c47.4 13.5 87.5 32.3 120.2 56-5 12.8-8.9 25.6-11.8 38.6-17.4-10.4-37.5-18.8-60.6-24.9l-8.9-2.4-2.4 8.8c-6.2 23.1-9 44.7-8.7 65-12.4-3.8-25.5-6.9-39.4-9.1-4.1-40.2-.3-84.2 11.6-132m46.5 147.6c-1-17.9.7-37.1 5.5-57.8 20.2 6.2 37.7 14.2 52.6 24-1.3 8.2-2 16.6-2.5 24.9-5.5-2.6-11.6-4.8-18.2-6.6l-8.9-2.4-2.4 8.8c-1.8 6.6-2.9 13-3.4 19.2-7.1-3.6-14.7-7-22.7-10.1m41.2 20.5c-.3-4.9-.2-9.9.8-15.4 5.1 1.9 9.4 4.3 13.4 6.8v2.7c.2 5.5.9 10.9 1.4 16.3-5.1-3.5-10.2-7.1-15.6-10.4m131-226.5c34.2 35.3 59.6 71.6 76 108.4 2.7 5.9 5 11.9 7.2 17.9 4.6 12.5 8.2 25 10.7 37.6 1.4 7 2.4 14 3.1 21 .9 7.9 1.4 15.7 1.4 23.6.1 3.8.1 7.5-.1 11.3-.3 8.5-1.2 16.7-2.4 24.8-.9 3.1-1.5 6.2-1.8 9.2-6.4 5.7-12.3 11.6-18 17.6-8.6 9.1-16.4 18.5-23.5 28.1-5.8 7.8-11 15.7-15.9 23.5-4.3 6.9-8.2 13.7-11.7 20.5-11.5 21.6-19.4 41.7-24.8 57.5-.1.4-.3.8-.4 1.2-.7 2.3-1.4 4.4-2.1 6.5-1 3.3-2 6.3-2.7 9.1l-.3.9c-2.7-2.7-5.8-6-9.1-9.7-1.1-1.2-2.2-2.5-3.4-3.8-.2-.2-.3-.4-.4-.5-10.9-12.4-24-29.1-36.6-49.4-4.4-7.1-8.6-14.6-12.7-22.6-6.2-12-11.9-24.9-16.8-38.6-.9-2.7-1.8-5.6-2.6-8.3-2.8-8.9-5.3-18-7.2-27.5-.3-1.5-.5-3-.7-4.5-.5-3-1-6-1.4-9-1.1-8-2-16.1-2.3-24.5-.2-3.8-.2-7.7-.1-11.5.1-7.9.6-15.8 1.4-23.6.8-7 1.8-14 3.2-21 2.5-12.6 6.1-25.1 10.7-37.6 2.2-6 4.5-11.9 7.2-17.9 16.4-37.1 41.8-73.4 76.1-108.7M682 106.9c11.9 47.8 15.7 91.8 11.5 132-13.9 2.2-27 5.2-39.4 9.1.3-20.2-2.5-41.9-8.7-65l-2.4-8.8-8.9 2.4c-23.1 6.2-43.2 14.6-60.6 24.9-3-12.9-6.9-25.8-11.8-38.6 32.8-23.7 72.9-42.5 120.3-56M580.1 269.2c.1-.9 0-1.8 0-2.7 4-2.6 8.4-4.9 13.5-6.8.9 5.5 1 10.5.7 15.4-5.4 3.3-10.6 6.9-15.6 10.5.6-5.5 1.2-10.8 1.4-16.4m-2.8-48.5c15-9.7 32.4-17.8 52.6-24 4.8 20.7 6.5 39.9 5.5 57.8-7.9 3.1-15.6 6.5-22.8 10.2-.5-6.1-1.6-12.5-3.4-19.1l-2.4-8.8-8.9 2.4c-6.6 1.8-12.7 4-18.2 6.6-.3-8.5-1.1-16.8-2.4-25.1m166.6 257.4c-4.7-4.7-9.5-8.7-14.4-12.2 6.9-4.5 13.7-9.4 20.4-14.7 15.9 8 31.5 19 46.8 33.3-15.3 14.3-31 25.3-46.8 33.3-6.7-5.3-13.5-10.2-20.3-14.7 4.9-3.4 9.7-7.4 14.4-12.1l6.5-6.5-6.6-6.4zm-48.5 6.4c5.4-2.4 10.8-5.1 16.1-8 4.1 2.2 8.2 4.7 12.3 8-4 3.3-8.1 5.8-12.2 8-5.4-2.9-10.8-5.5-16.2-8m47.1-231.1c31 0 64.5 4.4 99.6 13.1-14.3 49.9-33.7 89.1-56.3 120-3.9 5.2-7.8 10.3-11.8 15.1-8.8 10.5-18 19.8-27.5 28.1-5.4 4.7-10.8 9.1-16.3 13.1-6.5 4.8-13.2 9.1-19.9 13.1-10.5 6.2-21.1 11.4-31.8 15.7-3.2.7-6.2 1.7-9 2.9-8.1-2.7-16.3-5-24.4-6.9-12.1-2.8-24.1-4.9-35.9-6.2-9.7-1.1-19.2-1.7-28.5-2-3.4-.1-6.7-.2-10.1-.2-4.5 0-9 .1-13.3.3-24.7.9-46.3 4.1-62.9 7.5-.3.1-.6.1-1 .2-1.8.4-3.5.8-5.2 1.1-4.2.9-8 1.9-11.4 2.7-.3.1-.7.2-1 .3 1.2-4.5 2.7-9.7 4.7-15.7.2-.5.3-1 .5-1.5s.3-.9.5-1.4c5.3-15.8 13.1-35.7 24.6-56.8 4-7.4 8.4-14.9 13.3-22.4 7.3-11.3 15.7-22.6 25.2-33.5l5.4-6c6-6.5 12.4-12.7 19.3-18.8 1.9-1.7 3.8-3.3 5.8-4.9 2.6-2.1 5.1-4.2 7.8-6.2 8.9-6.8 18.6-13.1 28.9-18.9 6.7-3.7 13.8-7.3 21.2-10.5 6.3-2.8 12.9-5.3 19.7-7.6 11.9-4 24.6-7.3 38-9.6 6.2-1.1 12.6-1.9 19.1-2.6 10.5-.9 21.3-1.5 32.7-1.5m184.2 231.1l-6.5-6.5c-37.9-37.8-76.9-65.8-116.9-84.2 23.9-33.8 44.3-76.8 59-131.5l2.4-8.8-8.9-2.4c-39.9-10.7-78-16.1-113.3-16.1-10.5 0-20.5.6-30.4 1.5 4.1-43.8-.8-91.6-14.7-143.4l-2.4-8.8-8.9 2.4c-51.8 13.8-95.8 33.5-131.7 58.9C536 105.8 507.8 66.8 469.8 29l-6.5-6.5-6.5 6.5c-37.9 37.8-66.2 76.8-84.6 116.6-35.9-25.3-79.9-45-131.7-58.8l-8.9-2.4-2.4 8.8c-13.9 51.7-18.8 99.6-14.7 143.4-9.8-.9-19.8-1.6-30.3-1.6-35.3 0-73.4 5.4-113.3 16.1l-8.9 2.4 2.4 8.8c14.8 54.7 35.1 97.7 59 131.6-39.9 18.4-79 46.4-116.9 84.2L0 484.6l6.5 6.5c37.9 37.8 76.9 65.8 116.9 84.2-23.9 33.8-44.2 76.8-58.9 131.4l-2.4 8.8 8.9 2.4c39.9 10.7 78 16.1 113.2 16.1 10.5 0 20.5-.6 30.4-1.6-4.1 43.8.8 91.7 14.7 143.4l2.4 8.8 8.9-2.4c51.8-13.8 95.8-33.5 131.7-58.9 18.4 39.9 46.7 78.8 84.6 116.7l6.5 6.5 6.5-6.5c37.9-37.8 66.2-76.8 84.6-116.7 35.9 25.3 79.9 45 131.7 58.9l8.9 2.4 2.4-8.8c13.9-51.7 18.8-99.6 14.7-143.4 9.8.9 19.8 1.5 30.3 1.5 35.3 0 73.4-5.4 113.3-16.1l8.9-2.4-2.4-8.8c-14.7-54.6-35.1-97.7-58.9-131.5 39.9-18.4 79-46.4 116.9-84.2l6.4-6.4z"/><path class="st0" d="M681.9 317.1c3.1-.2 6.1-.5 9.4-.5 15.1 0 31.3 2 48.3 5.9-6.4 21.1-14.7 38.3-24.1 52.5-4 6.1-8.2 11.7-12.6 16.7-12.2 13.9-25.8 23.7-39.8 30.5-16.7 8.2-33.9 12.1-50.1 13.4-4.8.4-9.6.7-14.2.7-3.4 0-6.7-.1-9.9-.3-10.8-.6-20.3-2-27.8-3.5-3.5-.7-6.6-1.4-9.1-2.1.7-2.5 1.7-5.6 2.9-9 2.4-7.2 6-16.1 11-25.7 3.5-6.8 7.7-13.9 12.7-21 9-12.7 20.6-25.2 35.5-35.4 13-8.9 28.5-15.9 46.9-19.7 6.5-1.2 13.5-2.1 20.9-2.5m-51.6-7.4c-11 4.5-20.8 10.1-29.5 16.4-14.4 10.4-25.9 22.6-35.1 35.2-8 10.9-14.3 22.1-19.1 32.2-2.4 5.1-4.6 10.1-6.3 14.6-5.2 13.4-7.5 23.3-8.2 26.2-.1.5-.2.8-.2.9l-1.4 7.7 7.4 2.6c.1 0 .5.2.9.3 2.5.8 12.2 3.9 26.6 6.2 4.8.8 10.1 1.4 15.7 1.9 5.5.5 11.3.8 17.6.8 6 0 12.5-.3 19.5-1.1 15-1.7 31.9-5.6 49-13.3 9.7-4.4 19.4-9.9 28.8-17.2 9.7-7.5 19-16.9 27.6-28.1 3.9-5 7.6-10.5 11.2-16.4 10-16.5 18.6-36.2 25.1-60.4l2.4-8.8-8.8-2.4c-21.9-5.8-42.7-8.8-62.1-8.8-1 0-1.9.1-2.9.1-6.8.1-13.4.5-19.6 1.3-14.4 1.9-27.1 5.4-38.6 10.1"/><path class="st0" d="M661.4 358c1-.1 1.8-.3 2.8-.3 3.9 0 8 .4 12.3 1.1-1.9 5.1-4.2 9.5-6.8 13.5-6.6 10.3-15.3 17.2-26.3 20.5-2.9.9-6 1.4-9.2 1.8-.9.1-1.9.1-2.9.2-1.5.1-2.9.3-4.4.3-4.4 0-8.5-.4-11.8-1 1.4-3.7 3.5-8.3 6.5-12.9.8-1.3 1.6-2.5 2.5-3.8 1.8-2.3 3.7-4.6 6-6.7 7.2-6.7 17.4-12 31.3-12.7m-61.9 25.7c-2.4 5.6-4.1 11-4.9 15.4l-1.1 5.9-.3 1.8 1.9.7 5.6 1.9c.4.1 6.7 2.3 16.1 3.4 3.1.4 6.5.6 10.2.6 14.1 0 35.7-3.7 52.3-23 4.2-4.9 8.1-10.8 11.4-17.9 2.5-5.3 4.7-11.3 6.5-18l2.4-8.8-8.9-2.4c-6.6-1.8-13-2.7-19.2-3.2-2.4-.2-4.9-.5-7.3-.5-4.9 0-9.5.5-13.9 1.3-27.4 5.1-43.2 25.2-50.8 42.8M450.9 229c3.4 4.2 6 8.4 8.2 12.6 4.1 7.9 6.3 15.9 6 24-.1 3.3-.6 6.4-1.4 9.4-.7 3-1.7 5.8-2.9 8.4-.6 1.4-1.3 2.9-2 4.2-2.5 4.9-5.5 9-8 12-2.5-3.1-5.4-7.2-8-12.1-.7-1.3-1.3-2.8-1.9-4.2-1.1-2.5-2.1-5.2-2.8-8.1-.8-3-1.4-6.2-1.5-9.5-.3-8.1 1.9-16.1 6-24.1 2.3-4.2 4.9-8.5 8.3-12.6m-6 90.8l4.5 3.8 1.5 1.3 1.5-1.3 4.5-3.8c.5-.4 5.5-4.9 11-12.3 7-9.4 14.9-23.5 15.6-41.1.3-8.1-1-16.1-3.8-23.9-2.3-6.4-5.5-12.7-9.8-18.8-3.5-5-7.6-9.9-12.5-14.8l-6.5-6.5-6.5 6.5c-4.8 4.8-9 9.7-12.5 14.8-4.3 6.1-7.5 12.4-9.8 18.8-2.8 7.8-4.1 15.8-3.8 23.9.7 17.6 8.5 31.7 15.5 41.1 5.7 7.4 10.7 11.9 11.1 12.3"/></svg>