<svg id="Layer_1" xmlns="http://www.w3.org/2000/svg" xmlns:xlink="http://www.w3.org/1999/xlink" viewBox="0 0 423 139"><style>.st0{clip-path:url(#SVGID_2_)}.st1{clip-path:url(#SVGID_6_);fill:#ededed}.st2{clip-path:url(#SVGID_8_)}.st3{clip-path:url(#SVGID_12_);fill:#1d1d1b}.st4{clip-path:url(#SVGID_14_);fill:none;stroke:#ccb15c}.st5{clip-path:url(#SVGID_16_);fill:#fff}</style><defs><path id="SVGID_15_" d="M13.7 15.4H408v113.2H13.7z"/></defs><clipPath id="SVGID_2_"><use xlink:href="#SVGID_15_" overflow="visible"/></clipPath><path d="M393.9 73c-.7 5.5-4 9.4-6.1 12.1-1.8 2.6-3.9 5-6 7.6l.8-3.7c.1-.5 1.1-2.3 2.8-5.3 3.5-6 4.7-8.7 8.5-10.7m14.1 32.6c-.4 0-1-.1-1.4-.5-2.8.7-6.2 1.9-10 3-2.2-1-3.3.4-4.9.4-1 0-3.1.1-4-.4-1.7-.7-4.2-2.3-4.2-3.4 0-1.2 7.9-9 11.9-13.8 2.4-2.9 5.3-7 6.4-9.1 1.1-3.4 2.6-10.2 2.6-11.1 0-3.5-2.8-.5-2.8-6.3-.6-.5-1-1.2-1.7-1.2-1 0 .1.4-1 .4-1 0-.6-1.4-1-2.6-1.2-.4-3.2-1.6-3.9-1.6-1.1 0 .3.4-.8.4-.4 0-.6-.1-.6-.4 0-.1.1-.1.3-.3.4 1.5-2.5 2.3-3.7 2.9-2.8 1.6-3.1 3-5.1 4.8-1 1.8-2.6 3.8-3.6 5-2.1 3.3-3.5 6.4-4.6 8.6-2.1 4.2-4.2 9.5-4.7 12.1-.6 2.2-1.8 5-1.1 10.5 2.6 10.9 1.4 7.5 3.9 9.7 3.5 3.7 4.6 4.6 8.6 5.6l1.5 2c.4-2.7 4.4 0 6.1 0 .4 0 .6-.1.6-.3v-.4c1.5-.1 3.6-1.4 5.1-1.5-.6 0-1.2-.1-.6-.5 2.1 0 3.7-.3 5.4-.8 0-2.2 1.2-5.2 3.6-4.6.6-1.2 1-2.6 1.5-3.3-1-.3-1.5-.7-1.5-1.4 1.5-.4 2.2-1.4 3.7-1.9m-63.1-7.3l-.7-.4.8-1.2h.4l-.5 1.6zm28 7.1c-1.8 1-5.7 2.2-6.4 2.2-4.9.5-5.3-1.1-5.7-4.8-.1-.5-.1-1.8-.1-3.7 0-1.9 0-3.4.1-4.4 0-3.8 1.5-11.9 1.5-12.7-.1-.7-.7-1.4-.3-1.5-1.2-1-1-2.3-1.9-3.4-1-1.1-1.7-1.6-2.4-2-.6-.5-1.7-.3-1.8-.4-.6-.4-1.8-1.6-2.5-1.8-1.2-.4-2.6 0-3.1-.1l-18 21.6c-1.7 0-1.5.7-2.5 1.6-.1-.1-.1-.3-.1-.4v-.1c.1-1.6 0-4 1.5-4.4.4-4.9 1.8-13.9 1.8-14.9-.1-1.2-1.4-4.2-2.1-5.5-1.8-2-5.5-3.4-7.1-3.8-2.2-.4-4.3-.4-5.3 0-4 5.7-12.6 17.1-13.3 17.1-1.1.1-1.4 1-1.5 1-.3-2.3 2.9-8.5 3.3-11.2.6-1.5 1-3.5 1.4-5.9.4-2.5.7-4 .6-4.5 0-.7-1.4-4.4-3.5-4.8-.1-.1-.3-.3-.4-.7-.7-.5-1.5-.8-2.5-.7-1 0-2.2.7-3.2.8-2.4 5.3-3.1 7.4-3.1 11.3-.1.5-.6.7-.7.8-.4 2-1.4 4.8-1.8 6.3-.4 2.2-2.8 8.2-5 15.1-2.2 7-4.4 14.9-3.9 19.2.1 2 .3 4.2 1.8 5.2 1.1 1.1 3.5 2.7 4.2 2.6 1.1 0 3.3-1.5 4-2 1.7-1.6 3.2-4.6 5-6.3v-1.1l3.1-3.5c.4-.7.6-1.5.7-1.9 4.4-5.6 9.4-12.6 13.9-17.1 0 .7.4 1 .6 1.5l-.4.5c0 .4.7.4.3 1.1-.3 4.1-3.9 14.5-3.2 20.7.4 2.5 7.6 7.1 10.5 6.7 1 0 3.3-1.2 4.9-2.2.6-.1 0-.4.4-1 2.6-1.5 4.4-4.2 6.2-6.4 2.8-4 7.6-9 9.2-11.2 1.1-1.5 1.5-2.7 2.6-4 1 1.8.7 3.3.8 4.5 1.1 5 1.5 10.4 4.4 13.5 1.8 1.8 5.7 4.5 6.4 4.5 1-.1-.3-.5.4-.7 1 0 3.7 1.2 4.7 1.2 1.1-.1 3.5-1.5 5.5-2.5.3-.3.4-.7.3-1.2.6-.5 1.2-1 1.7-1.6-.7-.3-1-.7-.7-1.4.3-.6 1.4-2 .7-3.2M272.5 81c0 .3-2.4 8.2-3.2 9.4-.3.7-6 9.5-7.2 9.5-1.1 0 .6-.8-.4-.8-.7 0-3.7 2.9-5.5 4.1V102c0-1.1 5.7-12.1 8.7-17.6 1.2-2 4.4-5.6 6-8.5.6 1.6 1.6 4 1.6 5.1m-3.9-8.2h.7v2h-.7v-2zM284 85.4c0-5.9-2.9-11.2-7.2-17.1-.4-.4-1-.3-1.4-.4-.1-.1-.4-.5-.6-1-.1-.3-.3-.4-.3-.5-1.2-1.2-3.6-3.5-4.3-4.1-1.5-.7-2.6.3-3.3-1.2-1.5 1.5-11 3.3-10.3 8.5-.3.3-.4.4-.6.4l-.3.1c.7 0 1 .3 1 1 0-.5.1-1 .4-1.1.1.1.3.4.3.8.6-1 1.4-.3 1.8-.3-.6 1-.3 2-.8 2.7-1 1.2-2.8 1.9-3.5 3.1-.6.7-.3 1.5-.8 1.6-.6.1-.6 0-1.1.4-.7 1.6-2.2 3.3-3.2 4.9-.6.5-.3 1.8-.7 2.2-1.2 1.9-6.7 13.2-6.7 19.2 0 .7.7 3.8 1.1 5.5 1.7 0 2.2 3.4 3.2 4.1 2.8 2.2 5 4.8 9.3 4.8 2.6 0 5.4-1 8.6-2.9.4-.5.6-1.6 1.1-2C276 105.4 284 95.3 284 85.4m-40.2-17.6c0 .4-.8.8-1.2.8v-1.4c.5 0 .9.2 1.2.6m6.5-44c0-1-2.1-4.2-3.3-5.9-1 .4-1.7.5-2.2.1.6-.7-.3-.8-.8-1.8-.6 1.2-1 1.5-2.2 1.9-.6-.5-1.2-.8-1.7-1.2.1 1.1-1.2 2.7-1.7 3.8-.6.7-1.2 1.5-1.4 2-5.4 8.7-7.6 22.6-8.9 29.3-.7 3.7-1.5 8-2.5 11.9l-.3.3-.3.1-10.3 1.4c-4.4.5-9.4 1.1-13.5 2-.4-.5-.1.1-.1-.8 0-1 6.1-24.4 8-29.6-.4-.5-.6-1-.4-1.1 1.1-3 1.5-11.3 1.5-12-.3-.3-1.8-5.5-4.7-5.5-.7 0 .1.3-.8.3-.7 0-1.5-.8-2.1-.8-1.1 0-2.2.4-2.6-.1 0 .5.4 1-.6 1s0-.3-1-.3-.8.7-1.4 1.1c.1.4 0 .4.4.5 0 .1 0 .1.1.1-.1 1.2 0 3-.1 4.1-2.1 9.8-4.7 22.2-6.9 31.9-1.1 5.5-2.2 9.1-3.5 13.5-3.7 1.1-7.5 1.8-10.4 2.9-1.1.5-1.8 1.6-2.4 2V76c.7.1 1.2.8 1.5 2.2.3 1.2.6 2.2.8 2.6 2.6 1.6 5.3 2.9 7.5 4-.7 3.3-1.9 6.7-2.4 9.8-.4 3.3-1.4 10.6-1.4 11.2 0 1 .4 4.9.4 7.2 0 1 3.6 8.2 5.4 8.2 1 0-.1-.3.8-.3 1 0 2.8.7 3.7 1.2.4-1.2 1.1-2.6 1.1-3.5 0-.7-.8-1.5-1-2.2 0-.4.7-1.6.7-2.2-1-.4-1.4-1-1.4-1.5 0-.7.6-1.2.6-1.6.6-8.3 3.2-18.3 5.3-25.8.1-1.5.6-2.5 1-3.1-.1 0-.1 0-.1-.1 0-.3 0-.4.1-.5l24.6-4.2c1.7-.1 1.1 2.9 1.1 3.4 0 .7-.7 4.6-1.1 6.8-.4 2.9.3 6.7-1 9.6.7.5.6 1.1.6 1.6 0 1.6-.7 3.3-.8 4.4-.1 2.3 0 5.6 0 7.9v4.8c0 .7-.7 1.5-.7 2.2 0 1 .7 1.1.6 1.8.4 1.1 2.5 2.7 3.5 2.7s0-.5 1-.5.6.1.6.5c-.1-.7-.1-1.1.1-1.2.4.4.3.8.3 1.2.6-.7 1.5-1.1 3.1-1.5 1.7-11.9 4.6-28.5 5.4-34.8.4-3.4 1-7 2.5-10.4.4-1 1.5-1 1.9-1.4.4-.4 1.4-1.8 2.5-1.6-.4 0 0-.5-.1-1l.4-.8c.4 0 .1.3.8.3 1 0 3.5-1.5 5.3-2-1.2 0-2.1-.4-2.4-1.1.4-.4 1.1-.4 1.7-.8-2.4.4-3.2-1.6-2.6-3.4-1.7-.3-3.3-.3-5 0v-2.7c.7-1.1 1.2-2.7 1.4-3.7.7-2.2 1.9-4.6 2.4-6.3 1.1-3.7 1.9-9.4 2.5-11.1 1.2-2.9 2.1-5.3 2.6-7.4.8-3.1 2.3-8.1 2.3-9.1M141.4 47.7c-1.2 1.9-1.9 7-2.4 9.1-2.6 7.8-6.9 15.3-10.7 22.2-.1.4.1.8.1 1.2-1.1.4-2.5.7-2.6 1.6-.6.5-.4 1.9-.8 2.6-.7 1.1-1.5 1.6-2.5 2.7-.7.4-.4 1.9-1.4 3-6 7-17.2 20.2-24.8 19.8-2.9-1.8-4.9-13.9-4.9-17.6 0-.7.3-3 .4-4.1.4-2.9 1-8 2.1-11.5 1-3.7 1.4-7.5 2.6-11.2.6-1.6 1.9-3.3 2.6-5 .7-1.6 1.4-4.6 2.4-6.7 1.1-2.2 2.1-4.4 3.2-7.1v-1.2c.7-1.2 1.9-3.5 2.9-3.5.7 0 .1.5.8.5 1 0 .4-1 1.4-1 .7 0-.1.4.6.4 1 0 1.5-1.1 2.1-2 .6-.4.7.1 1.2.5.6-.5.4-1.2 1-1.6 2.4-1.5 3.7-4.4 5.8-6 .4-.1 1.4-.5 2.4-1.1 4.6-3.4 6-4.9 9.4-4.9 3.9 0 6.9 9.3 6.9 9.7.6 3.1 1.1 7.4 1.1 10.2.7.7 1 1 1.1 1m9.9 11.7c-.1 0-.4.3-.8.7-2.1-2.2 0-3.8.1-5.5 0-.7-.1-1.2-.6-1.6.6-2.9.7-6.5-.3-9.3-.6-2.6-1.4-5.3-1.9-7.6-1.5-1.8-3.1-4.5-4.2-6.3-.4-.4-.1-1.2-.1-1.6-2.1-1.8-3.7-4-6.5-5.7-2.1-1.2-4.3-2.6-6.7-3.1-1.1-.1-2.9 0-4-.5-1.5-.4-3.2-.7-3.7-.7-1.1 0-2.6 1-3.2 1-1 0-3.5-1.4-4.4-1.4-8.7 0-24.7 26.6-26.4 32.9-.6 1.6-1.1 2.7-1.8 3.1-1 3.3-2.5 6.7-3.5 9.8-.6 1.1-.3 2.5-.7 3.1-1.1 2.9-1.9 6.5-2.4 8.6-.6 4.9-.7 9.6-.7 10.1 0 1 .1 5.7.7 8.5.4 3.1 1.8 6.5 2.8 9.4 1.1 1.8 2.4 4.1 3.6 5.9 2.2 2.7 4.6 4.9 6.8 6.7 1 1 2.5 1 3.2 1.4 1.1 1 2.1 1.6 2.8 1.6h5.3c5 0 5.4-.1 11.1-4 1-.4 1.4-1.5 1.8-1.9 1.1-.5 2.6-1.2 3.6-2.3 10.5-10.4 22.1-28.4 28.3-45.4.1-.4 0-.8-.6-1.4 1.5-.6 1.8-3.2 2.4-4.5M54.9 78.7c-5.5 1.1-8.7-.3-12.2-.3 4.4-8.9 8.6-20.7 14.6-29.9l-2.4 30.2zm27.3 4.2c-1-.5-1.8-1.2-1.9-2.2l.7-.8c-.6 0-.7-.5-.7-1-3.9 0-7.5-.1-11.4-.7-.7 0-1.2-.1-1.5-.3l2.2-15.7C70 54.7 71 47 71.9 39.4c.1-1.8-.6-3.3-.1-4.8.1-1.2.6-3.7.6-4.2 0-1 .3-7.1-1.1-10.1-.4-1.6-2.6-3.7-3.3-3.7-1 0 .3.3-.7.3s-1.1-.7-1.2-1.1c-.6.4-1 0-1.5 0-1 0-1.4-.4-2.4-.4-.1 0-.4.1-.7.4l-.1.1c0 1.5-.1 3.7-.8 4.8-2.1 3.7-4.9 6.7-6.4 9-3.1 5.6-5.1 9.7-6.4 12.3-6 11.3-11.5 25.4-17.5 37.8-2.6 1-4.3 1-6.9 1.1-1.8 1-5.3 1.9-6.2 1.9-.6 0-1.1-.3-1.5-.7-.4.5-1.8 1.6-1.8 2.3s2.5 4.9 3.2 5.9c1.7 1.2 4.6 2.7 6.7 4.2-1.2 2.7-2.4 5.2-3.2 7.5-1.7 4-3.1 8.5-3.1 9.7 0 1 .4 2.9 1.5 3.4 1 .7 2.2.8 2.6 1.5l.7-.7c.4.5.6.1 1 .1 0-.8.3-1.5.7-2 .4.4.1 1 .7 1 .6-2.3 1.4-4.6 2.5-6.8.4-1.1 1.4-1.9 1.8-2.3 2.9-4.9 4.4-9.4 6.5-13.2.6-.5 12.3-3.8 14.3-3.8h5.1l-.3 17.7c0 1.6-.6 3.4-.1 5 0 5.3-1.7 10.2 1.8 15.1 1.2.7 3.3 1.2 4 1.9.1-.5.6-1 1.2-1.1.6 0 .6-.4 1-.4 0-1 .1-2.3.6-3.3 2.9-5.9.7-8.6 1.8-14.1 1.1-4.9.4-10.9.8-15.3.1-.4.4-.1.8-.7-.4-1.1-.8-1.8-.3-2.7.4-1.2.7-3 1.2-4.1 1.5-.1 2.8-.4 3.3-.5 3.9-1 8.7-2.4 11.5-3.5" clip-path="url(#SVGID_2_)" fill="#fff"/></svg>