<svg id="Layer_1" xmlns="http://www.w3.org/2000/svg" viewBox="0 0 50 48"><style>.st0{clip-path:url(#SVGID_2_)}.st1{fill:#ededed}.st2{fill:none}.st3{clip-path:url(#SVGID_6_)}.st4{fill:#1d1d1b}.st5{fill:none;stroke:#ccb15c}</style><path class="st4" d="M23.5 10.9c.4-.7.9-1.5 1.5-2.2.7.7 1.2 1.4 1.5 2.2.1.3.3.6.4.9.2.7.3 1.4.3 2.1v.2c-.1.8-.3 1.6-.6 2.3-.2.4-.4.7-.5 1-.3.4-.5.8-.8 1l-.3.3-.3-.3c-.2-.3-.5-.6-.8-1-.2-.3-.4-.6-.5-1-.3-.7-.6-1.4-.6-2.3v-.2c0-.7.1-1.4.3-2.1.1-.3.2-.6.4-.9m-.9 5.7c.3.6.5 1.1.8 1.5.1.2.3.4.4.6.4.5.8.8.9.9l.3.2.3-.2.9-.9c.1-.2.3-.4.4-.6.3-.4.6-.9.8-1.5.3-.7.5-1.4.6-2.3v-.4c0-.4 0-.8-.1-1.1-.1-.6-.2-1.2-.5-1.8-.1-.3-.2-.5-.4-.8-.5-.8-1.1-1.6-1.8-2.4l-.2-.3-.3.3c-.8.8-1.4 1.6-1.8 2.4-.2.3-.3.5-.4.8-.2.6-.4 1.2-.5 1.8-.1.4-.1.8-.1 1.1v.4c.1.8.4 1.6.7 2.3m-8.6-.5h.4c.3 0 .7.1 1 .1.8.2 1.5.5 2.1.9.7.5 1.3 1.1 1.7 1.7l.6.9c.2.4.4.9.5 1.2 0 .2.1.3.1.4-.1 0-.3.1-.4.1-.3.1-.8.1-1.3.2h-1.2c-.7-.1-1.5-.2-2.3-.6-.6-.3-1.3-.8-1.8-1.4-.2-.2-.4-.5-.6-.8-.4-.7-.8-1.4-1.1-2.4.8-.2 1.6-.3 2.3-.3m-2 2.8c.2.3.3.5.5.8.4.5.8.9 1.3 1.3.4.3.9.6 1.3.8.8.4 1.6.5 2.2.6H19c.3 0 .5-.1.7-.1.7-.1 1.1-.2 1.2-.3l.3-.1-.1-.4c0-.1-.1-.6-.4-1.2-.1-.2-.2-.4-.3-.7-.2-.5-.5-1-.9-1.5-.4-.6-1-1.1-1.6-1.6-.4-.3-.9-.5-1.4-.8-.5-.2-1.1-.4-1.8-.5-.3 0-.6-.1-.9-.1h-.1c-.9 0-1.8.1-2.9.4l-.4.1.1.4c.6 1.3 1 2.2 1.5 2.9"/><path class="st4" d="M15.2 18h.1c.6 0 1.1.3 1.4.6l.3.3c0 .1.1.1.1.2l.3.6h-.8c-.1 0-.3 0-.4-.1-.5-.2-.9-.5-1.2-.9l-.3-.6c.1-.1.3-.1.5-.1m-1.2.7c.2.3.3.6.5.8.8.9 1.8 1.1 2.4 1.1h.5c.4 0 .7-.2.7-.2l.3-.1h.1v-.1l-.1-.3c0-.2-.1-.5-.2-.7-.3-.8-1.1-1.7-2.3-2-.2 0-.4-.1-.6-.1H15c-.3 0-.6.1-.9.1l-.4.1.1.4c0 .4.1.7.2 1m.4 13.2H14c-.7 0-1.4-.1-2.2-.3.3-1 .7-1.8 1.1-2.4.2-.3.4-.5.6-.8.6-.6 1.2-1.1 1.8-1.4.8-.4 1.6-.6 2.3-.6h1.2c.5 0 .9.1 1.3.2.2 0 .3.1.4.1 0 .1-.1.3-.1.4-.1.3-.3.7-.5 1.2-.2.3-.4.6-.6 1-.4.6-.9 1.2-1.6 1.6-.6.4-1.3.7-2.2.9-.4 0-.8.1-1.1.1m2.4.3c.5-.2 1-.5 1.4-.8.7-.5 1.2-1 1.6-1.6.4-.5.7-1 .9-1.5.1-.2.2-.5.3-.7.2-.6.3-1.1.4-1.2l.1-.4H21c-.1 0-.6-.2-1.2-.3-.2 0-.5-.1-.7-.1h-1.7c-.7.1-1.5.3-2.2.6-.4.2-.9.5-1.3.8-.4.3-.9.8-1.3 1.3-.2.2-.4.5-.5.8-.5.8-.9 1.7-1.2 2.8l-.1.4.4.1c1 .3 2 .4 2.8.4h.1c.3 0 .6 0 .9-.1.7-.1 1.2-.2 1.8-.5"/><path class="st4" d="M15.3 30h-.7l.3-.6c.3-.5.7-.8 1.2-.9.1 0 .3-.1.4-.1h.8l-.3.6c0 .1-.1.1-.1.2l-.3.3c-.2.2-.6.5-1.3.5m2.9-1.2c.1-.3.2-.5.2-.7v-.4h-.1l-.3-.1s-.3-.1-.7-.2h-.5c-.6 0-1.6.2-2.4 1.1-.2.2-.4.5-.5.8-.1.2-.2.5-.3.8l-.1.4.4.1c.3.1.6.1.9.1h.3c.2 0 .4 0 .6-.1 1.4 0 2.1-1 2.5-1.8m8.3 8.3c-.4.7-.9 1.5-1.5 2.2-.7-.7-1.2-1.4-1.5-2.2-.1-.3-.3-.6-.4-.9-.2-.7-.3-1.4-.3-2.1v-.2c.1-.8.3-1.6.6-2.3.2-.4.4-.7.5-1 .3-.4.5-.8.8-1l.3-.3.3.3c.2.3.5.6.8 1 .2.3.4.6.5 1 .3.7.6 1.4.6 2.3v.2c0 .7-.1 1.4-.3 2.1-.1.3-.2.6-.4.9m.9-5.7c-.3-.6-.5-1.1-.8-1.5-.1-.2-.3-.4-.4-.6-.4-.5-.8-.8-.9-.9l-.3-.2-.3.2-.9.9c-.1.2-.3.4-.4.6-.3.4-.6.9-.8 1.5-.3.7-.5 1.4-.6 2.3v.4c0 .4 0 .8.1 1.1.1.6.2 1.2.5 1.8.1.3.2.5.4.8.5.8 1.1 1.6 1.8 2.4l.3.3.3-.3c.8-.8 1.4-1.6 1.8-2.4.2-.3.3-.5.4-.8.2-.6.4-1.2.5-1.8.1-.4.1-.8.1-1.1v-.4c-.2-.8-.5-1.6-.8-2.3"/><path class="st4" d="M25 36c-.2-.2-.3-.4-.4-.6-.2-.4-.3-.7-.3-1.1 0-.2 0-.3.1-.4 0-.1.1-.2.1-.3 0-.1.1-.1.1-.2.1-.2.3-.4.4-.6.1.1.3.3.4.6 0 .1.1.1.1.2s.1.2.1.4c0 .1.1.3.1.4 0 .4-.1.7-.3 1.1-.1.1-.2.3-.4.5m.3-4.2l-.2-.2-.1-.1-.1.1-.2.2s-.3.2-.5.6c-.3.4-.7 1.1-.7 1.9 0 .4 0 .7.2 1.1.1.3.3.6.4.9.2.2.4.5.6.7l.3.3.3-.3c.2-.2.4-.4.6-.7.2-.3.3-.6.5-.9.1-.4.2-.7.2-1.1 0-.8-.4-1.5-.7-1.9l-.6-.6m10.7.1h-.4c-.3 0-.7-.1-1-.1-.8-.2-1.5-.5-2.1-.9-.7-.5-1.3-1.1-1.7-1.7l-.6-.9c-.2-.4-.4-.8-.5-1.2 0-.2-.1-.3-.1-.4.1 0 .3-.1.4-.1.3-.1.8-.1 1.3-.2h1.2c.7.1 1.5.2 2.3.6.6.3 1.3.8 1.8 1.4.2.2.4.5.6.8.4.7.8 1.4 1.1 2.4-.8.2-1.6.3-2.3.3m2-2.8c-.2-.3-.3-.5-.5-.8-.4-.5-.8-.9-1.3-1.3-.4-.3-.9-.6-1.3-.8-.8-.4-1.6-.5-2.2-.6H31c-.3 0-.5.1-.7.1-.7.1-1.1.2-1.2.3l-.3.1.1.4c0 .1.1.6.4 1.2.1.2.2.4.3.7.2.5.5 1 .9 1.5.4.6 1 1.1 1.6 1.6.4.3.9.5 1.4.8.5.2 1.1.4 1.8.5.3 0 .6.1.9.1h.1c.9 0 1.8-.1 2.9-.4l.4-.1-.1-.4c-.6-1.3-1-2.2-1.5-2.9"/><path class="st4" d="M34.8 30h-.1c-.6 0-1.1-.3-1.4-.6l-.3-.3c0-.1-.1-.1-.1-.2l-.3-.6h.8c.1 0 .3 0 .4.1.5.1.9.5 1.2.9l.3.6c-.1.1-.3.1-.5.1m1.2-.7c-.2-.3-.3-.6-.5-.8-.8-.9-1.8-1.1-2.4-1.1h-.5c-.4 0-.7.2-.7.2l-.3.1h-.1v.1l.1.3c0 .2.1.5.2.7.3.8 1.1 1.7 2.3 2 .2 0 .4.1.6.1h.3c.3 0 .6-.1.9-.1l.4-.1-.1-.4c0-.4-.1-.7-.2-1"/><path class="st4" d="M40.1 27.5c-.4-.5-.8-1-1.3-1.4.8-.5 1.6-1.1 2.4-1.8l.3-.3-.3-.3c-.8-.8-1.6-1.4-2.4-1.8.4-.4.9-.9 1.3-1.4 1.7.8 3.4 1.9 5 3.5-1.7 1.6-3.3 2.7-5 3.5m2.3 6.5c-1.6.4-3.1.6-4.6.6-.5 0-1 0-1.5-.1-.3 0-.6-.1-.9-.1-.6-.1-1.2-.3-1.7-.4l-.9-.3c-.3-.1-.7-.3-1-.5-.5-.3-.9-.6-1.3-.9-.1-.1-.2-.2-.4-.3v-.1c-.1-.4-.2-.8-.3-1.1-.2-.5-.4-1.1-.6-1.6l-.6-1.2c-.2-.3-.4-.6-.5-.9-.6-1-1.2-1.7-1.7-2.3l-.2-.2-.4-.4c.2 0 .4-.1.6-.1h.3c.7-.1 1.7-.3 2.8-.3h1.2c.6 0 1.3.1 1.9.2.1 0 .2 0 .4.1.4.1.9.2 1.3.4.1 0 .2.1.3.1.1 0 .3.1.4.1.5.2 1 .4 1.5.7l.9.6c.3.2.5.4.8.6.4.4.9.8 1.3 1.3.2.2.4.5.5.7.8 1.3 1.7 3.1 2.4 5.4M35 41.4c-2.2-.6-4-1.5-5.5-2.6.2-.6.4-1.2.5-1.8.8.5 1.7.9 2.8 1.1l.4.1.1-.4c.3-1.1.4-2.1.4-3 .6.2 1.2.3 1.8.4.3 1.9.1 4-.5 6.2m-2.1-6.8c0 .8 0 1.7-.2 2.7-.9-.3-1.7-.7-2.4-1.1.1-.4.1-.8.1-1.1.3.1.5.2.8.3l.4.1.1-.4c.1-.3.1-.6.2-.9.3.1.6.2 1 .4m-1.9-1v.7l-.6-.3v-.1c0-.3 0-.5-.1-.8.2.2.5.4.7.5m-6 10.5c-1.6-1.6-2.7-3.3-3.5-5-.1-.3-.2-.5-.3-.8-.2-.6-.4-1.2-.5-1.7-.1-.3-.1-.6-.1-1s-.1-.7-.1-1.1V34c0-.4.1-.8.1-1.1 0-.1.1-.3.1-.4.3-.3.6-.5.8-.8.4-.4.8-.9 1.1-1.3.3-.4.5-.7.7-1.1.2-.3.4-.6.5-.9.5-1 .9-1.9 1.1-2.6v-.1c0-.1.1-.2.1-.3 0-.2.1-.3.1-.4l.4.4.2.2c.5.6 1.1 1.3 1.7 2.3.2.3.4.7.6 1 .3.6.6 1.1.8 1.8 0 .1.1.3.1.4.1.4.2.8.3 1.3v.2c0 .1 0 .3.1.4.1.4.1.7.1 1.1v.5c0 .4 0 .7-.1 1.1 0 .3-.1.6-.1 1-.1.6-.3 1.2-.5 1.7-.1.3-.2.5-.3.8-.7 1.6-1.8 3.2-3.4 4.9m-10-2.7c-.5-2.2-.7-4.2-.5-6.1.6-.1 1.2-.2 1.8-.4 0 .9.1 1.9.4 3l.1.4.4-.1c1.1-.3 2-.7 2.8-1.1.1.6.3 1.2.5 1.8-1.5 1-3.4 1.9-5.5 2.5m4.6-7.5v.1l-.6.3v-.7c.2-.2.5-.3.7-.5 0 .3 0 .6-.1.8m.2 2.2c-.7.4-1.5.8-2.4 1.1-.2-1-.3-1.8-.3-2.7.4-.1.7-.3 1-.5 0 .3.1.6.2.9l.1.4.4-.1c.3-.1.6-.2.8-.3.1.5.1.9.2 1.2m-7.6-1.5c-1.4 0-3-.2-4.6-.6.7-2.3 1.5-4.1 2.6-5.5.2-.2.4-.5.5-.7.4-.5.8-.9 1.3-1.3.2-.2.5-.4.8-.6l.9-.6c.5-.3 1-.5 1.5-.7.1 0 .3-.1.4-.1.4.1.7.2 1.1.3.6.1 1.1.2 1.6.3.4.1.9.1 1.3.1h1.1c1.1 0 2.1-.2 2.9-.3.1 0 .2 0 .2-.1.2 0 .4-.1.5-.1-.1.2-.1.4-.2.7v.2c-.2.7-.6 1.6-1.1 2.6-.2.3-.4.7-.6 1-.3.5-.7 1-1.2 1.5-.1.1-.2.2-.2.3l-.9.9c-.1.1-.2.2-.3.2-.1.1-.2.2-.4.3-.4.3-.9.6-1.3.9-.3.2-.6.3-1 .5l-.9.3c-.5.2-1.1.3-1.7.4-.3 0-.6.1-.9.1h-1.4M4.9 24c1.6-1.6 3.3-2.7 5-3.5.4.5.8 1 1.3 1.4-.8.5-1.6 1.1-2.4 1.8l-.3.3.3.3c.8.8 1.6 1.4 2.4 1.8-.4.4-.9.9-1.3 1.4-1.7-.8-3.3-1.9-5-3.5m7.2.3c.2.2.4.4.7.6-.3.2-.6.4-.9.7-.7-.4-1.4-.9-2.1-1.5.7-.7 1.4-1.2 2.1-1.5.3.2.6.5.9.7-.2.2-.4.3-.7.6l-.3.1.3.3zm1.5.1c-.2-.1-.4-.2-.6-.4.2-.2.4-.3.6-.4.2.1.5.3.7.4-.2.1-.4.2-.7.4M7.6 14c1.6-.4 3.1-.6 4.6-.6.5 0 1 0 1.5.1.3 0 .6.1.9.1.6.1 1.2.3 1.7.4l.9.3c.3.1.7.3 1 .5.5.3.9.6 1.3.9.1.1.2.2.4.3.1.4.2.8.3 1.1.2.5.4 1.1.6 1.6l.6 1.2c.2.3.4.6.5.9.6 1 1.2 1.7 1.7 2.3.1.1.1.1.1.2.2.1.3.3.4.4-.2 0-.4.1-.6.1h-.3c-.7.1-1.7.3-2.8.3h-1.2c-.6 0-1.3-.1-1.9-.2-.1 0-.2 0-.4-.1-.4-.1-.9-.2-1.3-.4-.1 0-.2-.1-.3-.1-.1 0-.3-.1-.4-.1-.5-.2-1-.4-1.5-.7l-.9-.6c-.3-.2-.5-.4-.8-.6-.4-.4-.9-.8-1.3-1.3-.2-.2-.4-.5-.5-.7-.7-1.2-1.6-3-2.3-5.3M15 6.6c2.2.6 4 1.5 5.5 2.6-.2.6-.4 1.2-.5 1.8-.8-.5-1.7-.9-2.8-1.1l-.4-.1-.1.4c-.3 1.1-.4 2.1-.4 3-.6-.2-1.2-.3-1.8-.4-.3-2-.1-4 .5-6.2m2.1 6.8c0-.8 0-1.7.3-2.7.9.3 1.7.7 2.4 1.1-.1.4-.1.8-.1 1.1-.3-.1-.5-.2-.8-.3l-.4-.1-.2.5c-.1.3-.1.6-.2.9-.3-.2-.6-.3-1-.5m1.9 1v-.7l.6.3v.1c0 .3 0 .5.1.8-.2-.2-.5-.4-.7-.5m6-10.5c1.6 1.6 2.7 3.3 3.5 5 .1.3.2.5.3.8.2.6.4 1.2.5 1.7.1.3.1.6.1 1s.1.7.1 1.1v.5c0 .4-.1.8-.1 1.1 0 .1-.1.3-.1.4-.3.3-.6.5-.8.8-.4.4-.8.9-1.1 1.3-.3.4-.5.7-.7 1.1-.2.3-.4.6-.5.9-.5 1-.9 1.9-1.1 2.6v.1c0 .1-.1.2-.1.3 0 .2-.1.3-.1.4l-.4-.4-.2-.2c-.5-.6-1.1-1.3-1.7-2.3-.2-.3-.4-.7-.6-1-.3-.6-.5-1.1-.8-1.8 0-.1-.1-.3-.1-.4-.1-.4-.2-.8-.3-1.3v-.2c0-.1 0-.3-.1-.4-.1-.4-.1-.7-.1-1.1v-.5c0-.4 0-.7.1-1.1 0-.3.1-.6.1-1 .1-.6.3-1.2.5-1.7.1-.3.2-.5.3-.8.7-1.6 1.8-3.2 3.4-4.9m10 2.7c.5 2.2.7 4.2.5 6.1-.6.1-1.2.2-1.8.4 0-.9-.1-1.9-.4-3l-.1-.4-.4.1c-1.1.3-2 .7-2.8 1.1-.1-.6-.3-1.2-.5-1.8 1.5-1 3.4-1.9 5.5-2.5m-4.6 7.5V14l.6-.3v.7c-.2.2-.5.3-.7.5 0-.3 0-.6.1-.8m-.2-2.2c.7-.4 1.5-.8 2.4-1.1.2 1 .3 1.8.3 2.7-.4.1-.7.3-1 .5 0-.3-.1-.6-.2-.9l-.1-.4-.4.1c-.3.1-.6.2-.8.3-.1-.5-.1-.9-.2-1.2m7.7 11.8c-.2-.2-.4-.4-.7-.6.3-.2.6-.4.9-.7.7.4 1.4.9 2.1 1.5-.7.7-1.4 1.2-2.1 1.5-.3-.2-.6-.5-.9-.7.2-.2.4-.3.7-.6l.3-.3-.3-.1zm-2.3.3c.3-.1.5-.2.7-.4.2.1.4.2.6.4-.2.2-.4.3-.6.4-.2-.2-.4-.3-.7-.4m2.2-10.6c1.4 0 3 .2 4.6.6-.7 2.3-1.5 4.1-2.6 5.5-.2.2-.4.5-.5.7-.4.5-.8.9-1.3 1.3-.2.2-.5.4-.8.6l-.9.6c-.5.3-1 .5-1.5.7-.1 0-.3.1-.4.1-.4-.1-.7-.2-1.1-.3-.6-.1-1.1-.2-1.6-.3-.4 0-.9-.1-1.3-.1h-1.1c-1.1 0-2.1.2-2.9.3-.1 0-.2 0-.2.1-.2 0-.4.1-.5.1.1-.2.1-.4.2-.7v-.2c.2-.7.6-1.6 1.1-2.6.2-.3.4-.7.6-1 .3-.5.7-1 1.2-1.5l.3-.3.9-.9c.1-.1.2-.2.3-.2.1-.1.2-.2.4-.3.4-.3.9-.6 1.3-.9.3-.2.6-.3 1-.5l.9-.3c.5-.2 1.1-.3 1.7-.4.3 0 .6-.1.9-.1h1.3M46.3 24l-.3-.3c-1.7-1.7-3.5-3-5.4-3.9 1.1-1.6 2-3.5 2.7-6.1l.1-.4H43c-1.8-.5-3.6-.7-5.2-.7-.5 0-.9 0-1.4.1.2-2 0-4.2-.7-6.6l-.1-.4-.4.1c-2.4.6-4.4 1.5-6 2.7-.9-1.9-2.2-3.7-3.9-5.5l-.3-.3-.3.3c-1.7 1.7-3 3.5-3.9 5.4-1.6-1.2-3.7-2.1-6-2.7l-.4-.1-.1.4c-.6 2.4-.9 4.6-.7 6.6-.4 0-.9-.1-1.4-.1-1.6 0-3.4.2-5.2.7l-.4.1.1.4c.7 2.5 1.6 4.5 2.7 6.1-1.8.9-3.6 2.2-5.4 3.9l-.3.3.3.3c1.7 1.7 3.5 3 5.4 3.9-1.1 1.6-2 3.5-2.7 6.1l-.1.4H7c1.8.5 3.6.7 5.2.7.5 0 .9 0 1.4-.1-.2 2 0 4.2.7 6.6l.1.4.4-.1c2.4-.6 4.4-1.5 6-2.7.8 1.8 2.1 3.6 3.9 5.4l.3.3.3-.3c1.7-1.7 3-3.5 3.9-5.4 1.6 1.2 3.7 2.1 6 2.7l.4.1.1-.4c.6-2.4.9-4.6.7-6.6.4 0 .9.1 1.4.1 1.6 0 3.4-.2 5.2-.7l.4-.1-.1-.4c-.7-2.5-1.6-4.5-2.7-6.1 1.8-.8 3.6-2.1 5.4-3.9l.3-.2z"/><path class="st4" d="M35.6 16.1h.4c.7 0 1.4.1 2.2.3-.3 1-.7 1.8-1.1 2.4-.2.3-.4.5-.6.8-.6.6-1.2 1.1-1.8 1.4-.8.4-1.6.6-2.3.6h-1.2c-.5 0-.9-.1-1.3-.2-.2 0-.3-.1-.4-.1 0-.1.1-.3.1-.4.1-.3.3-.7.5-1.2.2-.3.4-.6.6-1 .4-.6.9-1.2 1.6-1.6.6-.4 1.3-.7 2.1-.9.5 0 .9-.1 1.2-.1m-2.4-.3c-.5.2-1 .5-1.4.8-.7.5-1.2 1-1.6 1.6-.4.5-.7 1-.9 1.5-.1.2-.2.5-.3.7-.2.6-.3 1.1-.4 1.2l-.1.4h.5c.1 0 .6.2 1.2.3.2 0 .5.1.7.1h1.7c.7-.1 1.5-.3 2.2-.6.4-.2.9-.5 1.3-.8.4-.3.9-.8 1.3-1.3.2-.2.4-.5.5-.8.5-.8.9-1.7 1.2-2.8l.1-.4-.4-.1c-1-.3-2-.4-2.8-.4h-.1c-.3 0-.6 0-.9.1-.7.1-1.2.2-1.8.5"/><path class="st4" d="M34.7 18h.7l-.3.6c-.3.5-.7.8-1.2.9-.1 0-.3.1-.4.1h-.8l.3-.6c0-.1.1-.1.1-.2l.3-.3c.2-.2.6-.5 1.3-.5m-2.9 1.2c-.1.3-.2.5-.2.7l-.1.3v.1h.1l.3.1s.3.1.7.2h.5c.6 0 1.6-.2 2.4-1.1.2-.2.4-.5.5-.8.1-.2.2-.5.3-.8l.1-.4-.4-.2c-.3-.1-.6-.1-.9-.1h-.3c-.2 0-.4 0-.6.1-1.3.1-2 1.1-2.4 1.9M25 12c.2.2.3.4.4.6.2.4.3.7.3 1.1 0 .2 0 .3-.1.4 0 .1-.1.3-.1.4 0 .1-.1.1-.1.2-.1.2-.3.4-.4.6-.1-.1-.2-.3-.4-.6 0-.1-.1-.1-.1-.2-.1-.1-.1-.2-.1-.4 0-.1-.1-.3-.1-.4 0-.4.1-.7.3-1.1.1-.2.2-.4.4-.6m-.3 4.2l.2.2.1.1.1-.1.2-.2s.3-.2.5-.6c.3-.4.7-1.1.7-1.9 0-.4 0-.7-.2-1.1-.1-.3-.3-.6-.5-.9-.2-.2-.3-.5-.6-.7l-.2-.2-.3.3c-.2.2-.4.4-.6.7-.2.3-.3.6-.5.9-.1.4-.2.7-.2 1.1 0 .8.4 1.5.7 1.9.4.3.6.5.6.5"/></svg>